<?plantuml 1.2026.1?><svg xmlns="http://www.w3.org/2000/svg" xmlns:xlink="http://www.w3.org/1999/xlink" contentStyleType="text/css" data-diagram-type="CLASS" height="566.25px" preserveAspectRatio="none" style="width:1113px;height:566px;" version="1.1" viewBox="0 0 1113 566" width="1113.75px" zoomAndPan="magnify"><defs/><g><!--class Entity--><g class="entity" data-qualified-name="Entity" data-source-line="14" id="ent0002"><rect fill="#F9FAFB" height="334.4531" rx="4.6875" ry="4.6875" style="stroke:#1F2937;stroke-width:0.9375;" width="420.3003" x="13.125" y="185.2688"/><rect fill="#E5E7EB" height="60" rx="4.6875" ry="4.6875" style="stroke:#E5E7EB;stroke-width:0.9375;" width="420.3003" x="13.125" y="185.2688"/><rect fill="#E5E7EB" height="4.6875" style="stroke:#E5E7EB;stroke-width:0.9375;" width="420.3003" x="13.125" y="240.5813"/><rect fill="none" height="334.4531" rx="4.6875" ry="4.6875" style="stroke:#1F2937;stroke-width:0.9375;" width="420.3003" x="13.125" y="185.2688"/><ellipse cx="176.9888" cy="215.2688" fill="#A9DCDF" rx="20.625" ry="20.625" style="stroke:#181818;stroke-width:1.875;"/><path d="M177.1939,206.5383 L175.0259,216.0598 L179.3912,216.0598 L177.1939,206.5383 Z M174.4107,202.3488 L180.0064,202.3488 L186.3052,225.5813 L181.7056,225.5813 L180.2701,219.8391 L174.1177,219.8391 L172.7115,225.5813 L168.1412,225.5813 L174.4107,202.3488 Z " fill="#000000"/><text fill="#000000" font-family="Helvetica" font-size="26.25" font-style="italic" lengthAdjust="spacing" textLength="76.6351" x="215.4263" y="224.3563">Entity</text><line style="stroke:#1F2937;stroke-width:0.9375;" x1="15" x2="431.5503" y1="245.2688" y2="245.2688"/><text fill="#000000" font-family="Helvetica" font-size="26.25" lengthAdjust="spacing" textLength="97.2839" x="24.375" y="277.1346">+x : int</text><text fill="#000000" font-family="Helvetica" font-size="26.25" lengthAdjust="spacing" textLength="97.2839" x="24.375" y="307.6912">+y : int</text><text fill="#000000" font-family="Helvetica" font-size="26.25" lengthAdjust="spacing" textLength="173.6755" x="24.375" y="338.2479">+energy : int</text><text fill="#000000" font-family="Helvetica" font-size="26.25" lengthAdjust="spacing" textLength="164.8444" x="24.375" y="368.8045">+health : int</text><text fill="#000000" font-family="Helvetica" font-size="26.25" lengthAdjust="spacing" textLength="247.1832" x="24.375" y="399.3612">+type : EntityType</text><line style="stroke:#1F2937;stroke-width:0.9375;" x1="15" x2="431.5503" y1="413.052" y2="413.052"/><text fill="#000000" font-family="Helvetica" font-size="26.25" lengthAdjust="spacing" textLength="258.1549" x="24.375" y="444.9178">+isAlive() : boolean</text><text fill="#000000" font-family="Helvetica" font-size="26.25" lengthAdjust="spacing" textLength="361.8988" x="24.375" y="475.4744">+canReproduce() : boolean</text><text fill="#000000" font-family="Helvetica" font-size="26.25" lengthAdjust="spacing" textLength="397.8003" x="24.375" y="506.0311">+spawnOffspring(x, y) : Entity</text></g><!--class Animal--><g class="entity" data-qualified-name="Animal" data-source-line="25" id="ent0003"><rect fill="#F9FAFB" height="212.2266" rx="4.6875" ry="4.6875" style="stroke:#1F2937;stroke-width:0.9375;" width="270.4138" x="545.925" y="28.8938"/><rect fill="#E5E7EB" height="60" rx="4.6875" ry="4.6875" style="stroke:#E5E7EB;stroke-width:0.9375;" width="270.4138" x="545.925" y="28.8938"/><rect fill="#E5E7EB" height="4.6875" style="stroke:#E5E7EB;stroke-width:0.9375;" width="270.4138" x="545.925" y="84.2063"/><rect fill="none" height="212.2266" rx="4.6875" ry="4.6875" style="stroke:#1F2937;stroke-width:0.9375;" width="270.4138" x="545.925" y="28.8938"/><ellipse cx="627.8597" cy="58.8938" fill="#A9DCDF" rx="20.625" ry="20.625" style="stroke:#181818;stroke-width:1.875;"/><path d="M628.0647,50.1633 L625.8968,59.6848 L630.262,59.6848 L628.0647,50.1633 Z M625.2815,45.9738 L630.8772,45.9738 L637.1761,69.2063 L632.5765,69.2063 L631.1409,63.4641 L624.9886,63.4641 L623.5823,69.2063 L619.012,69.2063 L625.2815,45.9738 Z " fill="#000000"/><text fill="#000000" font-family="Helvetica" font-size="26.25" font-style="italic" lengthAdjust="spacing" textLength="90.8368" x="666.0674" y="67.9813">Animal</text><line style="stroke:#1F2937;stroke-width:0.9375;" x1="547.8" x2="814.4638" y1="88.8938" y2="88.8938"/><text fill="#000000" font-family="Helvetica" font-size="26.25" lengthAdjust="spacing" textLength="161.0504" x="557.175" y="120.7596">+speed : int</text><text fill="#000000" font-family="Helvetica" font-size="26.25" lengthAdjust="spacing" textLength="242.0178" x="557.175" y="151.3162">+visionRange : int</text><text fill="#000000" font-family="Helvetica" font-size="26.25" lengthAdjust="spacing" textLength="244.4403" x="557.175" y="181.8729">+attackPower : int</text><text fill="#000000" font-family="Helvetica" font-size="26.25" lengthAdjust="spacing" textLength="247.9138" x="557.175" y="212.4295">+attackRange : int</text><line style="stroke:#1F2937;stroke-width:0.9375;" x1="547.8" x2="814.4638" y1="226.1203" y2="226.1203"/></g><!--class Predator--><g class="entity" data-qualified-name="Predator" data-source-line="32" id="ent0004"><rect fill="#F9FAFB" height="90" rx="4.6875" ry="4.6875" style="stroke:#1F2937;stroke-width:0.9375;" width="172.6648" x="928.8375" y="13.125"/><rect fill="#E5E7EB" height="60" rx="4.6875" ry="4.6875" style="stroke:#E5E7EB;stroke-width:0.9375;" width="172.6648" x="928.8375" y="13.125"/><rect fill="#E5E7EB" height="4.6875" style="stroke:#E5E7EB;stroke-width:0.9375;" width="172.6648" x="928.8375" y="68.4375"/><rect fill="none" height="90" rx="4.6875" ry="4.6875" style="stroke:#1F2937;stroke-width:0.9375;" width="172.6648" x="928.8375" y="13.125"/><ellipse cx="956.9625" cy="43.125" fill="#ADD1B2" rx="20.625" ry="20.625" style="stroke:#181818;stroke-width:1.875;"/><path d="M962.5289,53.7012 Q961.4449,54.2578 960.2438,54.5215 Q959.0426,54.8145 957.7242,54.8145 Q953.0367,54.8145 950.5465,51.7383 Q948.0855,48.6328 948.0855,42.7734 Q948.0855,36.9141 950.5465,33.8086 Q953.0367,30.7031 957.7242,30.7031 Q959.0426,30.7031 960.2438,30.9961 Q961.4742,31.2891 962.5289,31.8457 L962.5289,36.9434 Q961.357,35.8594 960.2438,35.3613 Q959.1305,34.834 957.9586,34.834 Q955.4391,34.834 954.15,36.8555 Q952.8609,38.8477 952.8609,42.7734 Q952.8609,46.6992 954.15,48.7207 Q955.4391,50.7129 957.9586,50.7129 Q959.1305,50.7129 960.2438,50.2148 Q961.357,49.6875 962.5289,48.6035 L962.5289,53.7012 Z " fill="#000000"/><text fill="#000000" font-family="Helvetica" font-size="26.25" lengthAdjust="spacing" textLength="112.6648" x="983.2125" y="52.2125">Predator</text><line style="stroke:#1F2937;stroke-width:0.9375;" x1="930.7125" x2="1099.6273" y1="73.125" y2="73.125"/><line style="stroke:#1F2937;stroke-width:0.9375;" x1="930.7125" x2="1099.6273" y1="88.125" y2="88.125"/></g><!--class Prey--><g class="entity" data-qualified-name="Prey" data-source-line="33" id="ent0005"><rect fill="#F9FAFB" height="90" rx="4.6875" ry="4.6875" style="stroke:#1F2937;stroke-width:0.9375;" width="118.3063" x="956.025" y="168.75"/><rect fill="#E5E7EB" height="60" rx="4.6875" ry="4.6875" style="stroke:#E5E7EB;stroke-width:0.9375;" width="118.3063" x="956.025" y="168.75"/><rect fill="#E5E7EB" height="4.6875" style="stroke:#E5E7EB;stroke-width:0.9375;" width="118.3063" x="956.025" y="224.0625"/><rect fill="none" height="90" rx="4.6875" ry="4.6875" style="stroke:#1F2937;stroke-width:0.9375;" width="118.3063" x="956.025" y="168.75"/><ellipse cx="984.15" cy="198.75" fill="#ADD1B2" rx="20.625" ry="20.625" style="stroke:#181818;stroke-width:1.875;"/><path d="M989.7164,209.3262 Q988.6324,209.8828 987.4313,210.1465 Q986.2301,210.4395 984.9117,210.4395 Q980.2242,210.4395 977.734,207.3633 Q975.273,204.2578 975.273,198.3984 Q975.273,192.5391 977.734,189.4336 Q980.2242,186.3281 984.9117,186.3281 Q986.2301,186.3281 987.4313,186.6211 Q988.6617,186.9141 989.7164,187.4707 L989.7164,192.5684 Q988.5445,191.4844 987.4313,190.9863 Q986.318,190.459 985.1461,190.459 Q982.6266,190.459 981.3375,192.4805 Q980.0484,194.4727 980.0484,198.3984 Q980.0484,202.3242 981.3375,204.3457 Q982.6266,206.3379 985.1461,206.3379 Q986.318,206.3379 987.4313,205.8398 Q988.5445,205.3125 989.7164,204.2285 L989.7164,209.3262 Z " fill="#000000"/><text fill="#000000" font-family="Helvetica" font-size="26.25" lengthAdjust="spacing" textLength="58.3063" x="1010.4" y="207.8375">Prey</text><line style="stroke:#1F2937;stroke-width:0.9375;" x1="957.9" x2="1072.4563" y1="228.75" y2="228.75"/><line style="stroke:#1F2937;stroke-width:0.9375;" x1="957.9" x2="1072.4563" y1="243.75" y2="243.75"/></g><!--class Plant--><g class="entity" data-qualified-name="Plant" data-source-line="34" id="ent0006"><rect fill="#F9FAFB" height="90" rx="4.6875" ry="4.6875" style="stroke:#1F2937;stroke-width:0.9375;" width="126.1377" x="618.0563" y="307.5"/><rect fill="#E5E7EB" height="60" rx="4.6875" ry="4.6875" style="stroke:#E5E7EB;stroke-width:0.9375;" width="126.1377" x="618.0563" y="307.5"/><rect fill="#E5E7EB" height="4.6875" style="stroke:#E5E7EB;stroke-width:0.9375;" width="126.1377" x="618.0563" y="362.8125"/><rect fill="none" height="90" rx="4.6875" ry="4.6875" style="stroke:#1F2937;stroke-width:0.9375;" width="126.1377" x="618.0563" y="307.5"/><ellipse cx="646.1813" cy="337.5" fill="#ADD1B2" rx="20.625" ry="20.625" style="stroke:#181818;stroke-width:1.875;"/><path d="M651.7477,348.0762 Q650.6637,348.6328 649.4625,348.8965 Q648.2613,349.1895 646.943,349.1895 Q642.2555,349.1895 639.7652,346.1133 Q637.3043,343.0078 637.3043,337.1484 Q637.3043,331.2891 639.7652,328.1836 Q642.2555,325.0781 646.943,325.0781 Q648.2613,325.0781 649.4625,325.3711 Q650.693,325.6641 651.7477,326.2207 L651.7477,331.3184 Q650.5758,330.2344 649.4625,329.7363 Q648.3492,329.209 647.1773,329.209 Q644.6578,329.209 643.3688,331.2305 Q642.0797,333.2227 642.0797,337.1484 Q642.0797,341.0742 643.3688,343.0957 Q644.6578,345.0879 647.1773,345.0879 Q648.3492,345.0879 649.4625,344.5898 Q650.5758,344.0625 651.7477,342.9785 L651.7477,348.0762 Z " fill="#000000"/><text fill="#000000" font-family="Helvetica" font-size="26.25" lengthAdjust="spacing" textLength="66.1377" x="672.4313" y="346.5875">Plant</text><line style="stroke:#1F2937;stroke-width:0.9375;" x1="619.9313" x2="742.3189" y1="367.5" y2="367.5"/><line style="stroke:#1F2937;stroke-width:0.9375;" x1="619.9313" x2="742.3189" y1="382.5" y2="382.5"/></g><!--class EntityType--><g class="entity" data-qualified-name="EntityType" data-source-line="35" id="ent0007"><rect fill="#F9FAFB" height="90" rx="4.6875" ry="4.6875" style="stroke:#1F2937;stroke-width:0.9375;" width="201.0168" x="580.6313" y="463.125"/><rect fill="#E5E7EB" height="60" rx="4.6875" ry="4.6875" style="stroke:#E5E7EB;stroke-width:0.9375;" width="201.0168" x="580.6313" y="463.125"/><rect fill="#E5E7EB" height="4.6875" style="stroke:#E5E7EB;stroke-width:0.9375;" width="201.0168" x="580.6313" y="518.4375"/><rect fill="none" height="90" rx="4.6875" ry="4.6875" style="stroke:#1F2937;stroke-width:0.9375;" width="201.0168" x="580.6313" y="463.125"/><ellipse cx="608.7563" cy="493.125" fill="#EB937F" rx="20.625" ry="20.625" style="stroke:#181818;stroke-width:1.875;"/><path d="M616.4613,504.375 L601.9887,504.375 L601.9887,481.1426 L616.4613,481.1426 L616.4613,485.1855 L606.5883,485.1855 L606.5883,490.1953 L615.5238,490.1953 L615.5238,494.2383 L606.5883,494.2383 L606.5883,500.332 L616.4613,500.332 L616.4613,504.375 Z " fill="#000000"/><text fill="#000000" font-family="Helvetica" font-size="26.25" lengthAdjust="spacing" textLength="141.0168" x="635.0063" y="502.2125">EntityType</text><line style="stroke:#1F2937;stroke-width:0.9375;" x1="582.5063" x2="779.7731" y1="523.125" y2="523.125"/><line style="stroke:#1F2937;stroke-width:0.9375;" x1="582.5063" x2="779.7731" y1="538.125" y2="538.125"/></g><!--reverse link Entity to Animal--><g class="link" data-entity-1="ent0002" data-entity-2="ent0003" data-link-type="extension" data-source-line="37" id="lnk8"><path codeLine="37" d="M467.8688,213.1875 C505.65,213.1875 510.3375,213.1875 545.3063,213.1875" fill="none" id="Entity-backto-Animal" style="stroke:#4B5563;stroke-width:1.875;"/><polygon fill="none" points="434.1188,213.1875,467.8688,224.4375,467.8688,201.9375,434.1188,213.1875" style="stroke:#4B5563;stroke-width:1.875;"/></g><!--reverse link Animal to Predator--><g class="link" data-entity-1="ent0003" data-entity-2="ent0004" data-link-type="extension" data-source-line="38" id="lnk9"><path codeLine="38" d="M850.7438,66 C888.3187,66 894.3188,66 928.275,66" fill="none" id="Animal-backto-Predator" style="stroke:#4B5563;stroke-width:1.875;"/><polygon fill="none" points="816.9938,66,850.7438,77.25,850.7438,54.75,816.9938,66" style="stroke:#4B5563;stroke-width:1.875;"/></g><!--reverse link Animal to Prey--><g class="link" data-entity-1="ent0003" data-entity-2="ent0005" data-link-type="extension" data-source-line="39" id="lnk10"><path codeLine="39" d="M850.7438,204.9375 C898.8,204.9375 916.65,204.9375 955.1625,204.9375" fill="none" id="Animal-backto-Prey" style="stroke:#4B5563;stroke-width:1.875;"/><polygon fill="none" points="816.9938,204.9375,850.7438,216.1875,850.7438,193.6875,816.9938,204.9375" style="stroke:#4B5563;stroke-width:1.875;"/></g><!--reverse link Entity to Plant--><g class="link" data-entity-1="ent0002" data-entity-2="ent0006" data-link-type="extension" data-source-line="40" id="lnk11"><path codeLine="40" d="M467.8688,352.5 C534.525,352.5 569.475,352.5 617.4563,352.5" fill="none" id="Entity-backto-Plant" style="stroke:#4B5563;stroke-width:1.875;"/><polygon fill="none" points="434.1188,352.5,467.8688,363.75,467.8688,341.25,434.1188,352.5" style="stroke:#4B5563;stroke-width:1.875;"/></g><!--link Entity to EntityType--><g class="link" data-entity-1="ent0002" data-entity-2="ent0007" data-link-type="dependency" data-source-line="41" id="lnk12"><path codeLine="41" d="M434.1188,491.4188 C484.8,491.4188 525.45,491.4188 568.5,491.4188" fill="none" id="Entity-to-EntityType" style="stroke:#4B5563;stroke-width:1.875;"/><polygon fill="#4B5563" points="579.75,491.4188,562.875,483.9188,570.375,491.4188,562.875,498.9188,579.75,491.4188" style="stroke:#4B5563;stroke-width:1.875;"/></g><?plantuml-src VL7HJjj047ptLwp42wYD1AKf1Q5A3ef5NoYY_O6DlRPFNFQilNM2I_lllSHkVCGIRxipSxEpU_xPS8E2QrXX_bo9QxcuSzO9g23xG15huWygNsFXjeOhAD5wYfYYCN3nzJn6gCJMQkPO7t1DS4zsGsfoZ3IvHU_VLQGYRjj7ElcycC-_N4RatUxvmab1CaWkia_NbrSJoT5o9zbrbcQBOzazON2QY9VpvTLo8avLnQnQfU-vuv_cDq6yl3LCsZK4JhHsYQLIGHs8gMg5mWZbQXmd2Qvyk7Ik_ILWoMgqWzS4uCCBt809rmzbDvR495NKruHMwx7V3xqPZ7w5PWSQdrgpeTEpmAoSiuIyWtFa9sh45Mq-uSBVR_b7MVf6mdUVldo4xkpWc_oT94_PhD7soNr3L8oHDiQ7NP-GAnf1L0rtVdHRacCmLeP1lV-ZK87gP6ox_wN582Hkr_7MoN3Asp-psH0k6JBkeOFV4TYzUTXx3yXizYsQy0y0?></g></svg>