<?plantuml 1.2026.2?><svg xmlns="http://www.w3.org/2000/svg" xmlns:xlink="http://www.w3.org/1999/xlink" contentStyleType="text/css" data-diagram-type="CLASS" height="860.625px" preserveAspectRatio="none" style="width:1121px;height:860px;" version="1.1" viewBox="0 0 1121 860" width="1121.25px" zoomAndPan="magnify"><title>Domain Model</title><defs/><g><g class="title" data-source-line="1"><text fill="#000000" font-family="Helvetica" font-size="26.25" font-weight="bold" lengthAdjust="spacing" textLength="179.3793" x="457.9604" y="43.3722">Domain Model</text></g><!--cluster model--><g class="cluster" data-qualified-name="model" data-source-line="17" id="ent0002"><rect fill="none" height="766.875" rx="4.6875" ry="4.6875" style="stroke:#000000;stroke-width:2.8125;" width="1097.175" x="13.125" y="82.6849"/><text fill="#000000" font-family="Helvetica" font-size="26.25" font-weight="bold" lengthAdjust="spacing" textLength="77.3016" x="523.0617" y="111.0571">model</text></g><!--class Entity--><g class="entity" data-qualified-name="model.Entity" data-source-line="18" id="ent0003"><rect fill="#FFFFFF" height="331.4795" rx="4.6875" ry="4.6875" style="stroke:#0F172A;stroke-width:0.9375;" width="366.0571" x="43.125" y="363.2037"/><rect fill="#E2E8F0" height="60" rx="4.6875" ry="4.6875" style="stroke:#E2E8F0;stroke-width:0.9375;" width="366.0571" x="43.125" y="363.2037"/><rect fill="#E2E8F0" height="4.6875" style="stroke:#E2E8F0;stroke-width:0.9375;" width="366.0571" x="43.125" y="418.5162"/><rect fill="none" height="331.4795" rx="4.6875" ry="4.6875" style="stroke:#0F172A;stroke-width:0.9375;" width="366.0571" x="43.125" y="363.2037"/><ellipse cx="185.3595" cy="393.2037" fill="#A9DCDF" rx="20.625" ry="20.625" style="stroke:#181818;stroke-width:1.875;"/><path d="M176.1603,404.4537 L182.0197,381.192 L187.1466,381.192 L193.0646,404.4537 L188.963,404.4537 L187.7032,398.7994 L181.5216,398.7994 L180.2325,404.4537 L176.1603,404.4537 Z M182.254,395.5474 L186.9708,395.5474 L185.5646,389.3072 Q185.213,387.7545 184.9493,386.4947 Q184.715,385.2349 184.5978,384.649 Q184.5099,385.2349 184.2462,386.4947 Q184.0118,387.7545 183.6603,389.2779 L182.254,395.5474 Z " fill="#000000"/><text fill="#000000" font-family="Helvetica" font-size="26.25" font-style="italic" lengthAdjust="spacing" textLength="65.6506" x="223.797" y="402.7334">Entity</text><line style="stroke:#0F172A;stroke-width:0.9375;" x1="45" x2="407.3071" y1="423.2037" y2="423.2037"/><text fill="#000000" font-family="Helvetica" font-size="26.25" lengthAdjust="spacing" textLength="78.0579" x="54.375" y="455.3259">+x : int</text><text fill="#000000" font-family="Helvetica" font-size="26.25" lengthAdjust="spacing" textLength="78.0579" x="54.375" y="485.5108">+y : int</text><text fill="#000000" font-family="Helvetica" font-size="26.25" lengthAdjust="spacing" textLength="145.1953" x="54.375" y="515.6958">+energy : int</text><text fill="#000000" font-family="Helvetica" font-size="26.25" lengthAdjust="spacing" textLength="136.4539" x="54.375" y="545.8807">+health : int</text><text fill="#000000" font-family="Helvetica" font-size="26.25" lengthAdjust="spacing" textLength="210.8331" x="54.375" y="576.0656">+type : EntityType</text><line style="stroke:#0F172A;stroke-width:0.9375;" x1="45" x2="407.3071" y1="589.1284" y2="589.1284"/><text fill="#000000" font-family="Helvetica" font-size="26.25" lengthAdjust="spacing" textLength="223.9709" x="54.375" y="621.2506">+isAlive() : boolean</text><text fill="#000000" font-family="Helvetica" font-size="26.25" lengthAdjust="spacing" textLength="318.858" x="54.375" y="651.4355">+canReproduce() : boolean</text><text fill="#000000" font-family="Helvetica" font-size="26.25" lengthAdjust="spacing" textLength="343.5571" x="54.375" y="681.6204">+spawnOffspring(x, y) : Entity</text></g><!--class Animal--><g class="entity" data-qualified-name="model.Animal" data-source-line="29" id="ent0004"><rect fill="#FFFFFF" height="195.7397" rx="4.6875" ry="4.6875" style="stroke:#0F172A;stroke-width:0.9375;" width="234.8199" x="570.4313" y="624.1849"/><rect fill="#E2E8F0" height="60" rx="4.6875" ry="4.6875" style="stroke:#E2E8F0;stroke-width:0.9375;" width="234.8199" x="570.4313" y="624.1849"/><rect fill="#E2E8F0" height="4.6875" style="stroke:#E2E8F0;stroke-width:0.9375;" width="234.8199" x="570.4313" y="679.4974"/><rect fill="none" height="195.7397" rx="4.6875" ry="4.6875" style="stroke:#0F172A;stroke-width:0.9375;" width="234.8199" x="570.4313" y="624.1849"/><ellipse cx="641.1187" cy="654.1849" fill="#A9DCDF" rx="20.625" ry="20.625" style="stroke:#181818;stroke-width:1.875;"/><path d="M631.9194,665.4349 L637.7788,642.1732 L642.9058,642.1732 L648.8237,665.4349 L644.7222,665.4349 L643.4624,659.7806 L637.2808,659.7806 L635.9917,665.4349 L631.9194,665.4349 Z M638.0132,656.5287 L642.73,656.5287 L641.3237,650.2885 Q640.9722,648.7357 640.7085,647.476 Q640.4741,646.2162 640.3569,645.6302 Q640.269,646.2162 640.0054,647.476 Q639.771,648.7357 639.4194,650.2592 L638.0132,656.5287 Z " fill="#000000"/><text fill="#000000" font-family="Helvetica" font-size="26.25" font-style="italic" lengthAdjust="spacing" textLength="80.2368" x="676.827" y="663.7147">Animal</text><line style="stroke:#0F172A;stroke-width:0.9375;" x1="572.3063" x2="803.3762" y1="684.1849" y2="684.1849"/><text fill="#000000" font-family="Helvetica" font-size="26.25" lengthAdjust="spacing" textLength="136.4539" x="581.6813" y="716.3071">+speed : int</text><text fill="#000000" font-family="Helvetica" font-size="26.25" lengthAdjust="spacing" textLength="209.3976" x="581.6813" y="746.4921">+visionRange : int</text><text fill="#000000" font-family="Helvetica" font-size="26.25" lengthAdjust="spacing" textLength="209.3719" x="581.6813" y="776.677">+attackPower : int</text><text fill="#000000" font-family="Helvetica" font-size="26.25" lengthAdjust="spacing" textLength="212.3199" x="581.6813" y="806.8619">+attackRange : int</text></g><!--class Predator--><g class="entity" data-qualified-name="model.Predator" data-source-line="36" id="ent0005"><rect fill="#FFFFFF" height="60" rx="4.6875" ry="4.6875" style="stroke:#0F172A;stroke-width:0.9375;" width="160.6805" x="919.6313" y="733.3099"/><rect fill="#E2E8F0" height="60" rx="4.6875" ry="4.6875" style="stroke:#E2E8F0;stroke-width:0.9375;" width="160.6805" x="919.6313" y="733.3099"/><rect fill="#E2E8F0" height="4.6875" style="stroke:#E2E8F0;stroke-width:0.9375;" width="160.6805" x="919.6313" y="788.6224"/><rect fill="none" height="60" rx="4.6875" ry="4.6875" style="stroke:#0F172A;stroke-width:0.9375;" width="160.6805" x="919.6313" y="733.3099"/><ellipse cx="947.7563" cy="763.3099" fill="#ADD1B2" rx="20.625" ry="20.625" style="stroke:#181818;stroke-width:1.875;"/><path d="M948.1957,775.8197 Q945.9398,775.8197 944.2699,774.9701 Q942.6293,774.1205 941.7211,772.597 Q940.8129,771.0443 940.8129,768.9349 L940.8129,758.7982 Q940.8129,756.6888 941.7211,755.1654 Q942.6293,753.6127 944.2699,752.7631 Q945.9398,751.9135 948.1957,751.9135 Q950.4223,751.9135 952.0629,752.7631 Q953.7328,753.6127 954.6703,755.1654 Q955.6078,756.6888 955.6078,758.7982 L951.5648,758.7982 Q951.5648,757.1576 950.6859,756.308 Q949.8363,755.4291 948.1957,755.4291 Q946.5844,755.4291 945.6762,756.308 Q944.7973,757.1576 944.7973,758.7982 L944.7973,768.9349 Q944.7973,770.5463 945.6762,771.4252 Q946.5844,772.3041 948.1957,772.3041 Q949.8363,772.3041 950.6859,771.4252 Q951.5648,770.5463 951.5648,768.9349 L955.6078,768.9349 Q955.6078,771.0443 954.6703,772.597 Q953.7328,774.1205 952.0629,774.9701 Q950.4223,775.8197 948.1957,775.8197 Z " fill="#000000"/><text fill="#000000" font-family="Helvetica" font-size="26.25" lengthAdjust="spacing" textLength="100.6805" x="974.0063" y="772.8397">Predator</text></g><!--class Prey--><g class="entity" data-qualified-name="model.Prey" data-source-line="37" id="ent0006"><rect fill="#FFFFFF" height="60" rx="4.6875" ry="4.6875" style="stroke:#0F172A;stroke-width:0.9375;" width="113.974" x="942.975" y="607.6849"/><rect fill="#E2E8F0" height="60" rx="4.6875" ry="4.6875" style="stroke:#E2E8F0;stroke-width:0.9375;" width="113.974" x="942.975" y="607.6849"/><rect fill="#E2E8F0" height="4.6875" style="stroke:#E2E8F0;stroke-width:0.9375;" width="113.974" x="942.975" y="662.9974"/><rect fill="none" height="60" rx="4.6875" ry="4.6875" style="stroke:#0F172A;stroke-width:0.9375;" width="113.974" x="942.975" y="607.6849"/><ellipse cx="971.1" cy="637.6849" fill="#ADD1B2" rx="20.625" ry="20.625" style="stroke:#181818;stroke-width:1.875;"/><path d="M971.5395,650.1947 Q969.2836,650.1947 967.6137,649.3451 Q965.973,648.4955 965.0648,646.972 Q964.1566,645.4193 964.1566,643.3099 L964.1566,633.1732 Q964.1566,631.0638 965.0648,629.5404 Q965.973,627.9877 967.6137,627.1381 Q969.2836,626.2885 971.5395,626.2885 Q973.766,626.2885 975.4066,627.1381 Q977.0766,627.9877 978.0141,629.5404 Q978.9516,631.0638 978.9516,633.1732 L974.9086,633.1732 Q974.9086,631.5326 974.0297,630.683 Q973.1801,629.8041 971.5395,629.8041 Q969.9281,629.8041 969.0199,630.683 Q968.141,631.5326 968.141,633.1732 L968.141,643.3099 Q968.141,644.9213 969.0199,645.8002 Q969.9281,646.6791 971.5395,646.6791 Q973.1801,646.6791 974.0297,645.8002 Q974.9086,644.9213 974.9086,643.3099 L978.9516,643.3099 Q978.9516,645.4193 978.0141,646.972 Q977.0766,648.4955 975.4066,649.3451 Q973.766,650.1947 971.5395,650.1947 Z " fill="#000000"/><text fill="#000000" font-family="Helvetica" font-size="26.25" lengthAdjust="spacing" textLength="53.974" x="997.35" y="647.2147">Prey</text></g><!--class Plant--><g class="entity" data-qualified-name="model.Plant" data-source-line="38" id="ent0007"><rect fill="#FFFFFF" height="60" rx="4.6875" ry="4.6875" style="stroke:#0F172A;stroke-width:0.9375;" width="119.8315" x="627.9187" y="498.9349"/><rect fill="#E2E8F0" height="60" rx="4.6875" ry="4.6875" style="stroke:#E2E8F0;stroke-width:0.9375;" width="119.8315" x="627.9187" y="498.9349"/><rect fill="#E2E8F0" height="4.6875" style="stroke:#E2E8F0;stroke-width:0.9375;" width="119.8315" x="627.9187" y="554.2474"/><rect fill="none" height="60" rx="4.6875" ry="4.6875" style="stroke:#0F172A;stroke-width:0.9375;" width="119.8315" x="627.9187" y="498.9349"/><ellipse cx="656.0437" cy="528.9349" fill="#ADD1B2" rx="20.625" ry="20.625" style="stroke:#181818;stroke-width:1.875;"/><path d="M656.4832,541.4447 Q654.2273,541.4447 652.5574,540.5951 Q650.9168,539.7455 650.0086,538.222 Q649.1004,536.6693 649.1004,534.5599 L649.1004,524.4232 Q649.1004,522.3138 650.0086,520.7904 Q650.9168,519.2377 652.5574,518.3881 Q654.2273,517.5385 656.4832,517.5385 Q658.7098,517.5385 660.3504,518.3881 Q662.0203,519.2377 662.9578,520.7904 Q663.8953,522.3138 663.8953,524.4232 L659.8523,524.4232 Q659.8523,522.7826 658.9734,521.933 Q658.1238,521.0541 656.4832,521.0541 Q654.8719,521.0541 653.9637,521.933 Q653.0848,522.7826 653.0848,524.4232 L653.0848,534.5599 Q653.0848,536.1713 653.9637,537.0502 Q654.8719,537.9291 656.4832,537.9291 Q658.1238,537.9291 658.9734,537.0502 Q659.8523,536.1713 659.8523,534.5599 L663.8953,534.5599 Q663.8953,536.6693 662.9578,538.222 Q662.0203,539.7455 660.3504,540.5951 Q658.7098,541.4447 656.4832,541.4447 Z " fill="#000000"/><text fill="#000000" font-family="Helvetica" font-size="26.25" lengthAdjust="spacing" textLength="59.8315" x="682.2937" y="538.4647">Plant</text></g><!--class EntityType--><g class="entity" data-qualified-name="model.EntityType" data-source-line="40" id="ent0008"><rect fill="#FFFFFF" height="286.2946" rx="4.6875" ry="4.6875" style="stroke:#0F172A;stroke-width:0.9375;" width="200.4694" x="587.6062" y="147.6537"/><rect fill="#E2E8F0" height="60" rx="4.6875" ry="4.6875" style="stroke:#E2E8F0;stroke-width:0.9375;" width="200.4694" x="587.6062" y="147.6537"/><rect fill="#E2E8F0" height="4.6875" style="stroke:#E2E8F0;stroke-width:0.9375;" width="200.4694" x="587.6062" y="202.9662"/><rect fill="none" height="286.2946" rx="4.6875" ry="4.6875" style="stroke:#0F172A;stroke-width:0.9375;" width="200.4694" x="587.6062" y="147.6537"/><ellipse cx="623.1388" cy="177.6537" fill="#EB937F" rx="20.625" ry="20.625" style="stroke:#181818;stroke-width:1.875;"/><path d="M616.5763,189.8412 L616.5763,166.5795 L630.5216,166.5795 L630.5216,170.0658 L620.5021,170.0658 L620.5021,176.1302 L629.4083,176.1302 L629.4083,179.4994 L620.5021,179.4994 L620.5021,186.3256 L630.5216,186.3256 L630.5216,189.8412 L616.5763,189.8412 Z " fill="#000000"/><text fill="#000000" font-family="Helvetica" font-size="26.25" lengthAdjust="spacing" textLength="124.0082" x="651.0349" y="187.1834">EntityType</text><line style="stroke:#0F172A;stroke-width:0.9375;" x1="589.4812" x2="786.2006" y1="207.6537" y2="207.6537"/><text fill="#000000" font-family="Helvetica" font-size="26.25" lengthAdjust="spacing" textLength="75.8276" x="598.8562" y="239.7759">WOLF</text><text fill="#000000" font-family="Helvetica" font-size="26.25" lengthAdjust="spacing" textLength="94.8102" x="598.8562" y="269.9608">RABBIT</text><text fill="#000000" font-family="Helvetica" font-size="26.25" lengthAdjust="spacing" textLength="96.2585" x="598.8562" y="300.1458">MOUSE</text><text fill="#000000" font-family="Helvetica" font-size="26.25" lengthAdjust="spacing" textLength="72.9309" x="598.8562" y="330.3307">DEER</text><text fill="#000000" font-family="Helvetica" font-size="26.25" lengthAdjust="spacing" textLength="91.9006" x="598.8562" y="360.5156">GRASS</text><text fill="#000000" font-family="Helvetica" font-size="26.25" lengthAdjust="spacing" textLength="177.9694" x="598.8562" y="390.7006">BERRY_BUSH</text><text fill="#000000" font-family="Helvetica" font-size="26.25" lengthAdjust="spacing" textLength="70.0085" x="598.8562" y="420.8855">TREE</text></g><!--reverse link Entity to Animal--><g class="link" data-entity-1="ent0003" data-entity-2="ent0004" data-link-type="extension" data-source-line="51" id="lnk9"><path codeLine="51" d="M440.7676,618.6593 C494.7114,641.4031 521.2125,652.5724 569.7937,673.0662" fill="none" id="Entity-backto-Animal" style="stroke:#475569;stroke-width:1.875;"/><polygon fill="none" points="409.6688,605.5474,436.397,629.0256,445.1383,608.293,409.6688,605.5474" style="stroke:#475569;stroke-width:1.875;"/></g><!--reverse link Animal to Predator--><g class="link" data-entity-1="ent0004" data-entity-2="ent0005" data-link-type="extension" data-source-line="52" id="lnk10"><path codeLine="52" d="M838.8762,742.0098 C876.8074,747.091 884.625,748.1412 919.2,752.7537" fill="none" id="Animal-backto-Predator" style="stroke:#475569;stroke-width:1.875;"/><polygon fill="none" points="805.425,737.5287,837.3825,753.1602,840.3699,730.8594,805.425,737.5287" style="stroke:#475569;stroke-width:1.875;"/></g><!--reverse link Animal to Prey--><g class="link" data-entity-1="ent0004" data-entity-2="ent0006" data-link-type="extension" data-source-line="53" id="lnk11"><path codeLine="53" d="M837.9758,681.4933 C884.7946,668.6683 904.1438,663.3912 942.2625,652.9662" fill="none" id="Animal-backto-Prey" style="stroke:#475569;stroke-width:1.875;"/><polygon fill="none" points="805.425,690.4099,840.948,692.3436,835.0036,670.6431,805.425,690.4099" style="stroke:#475569;stroke-width:1.875;"/></g><!--reverse link Entity to Plant--><g class="link" data-entity-1="ent0003" data-entity-2="ent0007" data-link-type="extension" data-source-line="54" id="lnk12"><path codeLine="54" d="M443.4188,528.9349 C520.8375,528.9349 572.0437,528.9349 627.0375,528.9349" fill="none" id="Entity-backto-Plant" style="stroke:#475569;stroke-width:1.875;"/><polygon fill="none" points="409.6688,528.9349,443.4188,540.1849,443.4188,517.6849,409.6688,528.9349" style="stroke:#475569;stroke-width:1.875;"/></g><!--link Entity to EntityType--><g class="link" data-entity-1="ent0003" data-entity-2="ent0008" data-link-type="dependency" data-source-line="55" id="lnk13"><path codeLine="55" d="M409.6688,434.4724 C470.1,403.0474 525.163,374.4322 576.9317,347.5072" fill="none" id="Entity-to-EntityType" style="stroke:#475569;stroke-width:1.875;"/><polygon fill="#475569" points="586.9125,342.3162,568.4807,343.4489,578.5952,346.642,575.402,356.7566,586.9125,342.3162" style="stroke:#475569;stroke-width:1.875;"/><text fill="#000000" font-family="Helvetica" font-size="24.375" lengthAdjust="spacing" textLength="46.0721" x="467.3063" y="376.2797">type</text></g><?plantuml-src RLB1Rjim3BtxAuZsqc8Ba1RhsWN30ATrbWBhKjWfXfq6ngPjeR9aI4nJTzk_JrQyJadc4_duI3uzcWLBWXlTe51mfmkIaNqKgaM33QmmVwoCNglYMajjW0qgwqgaE63P6Wkz4Qg24gMbe5Aq0iwknY529QubpxJYhzWGp4a-4OiS0qviZDvi5nw_kxouUFyXA5vBj7QgJK5ce8ndPvVdyG5bJ_hnp7_xj3cXctH0JiwJgzbudnmp6x5QCztcMcNYXI2aj6u8LfHnvmmrb3EgIePkIA68kvQWrRBhaqXIoS0QZAXgXaBqNKAhg1O50JKjTz0Grxgm8LGAaWw9XeLmrFHdEuAV4G2kh3jIpf3tWY5HB5n7Nm5uymmJ4EvqFkd2X1IPQWUf2INN8UAbJuQHIvTiOM5ZAPxevDJLLbfBGhKjvAXIQeqkrlb_gkutsgX5MThMk3_dvFajTAUlqntbTtJucbY91kNVrzYMg0W5FWdhp4kTxHJ2oEoCkjSRCeVmBjiltUwwDrGWQnC2tRz4ecjmAQbr4rWoQFks-3BpGHfFfxTB7zuj7hB4HpT9alhWSnfdcO-cIPf-_p5zoEO-NQP9ukKuGSC9F_uQZGO3ei473xtgt0ExdSQjtW4PZJw5aYVGN_OF?></g></svg>