<?plantuml 1.2026.1?><svg xmlns="http://www.w3.org/2000/svg" xmlns:xlink="http://www.w3.org/1999/xlink" contentStyleType="text/css" data-diagram-type="CLASS" height="1983.75px" preserveAspectRatio="none" style="width:2941px;height:1983px;" version="1.1" viewBox="0 0 2941 1983" width="2941.875px" zoomAndPan="magnify"><defs/><g><!--class SimulationEngine--><g class="entity" data-qualified-name="SimulationEngine" data-source-line="14" id="ent0002"><rect fill="#F9FAFB" height="334.4531" rx="4.6875" ry="4.6875" style="stroke:#1F2937;stroke-width:0.9375;" width="532.5165" x="757.575" y="337.8375"/><rect fill="#E5E7EB" height="60" rx="4.6875" ry="4.6875" style="stroke:#E5E7EB;stroke-width:0.9375;" width="532.5165" x="757.575" y="337.8375"/><rect fill="#E5E7EB" height="4.6875" style="stroke:#E5E7EB;stroke-width:0.9375;" width="532.5165" x="757.575" y="393.15"/><rect fill="none" height="334.4531" rx="4.6875" ry="4.6875" style="stroke:#1F2937;stroke-width:0.9375;" width="532.5165" x="757.575" y="337.8375"/><ellipse cx="900.9695" cy="367.8375" fill="#ADD1B2" rx="20.625" ry="20.625" style="stroke:#181818;stroke-width:1.875;"/><path d="M906.5359,378.4137 Q905.4519,378.9703 904.2507,379.234 Q903.0495,379.527 901.7312,379.527 Q897.0437,379.527 894.5535,376.4508 Q892.0925,373.3453 892.0925,367.4859 Q892.0925,361.6266 894.5535,358.5211 Q897.0437,355.4156 901.7312,355.4156 Q903.0495,355.4156 904.2507,355.7086 Q905.4812,356.0016 906.5359,356.5582 L906.5359,361.6559 Q905.364,360.5719 904.2507,360.0738 Q903.1374,359.5465 901.9656,359.5465 Q899.446,359.5465 898.157,361.568 Q896.8679,363.5602 896.8679,367.4859 Q896.8679,371.4117 898.157,373.4332 Q899.446,375.4254 901.9656,375.4254 Q903.1374,375.4254 904.2507,374.9273 Q905.364,374.4 906.5359,373.316 L906.5359,378.4137 Z " fill="#000000"/><text fill="#000000" font-family="Helvetica" font-size="26.25" lengthAdjust="spacing" textLength="229.79" x="939.407" y="376.925">SimulationEngine</text><line style="stroke:#1F2937;stroke-width:0.9375;" x1="759.45" x2="1288.2165" y1="397.8375" y2="397.8375"/><line style="stroke:#1F2937;stroke-width:0.9375;" x1="759.45" x2="1288.2165" y1="412.8375" y2="412.8375"/><text fill="#000000" font-family="Helvetica" font-size="26.25" lengthAdjust="spacing" textLength="228.6493" x="768.825" y="444.7033">+initializeWorld()</text><text fill="#000000" font-family="Helvetica" font-size="26.25" lengthAdjust="spacing" textLength="103.6157" x="768.825" y="475.26">+start()</text><text fill="#000000" font-family="Helvetica" font-size="26.25" lengthAdjust="spacing" textLength="121.6882" x="768.825" y="505.8166">+pause()</text><text fill="#000000" font-family="Helvetica" font-size="26.25" lengthAdjust="spacing" textLength="157.5769" x="768.825" y="536.3733">+tickOnce()</text><text fill="#000000" font-family="Helvetica" font-size="26.25" lengthAdjust="spacing" textLength="282.2516" x="768.825" y="566.9299">+reset(width, height)</text><text fill="#000000" font-family="Helvetica" font-size="26.25" lengthAdjust="spacing" textLength="417.5391" x="768.825" y="597.4865">+triggerDisaster(x, y) : boolean</text><text fill="#000000" font-family="Helvetica" font-size="26.25" lengthAdjust="spacing" textLength="510.0165" x="768.825" y="628.0432">+triggerPredatorFrenzy(x, y) : boolean</text><text fill="#000000" font-family="Helvetica" font-size="26.25" lengthAdjust="spacing" textLength="433.3044" x="768.825" y="658.5998">+getSnapshot() : WorldSnapshot</text></g><!--class TickLogic--><g class="entity" data-qualified-name="TickLogic" data-source-line="25" id="ent0003"><rect fill="#F9FAFB" height="120.5566" rx="4.6875" ry="4.6875" style="stroke:#1F2937;stroke-width:0.9375;" width="480.1575" x="13.125" y="845.9063"/><rect fill="#E5E7EB" height="60" rx="4.6875" ry="4.6875" style="stroke:#E5E7EB;stroke-width:0.9375;" width="480.1575" x="13.125" y="845.9063"/><rect fill="#E5E7EB" height="4.6875" style="stroke:#E5E7EB;stroke-width:0.9375;" width="480.1575" x="13.125" y="901.2188"/><rect fill="none" height="120.5566" rx="4.6875" ry="4.6875" style="stroke:#1F2937;stroke-width:0.9375;" width="480.1575" x="13.125" y="845.9063"/><ellipse cx="184.2178" cy="875.9063" fill="#ADD1B2" rx="20.625" ry="20.625" style="stroke:#181818;stroke-width:1.875;"/><path d="M189.7842,886.4824 Q188.7003,887.0391 187.4991,887.3027 Q186.2979,887.5957 184.9796,887.5957 Q180.2921,887.5957 177.8018,884.5195 Q175.3409,881.4141 175.3409,875.5547 Q175.3409,869.6953 177.8018,866.5898 Q180.2921,863.4844 184.9796,863.4844 Q186.2979,863.4844 187.4991,863.7773 Q188.7296,864.0703 189.7842,864.627 L189.7842,869.7246 Q188.6124,868.6406 187.4991,868.1426 Q186.3858,867.6152 185.2139,867.6152 Q182.6944,867.6152 181.4053,869.6367 Q180.1163,871.6289 180.1163,875.5547 Q180.1163,879.4805 181.4053,881.502 Q182.6944,883.4941 185.2139,883.4941 Q186.3858,883.4941 187.4991,882.9961 Q188.6124,882.4688 189.7842,881.3848 L189.7842,886.4824 Z " fill="#000000"/><text fill="#000000" font-family="Helvetica" font-size="26.25" lengthAdjust="spacing" textLength="122.0343" x="222.6553" y="884.9938">TickLogic</text><line style="stroke:#1F2937;stroke-width:0.9375;" x1="15" x2="491.4075" y1="905.9063" y2="905.9063"/><line style="stroke:#1F2937;stroke-width:0.9375;" x1="15" x2="491.4075" y1="920.9063" y2="920.9063"/><text fill="#000000" font-family="Helvetica" font-size="26.25" lengthAdjust="spacing" textLength="457.6575" x="24.375" y="952.7721">+advance(grid, activeEventZones)</text></g><!--class WorldGenerator--><g class="entity" data-qualified-name="WorldGenerator" data-source-line="29" id="ent0004"><rect fill="#F9FAFB" height="120.5566" rx="4.6875" ry="4.6875" style="stroke:#1F2937;stroke-width:0.9375;" width="416.0065" x="558.9563" y="845.9063"/><rect fill="#E5E7EB" height="60" rx="4.6875" ry="4.6875" style="stroke:#E5E7EB;stroke-width:0.9375;" width="416.0065" x="558.9563" y="845.9063"/><rect fill="#E5E7EB" height="4.6875" style="stroke:#E5E7EB;stroke-width:0.9375;" width="416.0065" x="558.9563" y="901.2188"/><rect fill="none" height="120.5566" rx="4.6875" ry="4.6875" style="stroke:#1F2937;stroke-width:0.9375;" width="416.0065" x="558.9563" y="845.9063"/><ellipse cx="653.9587" cy="875.9063" fill="#ADD1B2" rx="20.625" ry="20.625" style="stroke:#181818;stroke-width:1.875;"/><path d="M659.5251,886.4824 Q658.4411,887.0391 657.2399,887.3027 Q656.0388,887.5957 654.7204,887.5957 Q650.0329,887.5957 647.5427,884.5195 Q645.0817,881.4141 645.0817,875.5547 Q645.0817,869.6953 647.5427,866.5898 Q650.0329,863.4844 654.7204,863.4844 Q656.0388,863.4844 657.2399,863.7773 Q658.4704,864.0703 659.5251,864.627 L659.5251,869.7246 Q658.3532,868.6406 657.2399,868.1426 Q656.1267,867.6152 654.9548,867.6152 Q652.4353,867.6152 651.1462,869.6367 Q649.8571,871.6289 649.8571,875.5547 Q649.8571,879.4805 651.1462,881.502 Q652.4353,883.4941 654.9548,883.4941 Q656.1267,883.4941 657.2399,882.9961 Q658.3532,882.4688 659.5251,881.3848 L659.5251,886.4824 Z " fill="#000000"/><text fill="#000000" font-family="Helvetica" font-size="26.25" lengthAdjust="spacing" textLength="210.0641" x="692.3962" y="884.9938">WorldGenerator</text><line style="stroke:#1F2937;stroke-width:0.9375;" x1="560.8313" x2="973.0877" y1="905.9063" y2="905.9063"/><line style="stroke:#1F2937;stroke-width:0.9375;" x1="560.8313" x2="973.0877" y1="920.9063" y2="920.9063"/><text fill="#000000" font-family="Helvetica" font-size="26.25" lengthAdjust="spacing" textLength="393.5065" x="570.2063" y="952.7721">+seedWorld(grid, random, ...)</text></g><!--class Grid--><g class="entity" data-qualified-name="Grid" data-source-line="33" id="ent0005"><rect fill="#F9FAFB" height="242.7832" rx="4.6875" ry="4.6875" style="stroke:#1F2937;stroke-width:0.9375;" width="482.3749" x="1041.3938" y="784.8"/><rect fill="#E5E7EB" height="60" rx="4.6875" ry="4.6875" style="stroke:#E5E7EB;stroke-width:0.9375;" width="482.3749" x="1041.3938" y="784.8"/><rect fill="#E5E7EB" height="4.6875" style="stroke:#E5E7EB;stroke-width:0.9375;" width="482.3749" x="1041.3938" y="840.1125"/><rect fill="none" height="242.7832" rx="4.6875" ry="4.6875" style="stroke:#1F2937;stroke-width:0.9375;" width="482.3749" x="1041.3938" y="784.8"/><ellipse cx="1247.0679" cy="814.8" fill="#ADD1B2" rx="20.625" ry="20.625" style="stroke:#181818;stroke-width:1.875;"/><path d="M1252.6343,825.3762 Q1251.5503,825.9328 1250.3491,826.1965 Q1249.148,826.4895 1247.8296,826.4895 Q1243.1421,826.4895 1240.6519,823.4133 Q1238.1909,820.3078 1238.1909,814.4484 Q1238.1909,808.5891 1240.6519,805.4836 Q1243.1421,802.3781 1247.8296,802.3781 Q1249.148,802.3781 1250.3491,802.6711 Q1251.5796,802.9641 1252.6343,803.5207 L1252.6343,808.6184 Q1251.4624,807.5344 1250.3491,807.0363 Q1249.2359,806.509 1248.064,806.509 Q1245.5444,806.509 1244.2554,808.5305 Q1242.9663,810.5227 1242.9663,814.4484 Q1242.9663,818.3742 1244.2554,820.3957 Q1245.5444,822.3879 1248.064,822.3879 Q1249.2359,822.3879 1250.3491,821.8898 Q1251.4624,821.3625 1252.6343,820.2785 L1252.6343,825.3762 Z " fill="#000000"/><text fill="#000000" font-family="Helvetica" font-size="26.25" lengthAdjust="spacing" textLength="55.0891" x="1285.5054" y="823.8875">Grid</text><line style="stroke:#1F2937;stroke-width:0.9375;" x1="1043.2688" x2="1521.8936" y1="844.8" y2="844.8"/><line style="stroke:#1F2937;stroke-width:0.9375;" x1="1043.2688" x2="1521.8936" y1="859.8" y2="859.8"/><text fill="#000000" font-family="Helvetica" font-size="26.25" lengthAdjust="spacing" textLength="252.4127" x="1052.6438" y="891.6658">+getTile(x, y) : Tile</text><text fill="#000000" font-family="Helvetica" font-size="26.25" lengthAdjust="spacing" textLength="410.6177" x="1052.6438" y="922.2225">+placeAnimal(entity) : boolean</text><text fill="#000000" font-family="Helvetica" font-size="26.25" lengthAdjust="spacing" textLength="427.5751" x="1052.6438" y="952.7791">+placeBerryBush(x, y) : boolean</text><text fill="#000000" font-family="Helvetica" font-size="26.25" lengthAdjust="spacing" textLength="459.8749" x="1052.6438" y="983.3358">+placeTree(x, y, variant) : boolean</text><text fill="#000000" font-family="Helvetica" font-size="26.25" lengthAdjust="spacing" textLength="309.7705" x="1052.6438" y="1013.8924">+removeAnimal(entity)</text></g><!--class Tile--><g class="entity" data-qualified-name="Tile" data-source-line="41" id="ent0006"><rect fill="#F9FAFB" height="212.2266" rx="4.6875" ry="4.6875" style="stroke:#1F2937;stroke-width:0.9375;" width="380.6177" x="931.0125" y="1140.075"/><rect fill="#E5E7EB" height="60" rx="4.6875" ry="4.6875" style="stroke:#E5E7EB;stroke-width:0.9375;" width="380.6177" x="931.0125" y="1140.075"/><rect fill="#E5E7EB" height="4.6875" style="stroke:#E5E7EB;stroke-width:0.9375;" width="380.6177" x="931.0125" y="1195.3875"/><rect fill="none" height="212.2266" rx="4.6875" ry="4.6875" style="stroke:#1F2937;stroke-width:0.9375;" width="380.6177" x="931.0125" y="1140.075"/><ellipse cx="1089.9673" cy="1170.075" fill="#ADD1B2" rx="20.625" ry="20.625" style="stroke:#181818;stroke-width:1.875;"/><path d="M1095.5337,1180.6512 Q1094.4497,1181.2078 1093.2485,1181.4715 Q1092.0474,1181.7645 1090.729,1181.7645 Q1086.0415,1181.7645 1083.5513,1178.6883 Q1081.0903,1175.5828 1081.0903,1169.7234 Q1081.0903,1163.8641 1083.5513,1160.7586 Q1086.0415,1157.6531 1090.729,1157.6531 Q1092.0474,1157.6531 1093.2485,1157.9461 Q1094.479,1158.2391 1095.5337,1158.7957 L1095.5337,1163.8934 Q1094.3618,1162.8094 1093.2485,1162.3113 Q1092.1352,1161.784 1090.9634,1161.784 Q1088.4438,1161.784 1087.1548,1163.8055 Q1085.8657,1165.7977 1085.8657,1169.7234 Q1085.8657,1173.6492 1087.1548,1175.6707 Q1088.4438,1177.6629 1090.9634,1177.6629 Q1092.1352,1177.6629 1093.2485,1177.1648 Q1094.3618,1176.6375 1095.5337,1175.5535 L1095.5337,1180.6512 Z " fill="#000000"/><text fill="#000000" font-family="Helvetica" font-size="26.25" lengthAdjust="spacing" textLength="46.7706" x="1128.4048" y="1179.1625">Tile</text><line style="stroke:#1F2937;stroke-width:0.9375;" x1="932.8875" x2="1309.7552" y1="1200.075" y2="1200.075"/><text fill="#000000" font-family="Helvetica" font-size="26.25" lengthAdjust="spacing" textLength="358.1177" x="942.2625" y="1231.9408">+terrainType : TerrainType</text><text fill="#000000" font-family="Helvetica" font-size="26.25" lengthAdjust="spacing" textLength="255.7965" x="942.2625" y="1262.4975">+grassAmount : int</text><text fill="#000000" font-family="Helvetica" font-size="26.25" lengthAdjust="spacing" textLength="319.6014" x="942.2625" y="1293.0541">+plantState : PlantState</text><text fill="#000000" font-family="Helvetica" font-size="26.25" lengthAdjust="spacing" textLength="213.1274" x="942.2625" y="1323.6108">+animal : Entity</text><line style="stroke:#1F2937;stroke-width:0.9375;" x1="932.8875" x2="1309.7552" y1="1337.3016" y2="1337.3016"/></g><!--class PlantState--><g class="entity" data-qualified-name="PlantState" data-source-line="48" id="ent0007"><rect fill="#F9FAFB" height="303.8965" rx="4.6875" ry="4.6875" style="stroke:#1F2937;stroke-width:0.9375;" width="487.8479" x="877.4063" y="1464.8063"/><rect fill="#E5E7EB" height="60" rx="4.6875" ry="4.6875" style="stroke:#E5E7EB;stroke-width:0.9375;" width="487.8479" x="877.4063" y="1464.8063"/><rect fill="#E5E7EB" height="4.6875" style="stroke:#E5E7EB;stroke-width:0.9375;" width="487.8479" x="877.4063" y="1520.1188"/><rect fill="none" height="303.8965" rx="4.6875" ry="4.6875" style="stroke:#1F2937;stroke-width:0.9375;" width="487.8479" x="877.4063" y="1464.8063"/><ellipse cx="1045.5511" cy="1494.8063" fill="#ADD1B2" rx="20.625" ry="20.625" style="stroke:#181818;stroke-width:1.875;"/><path d="M1051.1175,1505.3824 Q1050.0335,1505.9391 1048.8323,1506.2027 Q1047.6312,1506.4957 1046.3128,1506.4957 Q1041.6253,1506.4957 1039.1351,1503.4195 Q1036.6741,1500.3141 1036.6741,1494.4547 Q1036.6741,1488.5953 1039.1351,1485.4898 Q1041.6253,1482.3844 1046.3128,1482.3844 Q1047.6312,1482.3844 1048.8323,1482.6773 Q1050.0628,1482.9703 1051.1175,1483.527 L1051.1175,1488.6246 Q1049.9456,1487.5406 1048.8323,1487.0426 Q1047.7191,1486.5152 1046.5472,1486.5152 Q1044.0276,1486.5152 1042.7386,1488.5367 Q1041.4495,1490.5289 1041.4495,1494.4547 Q1041.4495,1498.3805 1042.7386,1500.402 Q1044.0276,1502.3941 1046.5472,1502.3941 Q1047.7191,1502.3941 1048.8323,1501.8961 Q1049.9456,1501.3688 1051.1175,1500.2848 L1051.1175,1505.3824 Z " fill="#000000"/><text fill="#000000" font-family="Helvetica" font-size="26.25" lengthAdjust="spacing" textLength="135.6207" x="1083.9886" y="1503.8938">PlantState</text><line style="stroke:#1F2937;stroke-width:0.9375;" x1="879.2813" x2="1363.3792" y1="1524.8063" y2="1524.8063"/><text fill="#000000" font-family="Helvetica" font-size="26.25" lengthAdjust="spacing" textLength="309.3988" x="888.6563" y="1556.6721">+plantType : PlantType</text><text fill="#000000" font-family="Helvetica" font-size="26.25" lengthAdjust="spacing" textLength="206.2958" x="888.6563" y="1587.2287">+durability : int</text><text fill="#000000" font-family="Helvetica" font-size="26.25" lengthAdjust="spacing" textLength="254.8352" x="888.6563" y="1617.7854">+berryAmount : int</text><text fill="#000000" font-family="Helvetica" font-size="26.25" lengthAdjust="spacing" textLength="350.3247" x="888.6563" y="1648.342">+treeVariant : TreeVariant</text><text fill="#000000" font-family="Helvetica" font-size="26.25" lengthAdjust="spacing" textLength="406.3623" x="888.6563" y="1678.8987">+treeLifeStage : TreeLifeStage</text><line style="stroke:#1F2937;stroke-width:0.9375;" x1="879.2813" x2="1363.3792" y1="1692.5895" y2="1692.5895"/><text fill="#000000" font-family="Helvetica" font-size="26.25" lengthAdjust="spacing" textLength="207.0264" x="888.6563" y="1724.4553">+advanceTick()</text><text fill="#000000" font-family="Helvetica" font-size="26.25" lengthAdjust="spacing" textLength="465.3479" x="888.6563" y="1755.0119">+supportsResource(kind) : boolean</text></g><!--class WorldSnapshot--><g class="entity" data-qualified-name="WorldSnapshot" data-source-line="58" id="ent0008"><rect fill="#F9FAFB" height="105.498" rx="4.6875" ry="4.6875" style="stroke:#1F2937;stroke-width:0.9375;" width="259.4769" x="2270.3438" y="853.4437"/><rect fill="#E5E7EB" height="75.498" rx="4.6875" ry="4.6875" style="stroke:#E5E7EB;stroke-width:0.9375;" width="259.4769" x="2270.3438" y="853.4437"/><rect fill="#E5E7EB" height="4.6875" style="stroke:#E5E7EB;stroke-width:0.9375;" width="259.4769" x="2270.3438" y="924.2543"/><rect fill="none" height="105.498" rx="4.6875" ry="4.6875" style="stroke:#1F2937;stroke-width:0.9375;" width="259.4769" x="2270.3438" y="853.4437"/><ellipse cx="2298.4688" cy="891.1928" fill="#ADD1B2" rx="20.625" ry="20.625" style="stroke:#181818;stroke-width:1.875;"/><path d="M2304.0352,901.7689 Q2302.9512,902.3256 2301.75,902.5893 Q2300.5488,902.8822 2299.2305,902.8822 Q2294.543,902.8822 2292.0527,899.8061 Q2289.5918,896.7006 2289.5918,890.8412 Q2289.5918,884.9818 2292.0527,881.8764 Q2294.543,878.7709 2299.2305,878.7709 Q2300.5488,878.7709 2301.75,879.0639 Q2302.9805,879.3568 2304.0352,879.9135 L2304.0352,885.0111 Q2302.8633,883.9271 2301.75,883.4291 Q2300.6367,882.9018 2299.4648,882.9018 Q2296.9453,882.9018 2295.6563,884.9232 Q2294.3672,886.9154 2294.3672,890.8412 Q2294.3672,894.767 2295.6563,896.7885 Q2296.9453,898.7807 2299.4648,898.7807 Q2300.6367,898.7807 2301.75,898.2826 Q2302.8633,897.7553 2304.0352,896.6713 L2304.0352,901.7689 Z " fill="#000000"/><text fill="#000000" font-family="Helvetica" font-size="22.5" font-style="italic" lengthAdjust="spacing" textLength="100.2942" x="2374.3101" y="883.7038">&#171;record&#187;</text><text fill="#000000" font-family="Helvetica" font-size="26.25" lengthAdjust="spacing" textLength="199.4769" x="2324.7188" y="913.376">WorldSnapshot</text><line style="stroke:#1F2937;stroke-width:0.9375;" x1="2272.2188" x2="2527.9457" y1="928.9418" y2="928.9418"/><line style="stroke:#1F2937;stroke-width:0.9375;" x1="2272.2188" x2="2527.9457" y1="943.9418" y2="943.9418"/></g><!--class ActiveEventZone--><g class="entity" data-qualified-name="ActiveEventZone" data-source-line="59" id="ent0009"><rect fill="#F9FAFB" height="105.498" rx="4.6875" ry="4.6875" style="stroke:#1F2937;stroke-width:0.9375;" width="283.689" x="1588.8563" y="853.4437"/><rect fill="#E5E7EB" height="75.498" rx="4.6875" ry="4.6875" style="stroke:#E5E7EB;stroke-width:0.9375;" width="283.689" x="1588.8563" y="853.4437"/><rect fill="#E5E7EB" height="4.6875" style="stroke:#E5E7EB;stroke-width:0.9375;" width="283.689" x="1588.8563" y="924.2543"/><rect fill="none" height="105.498" rx="4.6875" ry="4.6875" style="stroke:#1F2937;stroke-width:0.9375;" width="283.689" x="1588.8563" y="853.4437"/><ellipse cx="1616.9813" cy="891.1928" fill="#ADD1B2" rx="20.625" ry="20.625" style="stroke:#181818;stroke-width:1.875;"/><path d="M1622.5477,901.7689 Q1621.4637,902.3256 1620.2625,902.5893 Q1619.0613,902.8822 1617.743,902.8822 Q1613.0555,902.8822 1610.5652,899.8061 Q1608.1043,896.7006 1608.1043,890.8412 Q1608.1043,884.9818 1610.5652,881.8764 Q1613.0555,878.7709 1617.743,878.7709 Q1619.0613,878.7709 1620.2625,879.0639 Q1621.493,879.3568 1622.5477,879.9135 L1622.5477,885.0111 Q1621.3758,883.9271 1620.2625,883.4291 Q1619.1492,882.9018 1617.9773,882.9018 Q1615.4578,882.9018 1614.1688,884.9232 Q1612.8797,886.9154 1612.8797,890.8412 Q1612.8797,894.767 1614.1688,896.7885 Q1615.4578,898.7807 1617.9773,898.7807 Q1619.1492,898.7807 1620.2625,898.2826 Q1621.3758,897.7553 1622.5477,896.6713 L1622.5477,901.7689 Z " fill="#000000"/><text fill="#000000" font-family="Helvetica" font-size="22.5" font-style="italic" lengthAdjust="spacing" textLength="100.2942" x="1704.9286" y="883.7038">&#171;record&#187;</text><text fill="#000000" font-family="Helvetica" font-size="26.25" lengthAdjust="spacing" textLength="223.689" x="1643.2313" y="913.376">ActiveEventZone</text><line style="stroke:#1F2937;stroke-width:0.9375;" x1="1590.7313" x2="1870.6702" y1="928.9418" y2="928.9418"/><line style="stroke:#1F2937;stroke-width:0.9375;" x1="1590.7313" x2="1870.6702" y1="943.9418" y2="943.9418"/></g><!--class SimulationStorage--><g class="entity" data-qualified-name="SimulationStorage" data-source-line="60" id="ent0010"><rect fill="#F9FAFB" height="212.2266" rx="4.6875" ry="4.6875" style="stroke:#1F2937;stroke-width:0.9375;" width="370.0433" x="1916.925" y="13.125"/><rect fill="#E5E7EB" height="60" rx="4.6875" ry="4.6875" style="stroke:#E5E7EB;stroke-width:0.9375;" width="370.0433" x="1916.925" y="13.125"/><rect fill="#E5E7EB" height="4.6875" style="stroke:#E5E7EB;stroke-width:0.9375;" width="370.0433" x="1916.925" y="68.4375"/><rect fill="none" height="212.2266" rx="4.6875" ry="4.6875" style="stroke:#1F2937;stroke-width:0.9375;" width="370.0433" x="1916.925" y="13.125"/><ellipse cx="1975.4308" cy="43.125" fill="#ADD1B2" rx="20.625" ry="20.625" style="stroke:#181818;stroke-width:1.875;"/><path d="M1980.9972,53.7012 Q1979.9132,54.2578 1978.712,54.5215 Q1977.5108,54.8145 1976.1925,54.8145 Q1971.505,54.8145 1969.0148,51.7383 Q1966.5538,48.6328 1966.5538,42.7734 Q1966.5538,36.9141 1969.0148,33.8086 Q1971.505,30.7031 1976.1925,30.7031 Q1977.5108,30.7031 1978.712,30.9961 Q1979.9425,31.2891 1980.9972,31.8457 L1980.9972,36.9434 Q1979.8253,35.8594 1978.712,35.3613 Q1977.5987,34.834 1976.4269,34.834 Q1973.9073,34.834 1972.6183,36.8555 Q1971.3292,38.8477 1971.3292,42.7734 Q1971.3292,46.6992 1972.6183,48.7207 Q1973.9073,50.7129 1976.4269,50.7129 Q1977.5987,50.7129 1978.712,50.2148 Q1979.8253,49.6875 1980.9972,48.6035 L1980.9972,53.7012 Z " fill="#000000"/><text fill="#000000" font-family="Helvetica" font-size="26.25" lengthAdjust="spacing" textLength="242.5305" x="2008.432" y="52.2125">SimulationStorage</text><line style="stroke:#1F2937;stroke-width:0.9375;" x1="1918.8" x2="2285.0933" y1="73.125" y2="73.125"/><line style="stroke:#1F2937;stroke-width:0.9375;" x1="1918.8" x2="2285.0933" y1="88.125" y2="88.125"/><text fill="#000000" font-family="Helvetica" font-size="26.25" lengthAdjust="spacing" textLength="343.7366" x="1928.175" y="119.9908">+save(name, state) : long</text><text fill="#000000" font-family="Helvetica" font-size="26.25" lengthAdjust="spacing" textLength="347.5433" x="1928.175" y="150.5475">+load(id) : WorldSnapshot</text><text fill="#000000" font-family="Helvetica" font-size="26.25" lengthAdjust="spacing" textLength="230.5591" x="1928.175" y="181.1041">+listSaves() : List</text><text fill="#000000" font-family="Helvetica" font-size="26.25" lengthAdjust="spacing" textLength="186.6211" x="1928.175" y="211.6608">+delete(save)</text></g><!--class SimulationDatabase--><g class="entity" data-qualified-name="SimulationDatabase" data-source-line="66" id="ent0011"><rect fill="#F9FAFB" height="105.498" rx="4.6875" ry="4.6875" style="stroke:#1F2937;stroke-width:0.9375;" width="325.0763" x="1356.2813" y="452.325"/><rect fill="#E5E7EB" height="75.498" rx="4.6875" ry="4.6875" style="stroke:#E5E7EB;stroke-width:0.9375;" width="325.0763" x="1356.2813" y="452.325"/><rect fill="#E5E7EB" height="4.6875" style="stroke:#E5E7EB;stroke-width:0.9375;" width="325.0763" x="1356.2813" y="523.1355"/><rect fill="none" height="105.498" rx="4.6875" ry="4.6875" style="stroke:#1F2937;stroke-width:0.9375;" width="325.0763" x="1356.2813" y="452.325"/><ellipse cx="1384.4063" cy="490.074" fill="#ADD1B2" rx="20.625" ry="20.625" style="stroke:#181818;stroke-width:1.875;"/><path d="M1389.9727,500.6502 Q1388.8887,501.2068 1387.6875,501.4705 Q1386.4863,501.7635 1385.168,501.7635 Q1380.4805,501.7635 1377.9902,498.6873 Q1375.5293,495.5818 1375.5293,489.7225 Q1375.5293,483.8631 1377.9902,480.7576 Q1380.4805,477.6521 1385.168,477.6521 Q1386.4863,477.6521 1387.6875,477.9451 Q1388.918,478.2381 1389.9727,478.7947 L1389.9727,483.8924 Q1388.8008,482.8084 1387.6875,482.3104 Q1386.5742,481.783 1385.4023,481.783 Q1382.8828,481.783 1381.5938,483.8045 Q1380.3047,485.7967 1380.3047,489.7225 Q1380.3047,493.6482 1381.5938,495.6697 Q1382.8828,497.6619 1385.4023,497.6619 Q1386.5742,497.6619 1387.6875,497.1639 Q1388.8008,496.6365 1389.9727,495.5525 L1389.9727,500.6502 Z " fill="#000000"/><text fill="#000000" font-family="Helvetica" font-size="22.5" font-style="italic" lengthAdjust="spacing" textLength="199.9731" x="1443.2078" y="482.585">&#171;RoomDatabase&#187;</text><text fill="#000000" font-family="Helvetica" font-size="26.25" lengthAdjust="spacing" textLength="265.0763" x="1410.6563" y="512.2573">SimulationDatabase</text><line style="stroke:#1F2937;stroke-width:0.9375;" x1="1358.1563" x2="1679.4825" y1="527.823" y2="527.823"/><line style="stroke:#1F2937;stroke-width:0.9375;" x1="1358.1563" x2="1679.4825" y1="542.823" y2="542.823"/></g><!--class SimulationSaveDao--><g class="entity" data-qualified-name="SimulationSaveDao" data-source-line="67" id="ent0012"><rect fill="#F9FAFB" height="105.498" rx="4.6875" ry="4.6875" style="stroke:#1F2937;stroke-width:0.9375;" width="316.6168" x="1746.7688" y="452.325"/><rect fill="#E5E7EB" height="75.498" rx="4.6875" ry="4.6875" style="stroke:#E5E7EB;stroke-width:0.9375;" width="316.6168" x="1746.7688" y="452.325"/><rect fill="#E5E7EB" height="4.6875" style="stroke:#E5E7EB;stroke-width:0.9375;" width="316.6168" x="1746.7688" y="523.1355"/><rect fill="none" height="105.498" rx="4.6875" ry="4.6875" style="stroke:#1F2937;stroke-width:0.9375;" width="316.6168" x="1746.7688" y="452.325"/><ellipse cx="1774.8938" cy="490.074" fill="#ADD1B2" rx="20.625" ry="20.625" style="stroke:#181818;stroke-width:1.875;"/><path d="M1780.4602,500.6502 Q1779.3762,501.2068 1778.175,501.4705 Q1776.9738,501.7635 1775.6555,501.7635 Q1770.968,501.7635 1768.4777,498.6873 Q1766.0168,495.5818 1766.0168,489.7225 Q1766.0168,483.8631 1768.4777,480.7576 Q1770.968,477.6521 1775.6555,477.6521 Q1776.9738,477.6521 1778.175,477.9451 Q1779.4055,478.2381 1780.4602,478.7947 L1780.4602,483.8924 Q1779.2883,482.8084 1778.175,482.3104 Q1777.0617,481.783 1775.8898,481.783 Q1773.3703,481.783 1772.0813,483.8045 Q1770.7922,485.7967 1770.7922,489.7225 Q1770.7922,493.6482 1772.0813,495.6697 Q1773.3703,497.6619 1775.8898,497.6619 Q1777.0617,497.6619 1778.175,497.1639 Q1779.2883,496.6365 1780.4602,495.5525 L1780.4602,500.6502 Z " fill="#000000"/><text fill="#000000" font-family="Helvetica" font-size="22.5" font-style="italic" lengthAdjust="spacing" textLength="77.959" x="1890.4727" y="482.585">&#171;DAO&#187;</text><text fill="#000000" font-family="Helvetica" font-size="26.25" lengthAdjust="spacing" textLength="256.6168" x="1801.1438" y="512.2573">SimulationSaveDao</text><line style="stroke:#1F2937;stroke-width:0.9375;" x1="1748.6438" x2="2061.5106" y1="527.823" y2="527.823"/><line style="stroke:#1F2937;stroke-width:0.9375;" x1="1748.6438" x2="2061.5106" y1="542.823" y2="542.823"/></g><!--class SimulationSaveEntity--><g class="entity" data-qualified-name="SimulationSaveEntity" data-source-line="68" id="ent0013"><rect fill="#F9FAFB" height="105.498" rx="4.6875" ry="4.6875" style="stroke:#1F2937;stroke-width:0.9375;" width="340.8929" x="2128.3875" y="452.325"/><rect fill="#E5E7EB" height="75.498" rx="4.6875" ry="4.6875" style="stroke:#E5E7EB;stroke-width:0.9375;" width="340.8929" x="2128.3875" y="452.325"/><rect fill="#E5E7EB" height="4.6875" style="stroke:#E5E7EB;stroke-width:0.9375;" width="340.8929" x="2128.3875" y="523.1355"/><rect fill="none" height="105.498" rx="4.6875" ry="4.6875" style="stroke:#1F2937;stroke-width:0.9375;" width="340.8929" x="2128.3875" y="452.325"/><ellipse cx="2156.5125" cy="490.074" fill="#ADD1B2" rx="20.625" ry="20.625" style="stroke:#181818;stroke-width:1.875;"/><path d="M2162.0789,500.6502 Q2160.9949,501.2068 2159.7938,501.4705 Q2158.5926,501.7635 2157.2742,501.7635 Q2152.5867,501.7635 2150.0965,498.6873 Q2147.6355,495.5818 2147.6355,489.7225 Q2147.6355,483.8631 2150.0965,480.7576 Q2152.5867,477.6521 2157.2742,477.6521 Q2158.5926,477.6521 2159.7938,477.9451 Q2161.0242,478.2381 2162.0789,478.7947 L2162.0789,483.8924 Q2160.907,482.8084 2159.7938,482.3104 Q2158.6805,481.783 2157.5086,481.783 Q2154.9891,481.783 2153.7,483.8045 Q2152.4109,485.7967 2152.4109,489.7225 Q2152.4109,493.6482 2153.7,495.6697 Q2154.9891,497.6619 2157.5086,497.6619 Q2158.6805,497.6619 2159.7938,497.1639 Q2160.907,496.6365 2162.0789,495.5525 L2162.0789,500.6502 Z " fill="#000000"/><text fill="#000000" font-family="Helvetica" font-size="22.5" font-style="italic" lengthAdjust="spacing" textLength="165.4541" x="2240.4819" y="482.585">&#171;Room Entity&#187;</text><text fill="#000000" font-family="Helvetica" font-size="26.25" lengthAdjust="spacing" textLength="280.8929" x="2182.7625" y="512.2573">SimulationSaveEntity</text><line style="stroke:#1F2937;stroke-width:0.9375;" x1="2130.2625" x2="2467.4054" y1="527.823" y2="527.823"/><line style="stroke:#1F2937;stroke-width:0.9375;" x1="2130.2625" x2="2467.4054" y1="542.823" y2="542.823"/></g><!--class WorldSnapshotJsonCodec--><g class="entity" data-qualified-name="WorldSnapshotJsonCodec" data-source-line="69" id="ent0014"><rect fill="#F9FAFB" height="90" rx="4.6875" ry="4.6875" style="stroke:#1F2937;stroke-width:0.9375;" width="395.2258" x="2534.3438" y="460.0687"/><rect fill="#E5E7EB" height="60" rx="4.6875" ry="4.6875" style="stroke:#E5E7EB;stroke-width:0.9375;" width="395.2258" x="2534.3438" y="460.0687"/><rect fill="#E5E7EB" height="4.6875" style="stroke:#E5E7EB;stroke-width:0.9375;" width="395.2258" x="2534.3438" y="515.3812"/><rect fill="none" height="90" rx="4.6875" ry="4.6875" style="stroke:#1F2937;stroke-width:0.9375;" width="395.2258" x="2534.3438" y="460.0687"/><ellipse cx="2562.4688" cy="490.0687" fill="#ADD1B2" rx="20.625" ry="20.625" style="stroke:#181818;stroke-width:1.875;"/><path d="M2568.0352,500.6449 Q2566.9512,501.2016 2565.75,501.4652 Q2564.5488,501.7582 2563.2305,501.7582 Q2558.543,501.7582 2556.0527,498.682 Q2553.5918,495.5766 2553.5918,489.7172 Q2553.5918,483.8578 2556.0527,480.7523 Q2558.543,477.6469 2563.2305,477.6469 Q2564.5488,477.6469 2565.75,477.9398 Q2566.9805,478.2328 2568.0352,478.7895 L2568.0352,483.8871 Q2566.8633,482.8031 2565.75,482.3051 Q2564.6367,481.7777 2563.4648,481.7777 Q2560.9453,481.7777 2559.6563,483.7992 Q2558.3672,485.7914 2558.3672,489.7172 Q2558.3672,493.643 2559.6563,495.6645 Q2560.9453,497.6566 2563.4648,497.6566 Q2564.6367,497.6566 2565.75,497.1586 Q2566.8633,496.6312 2568.0352,495.5473 L2568.0352,500.6449 Z " fill="#000000"/><text fill="#000000" font-family="Helvetica" font-size="26.25" lengthAdjust="spacing" textLength="335.2258" x="2588.7188" y="499.1563">WorldSnapshotJsonCodec</text><line style="stroke:#1F2937;stroke-width:0.9375;" x1="2536.2188" x2="2927.6946" y1="520.0687" y2="520.0687"/><line style="stroke:#1F2937;stroke-width:0.9375;" x1="2536.2188" x2="2927.6946" y1="535.0687" y2="535.0687"/></g><!--class Entity--><g class="entity" data-qualified-name="Entity" data-source-line="70" id="ent0015"><rect fill="#F9FAFB" height="90" rx="4.6875" ry="4.6875" style="stroke:#1F2937;stroke-width:0.9375;" width="136.6351" x="1377.3938" y="1201.2"/><rect fill="#E5E7EB" height="60" rx="4.6875" ry="4.6875" style="stroke:#E5E7EB;stroke-width:0.9375;" width="136.6351" x="1377.3938" y="1201.2"/><rect fill="#E5E7EB" height="4.6875" style="stroke:#E5E7EB;stroke-width:0.9375;" width="136.6351" x="1377.3938" y="1256.5125"/><rect fill="none" height="90" rx="4.6875" ry="4.6875" style="stroke:#1F2937;stroke-width:0.9375;" width="136.6351" x="1377.3938" y="1201.2"/><ellipse cx="1405.5188" cy="1231.2" fill="#ADD1B2" rx="20.625" ry="20.625" style="stroke:#181818;stroke-width:1.875;"/><path d="M1411.0852,1241.7762 Q1410.0012,1242.3328 1408.8,1242.5965 Q1407.5988,1242.8895 1406.2805,1242.8895 Q1401.593,1242.8895 1399.1027,1239.8133 Q1396.6418,1236.7078 1396.6418,1230.8484 Q1396.6418,1224.9891 1399.1027,1221.8836 Q1401.593,1218.7781 1406.2805,1218.7781 Q1407.5988,1218.7781 1408.8,1219.0711 Q1410.0305,1219.3641 1411.0852,1219.9207 L1411.0852,1225.0184 Q1409.9133,1223.9344 1408.8,1223.4363 Q1407.6867,1222.909 1406.5148,1222.909 Q1403.9953,1222.909 1402.7063,1224.9305 Q1401.4172,1226.9227 1401.4172,1230.8484 Q1401.4172,1234.7742 1402.7063,1236.7957 Q1403.9953,1238.7879 1406.5148,1238.7879 Q1407.6867,1238.7879 1408.8,1238.2898 Q1409.9133,1237.7625 1411.0852,1236.6785 L1411.0852,1241.7762 Z " fill="#000000"/><text fill="#000000" font-family="Helvetica" font-size="26.25" lengthAdjust="spacing" textLength="76.6351" x="1431.7688" y="1240.2875">Entity</text><line style="stroke:#1F2937;stroke-width:0.9375;" x1="1379.2688" x2="1512.1539" y1="1261.2" y2="1261.2"/><line style="stroke:#1F2937;stroke-width:0.9375;" x1="1379.2688" x2="1512.1539" y1="1276.2" y2="1276.2"/></g><!--class PlantType--><g class="entity" data-qualified-name="PlantType" data-source-line="71" id="ent0016"><rect fill="#F9FAFB" height="90" rx="4.6875" ry="4.6875" style="stroke:#1F2937;stroke-width:0.9375;" width="190.5194" x="757.95" y="1881.2063"/><rect fill="#E5E7EB" height="60" rx="4.6875" ry="4.6875" style="stroke:#E5E7EB;stroke-width:0.9375;" width="190.5194" x="757.95" y="1881.2063"/><rect fill="#E5E7EB" height="4.6875" style="stroke:#E5E7EB;stroke-width:0.9375;" width="190.5194" x="757.95" y="1936.5188"/><rect fill="none" height="90" rx="4.6875" ry="4.6875" style="stroke:#1F2937;stroke-width:0.9375;" width="190.5194" x="757.95" y="1881.2063"/><ellipse cx="786.075" cy="1911.2063" fill="#EB937F" rx="20.625" ry="20.625" style="stroke:#181818;stroke-width:1.875;"/><path d="M793.7801,1922.4563 L779.3074,1922.4563 L779.3074,1899.2238 L793.7801,1899.2238 L793.7801,1903.2668 L783.907,1903.2668 L783.907,1908.2766 L792.8426,1908.2766 L792.8426,1912.3195 L783.907,1912.3195 L783.907,1918.4133 L793.7801,1918.4133 L793.7801,1922.4563 Z " fill="#000000"/><text fill="#000000" font-family="Helvetica" font-size="26.25" lengthAdjust="spacing" textLength="130.5194" x="812.325" y="1920.2938">PlantType</text><line style="stroke:#1F2937;stroke-width:0.9375;" x1="759.825" x2="946.5944" y1="1941.2063" y2="1941.2063"/><line style="stroke:#1F2937;stroke-width:0.9375;" x1="759.825" x2="946.5944" y1="1956.2063" y2="1956.2063"/></g><!--class TreeVariant--><g class="entity" data-qualified-name="TreeVariant" data-source-line="72" id="ent0017"><rect fill="#F9FAFB" height="90" rx="4.6875" ry="4.6875" style="stroke:#1F2937;stroke-width:0.9375;" width="214.27" x="1014.1875" y="1881.2063"/><rect fill="#E5E7EB" height="60" rx="4.6875" ry="4.6875" style="stroke:#E5E7EB;stroke-width:0.9375;" width="214.27" x="1014.1875" y="1881.2063"/><rect fill="#E5E7EB" height="4.6875" style="stroke:#E5E7EB;stroke-width:0.9375;" width="214.27" x="1014.1875" y="1936.5188"/><rect fill="none" height="90" rx="4.6875" ry="4.6875" style="stroke:#1F2937;stroke-width:0.9375;" width="214.27" x="1014.1875" y="1881.2063"/><ellipse cx="1042.3125" cy="1911.2063" fill="#EB937F" rx="20.625" ry="20.625" style="stroke:#181818;stroke-width:1.875;"/><path d="M1050.0176,1922.4563 L1035.5449,1922.4563 L1035.5449,1899.2238 L1050.0176,1899.2238 L1050.0176,1903.2668 L1040.1445,1903.2668 L1040.1445,1908.2766 L1049.0801,1908.2766 L1049.0801,1912.3195 L1040.1445,1912.3195 L1040.1445,1918.4133 L1050.0176,1918.4133 L1050.0176,1922.4563 Z " fill="#000000"/><text fill="#000000" font-family="Helvetica" font-size="26.25" lengthAdjust="spacing" textLength="154.27" x="1068.5625" y="1920.2938">TreeVariant</text><line style="stroke:#1F2937;stroke-width:0.9375;" x1="1016.0625" x2="1226.5825" y1="1941.2063" y2="1941.2063"/><line style="stroke:#1F2937;stroke-width:0.9375;" x1="1016.0625" x2="1226.5825" y1="1956.2063" y2="1956.2063"/></g><!--class TreeLifeStage--><g class="entity" data-qualified-name="TreeLifeStage" data-source-line="73" id="ent0018"><rect fill="#F9FAFB" height="90" rx="4.6875" ry="4.6875" style="stroke:#1F2937;stroke-width:0.9375;" width="242.2888" x="1294.5562" y="1881.2063"/><rect fill="#E5E7EB" height="60" rx="4.6875" ry="4.6875" style="stroke:#E5E7EB;stroke-width:0.9375;" width="242.2888" x="1294.5562" y="1881.2063"/><rect fill="#E5E7EB" height="4.6875" style="stroke:#E5E7EB;stroke-width:0.9375;" width="242.2888" x="1294.5562" y="1936.5188"/><rect fill="none" height="90" rx="4.6875" ry="4.6875" style="stroke:#1F2937;stroke-width:0.9375;" width="242.2888" x="1294.5562" y="1881.2063"/><ellipse cx="1322.6812" cy="1911.2063" fill="#EB937F" rx="20.625" ry="20.625" style="stroke:#181818;stroke-width:1.875;"/><path d="M1330.3863,1922.4563 L1315.9137,1922.4563 L1315.9137,1899.2238 L1330.3863,1899.2238 L1330.3863,1903.2668 L1320.5133,1903.2668 L1320.5133,1908.2766 L1329.4488,1908.2766 L1329.4488,1912.3195 L1320.5133,1912.3195 L1320.5133,1918.4133 L1330.3863,1918.4133 L1330.3863,1922.4563 Z " fill="#000000"/><text fill="#000000" font-family="Helvetica" font-size="26.25" lengthAdjust="spacing" textLength="182.2888" x="1348.9312" y="1920.2938">TreeLifeStage</text><line style="stroke:#1F2937;stroke-width:0.9375;" x1="1296.4312" x2="1534.9701" y1="1941.2063" y2="1941.2063"/><line style="stroke:#1F2937;stroke-width:0.9375;" x1="1296.4312" x2="1534.9701" y1="1956.2063" y2="1956.2063"/></g><!--reverse link SimulationEngine to Grid--><g class="link" data-entity-1="ent0002" data-entity-2="ent0005" data-link-type="aggregation" data-source-line="75" id="lnk19"><path codeLine="75" d="M1165.7438,695.3625 C1165.7438,732.7125 1165.7438,749.1188 1165.7438,784.2188" fill="none" id="SimulationEngine-backto-Grid" style="stroke:#4B5563;stroke-width:1.875;"/><polygon fill="none" points="1165.7438,672.8625,1158.2438,684.1125,1165.7438,695.3625,1173.2438,684.1125,1165.7438,672.8625" style="stroke:#4B5563;stroke-width:1.875;"/></g><!--link SimulationEngine to TickLogic--><g class="link" data-entity-1="ent0002" data-entity-2="ent0003" data-link-type="dependency" data-source-line="76" id="lnk20"><path codeLine="76" d="M757.0125,506.8312 C534.3375,506.8312 253.2,506.8312 253.2,506.8312 C253.2,506.8312 253.2,722.5687 253.2,834.2812" fill="none" id="SimulationEngine-to-TickLogic" style="stroke:#4B5563;stroke-width:1.875;"/><polygon fill="#4B5563" points="253.2,845.5312,260.7,828.6562,253.2,836.1562,245.7,828.6562,253.2,845.5312" style="stroke:#4B5563;stroke-width:1.875;"/></g><!--link SimulationEngine to WorldGenerator--><g class="link" data-entity-1="ent0002" data-entity-2="ent0004" data-link-type="dependency" data-source-line="77" id="lnk21"><path codeLine="77" d="M866.2688,672.8625 C866.2688,734.0437 866.2688,788.1562 866.2688,834.0937" fill="none" id="SimulationEngine-to-WorldGenerator" style="stroke:#4B5563;stroke-width:1.875;"/><polygon fill="#4B5563" points="866.2688,845.3437,873.7688,828.4687,866.2688,835.9687,858.7688,828.4687,866.2688,845.3437" style="stroke:#4B5563;stroke-width:1.875;"/></g><!--link SimulationEngine to WorldSnapshot--><g class="link" data-entity-1="ent0002" data-entity-2="ent0008" data-link-type="dependency" data-source-line="78" id="lnk22"><path codeLine="78" d="M1290.5625,596.8313 C1682.9438,596.8313 2369.8125,596.8313 2369.8125,596.8313 C2369.8125,596.8313 2369.8125,753.3187 2369.8125,841.7625" fill="none" id="SimulationEngine-to-WorldSnapshot" style="stroke:#4B5563;stroke-width:1.875;"/><polygon fill="#4B5563" points="2369.8125,853.0125,2377.3125,836.1375,2369.8125,843.6375,2362.3125,836.1375,2369.8125,853.0125" style="stroke:#4B5563;stroke-width:1.875;"/></g><!--link SimulationEngine to ActiveEventZone--><g class="link" data-entity-1="ent0002" data-entity-2="ent0009" data-link-type="dependency" data-source-line="79" id="lnk23"><path codeLine="79" d="M1290.1688,634.3313 C1454.9063,634.3313 1635.1125,634.3313 1635.1125,634.3313 C1635.1125,634.3313 1635.1125,762.7688 1635.1125,841.875" fill="none" id="SimulationEngine-to-ActiveEventZone" style="stroke:#4B5563;stroke-width:1.875;"/><polygon fill="#4B5563" points="1635.1125,853.125,1642.6125,836.25,1635.1125,843.75,1627.6125,836.25,1635.1125,853.125" style="stroke:#4B5563;stroke-width:1.875;"/></g><!--reverse link Grid to Tile--><g class="link" data-entity-1="ent0005" data-entity-2="ent0006" data-link-type="aggregation" data-source-line="80" id="lnk24"><path codeLine="80" d="M1176.5063,1050.9563 C1176.5063,1087.3313 1176.5063,1104.3563 1176.5063,1139.6438" fill="none" id="Grid-backto-Tile" style="stroke:#4B5563;stroke-width:1.875;"/><polygon fill="none" points="1176.5063,1028.4563,1169.0063,1039.7063,1176.5063,1050.9563,1184.0063,1039.7063,1176.5063,1028.4563" style="stroke:#4B5563;stroke-width:1.875;"/></g><!--link Grid to Entity--><g class="link" data-entity-1="ent0005" data-entity-2="ent0015" data-link-type="dependency" data-source-line="81" id="lnk25"><path codeLine="81" d="M1445.7,1028.4563 C1445.7,1088.25 1445.7,1145.3437 1445.7,1189.2563" fill="none" id="Grid-to-Entity" style="stroke:#4B5563;stroke-width:1.875;"/><polygon fill="#4B5563" points="1445.7,1200.5063,1453.2,1183.6313,1445.7,1191.1313,1438.2,1183.6313,1445.7,1200.5063" style="stroke:#4B5563;stroke-width:1.875;"/></g><!--link Tile to PlantState--><g class="link" data-entity-1="ent0006" data-entity-2="ent0007" data-link-type="dependency" data-source-line="82" id="lnk26"><path codeLine="82" d="M1121.325,1352.8875 C1121.325,1387.5188 1121.325,1415.4 1121.325,1452.7312" fill="none" id="Tile-to-PlantState" style="stroke:#4B5563;stroke-width:1.875;"/><polygon fill="#4B5563" points="1121.325,1463.9812,1128.825,1447.1062,1121.325,1454.6062,1113.825,1447.1062,1121.325,1463.9812" style="stroke:#4B5563;stroke-width:1.875;"/></g><!--link PlantState to PlantType--><g class="link" data-entity-1="ent0007" data-entity-2="ent0016" data-link-type="dependency" data-source-line="83" id="lnk27"><path codeLine="83" d="M912.9375,1768.7625 C912.9375,1809.7312 912.9375,1839.6938 912.9375,1869.675" fill="none" id="PlantState-to-PlantType" style="stroke:#4B5563;stroke-width:1.875;"/><polygon fill="#4B5563" points="912.9375,1880.925,920.4375,1864.05,912.9375,1871.55,905.4375,1864.05,912.9375,1880.925" style="stroke:#4B5563;stroke-width:1.875;"/></g><!--link PlantState to TreeVariant--><g class="link" data-entity-1="ent0007" data-entity-2="ent0017" data-link-type="dependency" data-source-line="84" id="lnk28"><path codeLine="84" d="M1121.325,1768.7625 C1121.325,1809.7312 1121.325,1839.6938 1121.325,1869.675" fill="none" id="PlantState-to-TreeVariant" style="stroke:#4B5563;stroke-width:1.875;"/><polygon fill="#4B5563" points="1121.325,1880.925,1128.825,1864.05,1121.325,1871.55,1113.825,1864.05,1121.325,1880.925" style="stroke:#4B5563;stroke-width:1.875;"/></g><!--link PlantState to TreeLifeStage--><g class="link" data-entity-1="ent0007" data-entity-2="ent0018" data-link-type="dependency" data-source-line="85" id="lnk29"><path codeLine="85" d="M1329.9,1768.7625 C1329.9,1809.7312 1329.9,1839.6938 1329.9,1869.675" fill="none" id="PlantState-to-TreeLifeStage" style="stroke:#4B5563;stroke-width:1.875;"/><polygon fill="#4B5563" points="1329.9,1880.925,1337.4,1864.05,1329.9,1871.55,1322.4,1864.05,1329.9,1880.925" style="stroke:#4B5563;stroke-width:1.875;"/></g><!--link SimulationStorage to SimulationDatabase--><g class="link" data-entity-1="ent0010" data-entity-2="ent0011" data-link-type="dependency" data-source-line="86" id="lnk30"><path codeLine="86" d="M1916.6438,120.5812 C1745.9063,120.5812 1518.825,120.5812 1518.825,120.5812 C1518.825,120.5812 1518.825,334.7062 1518.825,440.3625" fill="none" id="SimulationStorage-to-SimulationDatabase" style="stroke:#4B5563;stroke-width:1.875;"/><polygon fill="#4B5563" points="1518.825,451.6125,1526.325,434.7375,1518.825,442.2375,1511.325,434.7375,1518.825,451.6125" style="stroke:#4B5563;stroke-width:1.875;"/></g><!--link SimulationStorage to SimulationSaveDao--><g class="link" data-entity-1="ent0010" data-entity-2="ent0012" data-link-type="dependency" data-source-line="87" id="lnk31"><path codeLine="87" d="M1990.1625,226.2 C1990.1625,299.5687 1990.1625,382.5563 1990.1625,440.5312" fill="none" id="SimulationStorage-to-SimulationSaveDao" style="stroke:#4B5563;stroke-width:1.875;"/><polygon fill="#4B5563" points="1990.1625,451.7812,1997.6625,434.9062,1990.1625,442.4062,1982.6625,434.9062,1990.1625,451.7812" style="stroke:#4B5563;stroke-width:1.875;"/></g><!--link SimulationStorage to SimulationSaveEntity--><g class="link" data-entity-1="ent0010" data-entity-2="ent0013" data-link-type="dependency" data-source-line="88" id="lnk32"><path codeLine="88" d="M2207.6813,226.2 C2207.6813,299.5687 2207.6813,382.5563 2207.6813,440.5312" fill="none" id="SimulationStorage-to-SimulationSaveEntity" style="stroke:#4B5563;stroke-width:1.875;"/><polygon fill="#4B5563" points="2207.6813,451.7812,2215.1813,434.9062,2207.6813,442.4062,2200.1813,434.9062,2207.6813,451.7812" style="stroke:#4B5563;stroke-width:1.875;"/></g><!--link SimulationStorage to WorldSnapshotJsonCodec--><g class="link" data-entity-1="ent0010" data-entity-2="ent0014" data-link-type="dependency" data-source-line="89" id="lnk33"><path codeLine="89" d="M2287.575,120.5812 C2473.4063,120.5812 2731.95,120.5812 2731.95,120.5812 C2731.95,120.5812 2731.95,346.35 2731.95,448.2" fill="none" id="SimulationStorage-to-WorldSnapshotJsonCodec" style="stroke:#4B5563;stroke-width:1.875;"/><polygon fill="#4B5563" points="2731.95,459.45,2739.45,442.575,2731.95,450.075,2724.45,442.575,2731.95,459.45" style="stroke:#4B5563;stroke-width:1.875;"/></g><!--link WorldSnapshotJsonCodec to WorldSnapshot--><g class="link" data-entity-1="ent0014" data-entity-2="ent0008" data-link-type="dependency" data-source-line="90" id="lnk34"><path codeLine="90" d="M2533.8375,506.8312 C2513.175,506.8312 2499.5438,506.8312 2499.5438,506.8312 C2499.5438,506.8312 2499.5438,733.275 2499.5438,841.9125" fill="none" id="WorldSnapshotJsonCodec-to-WorldSnapshot" style="stroke:#4B5563;stroke-width:1.875;"/><polygon fill="#4B5563" points="2499.5438,853.1625,2507.0438,836.2875,2499.5438,843.7875,2492.0438,836.2875,2499.5438,853.1625" style="stroke:#4B5563;stroke-width:1.875;"/></g><?plantuml-src ZLJVJzim47xlNs69bwArQ8mnneIGMjgoJMWWMctItgx9aLeuTcLVoigq_trd9qtI9B2z-Vnzv_lrdTsZr6kma8ebH8-9DPcEhumoLf05xHX2JJrNijmAOlCaTI8UG3ci8V5QYkEFR-it-02PefdHz0rI59zHRP1a13LEfC2vLnaZQyrJdjB1-_7fwOUJ6dZbtSV6ncWBol7itVd9MOlIAEvWTZuRpSPDscS4Vgb5dfvEpwOjyeZ8ocL6-2KoUYwVKTIBLr8ZRTSeZAMLwP5P2p9YQOWCTqPQZ4WQtUk51eYvJ3C5_cQg4_OKltj2l95QaWJ5J_ymLiNzGt_f22pbnpLa3lCZD-tnLaU5PT4XzPzaJAk1MA5CLfIph4mIj1Ffm17Q_g-1s1wAJvoMKGYwHhcp60CPE-FvFs-xY0dINCFQhGndmr18SNVJ-xEhRC69tPX4Hdb946_0fvbO6Gy4S1CsEDsmnduQZUwmyWlFNQD6wzF8dHrYd7SYTsU5nYOTYAEZevhdDMCvdrDSI8Lbzju8VLCGuKZB55IVGqjgrXO8OxHsEyxSgglwm5XOp1yVY0rO2PeQB8kfsJGYrLkZYa7pB2n8lV1wuJGhArHXlTXIrYCnA7aTy_YQvWJa7UvA8xGuXEFhQGXOnQjeUTJmHX7pRdVsG9nPM4h5pbN0fUz6CmlY1dpFA_TvLzOEl94Fo14JBE3Ihcd1AwIGThPUyxguUtGciwmItgQutj9zTUp49YukU9tu4xYyBE3HlgxQX6hVvgmkdrykCDXWN_DFD13Ezyd7LaOd7bC6uhwCsrBtc7GqPryNDk66hT16L4ZOzu_wgJSZJu1W2SvdTszCkZExSkGN9c2OE1dTle3dmoxUAaPVKlSI_kgClZ8nHWLOo0HrbjPa4CpwHCkBQeQzrhTbXiEmVsraEBoi_e9kU7_bN-6KhU-aD8RV2_-1JooiVx0yhIWxBA6tQqjKMvGI2Krf0FNsT41Lezfoyvos5Fv9B9JmNxoYm6xg2uhelcvx_0K0?></g></svg>