<?plantuml 1.2026.2?><svg xmlns="http://www.w3.org/2000/svg" xmlns:xlink="http://www.w3.org/1999/xlink" contentStyleType="text/css" data-diagram-type="CLASS" height="1708.125px" preserveAspectRatio="none" style="width:3013px;height:1708px;" version="1.1" viewBox="0 0 3013 1708" width="3013.125px" zoomAndPan="magnify"><title>Simulation Core And Persistence</title><defs/><g><g class="title" data-source-line="1"><text fill="#000000" font-family="Helvetica" font-size="26.25" font-weight="bold" lengthAdjust="spacing" textLength="414.2706" x="1286.3022" y="43.3722">Simulation Core And Persistence</text></g><!--cluster simulation--><g class="cluster" data-qualified-name="simulation" data-source-line="17" id="ent0002"><rect fill="none" height="1614.8813" rx="4.6875" ry="4.6875" style="stroke:#000000;stroke-width:2.8125;" width="1610.625" x="13.125" y="82.6849"/><text fill="#000000" font-family="Helvetica" font-size="26.25" font-weight="bold" lengthAdjust="spacing" textLength="131.2628" x="752.8061" y="111.0571">simulation</text></g><!--cluster storage--><g class="cluster" data-qualified-name="storage" data-source-line="68" id="ent0014"><rect fill="none" height="937.9313" rx="4.6875" ry="4.6875" style="stroke:#000000;stroke-width:2.8125;" width="1100.625" x="1901.25" y="143.0599"/><text fill="#000000" font-family="Helvetica" font-size="26.25" font-weight="bold" lengthAdjust="spacing" textLength="94.823" x="2404.151" y="171.4321">storage</text></g><!--cluster model--><g class="cluster" data-qualified-name="model" data-source-line="82" id="ent0021"><rect fill="none" height="155.625" rx="4.6875" ry="4.6875" style="stroke:#000000;stroke-width:2.8125;" width="187.5" x="1668.75" y="917.9599"/><text fill="#000000" font-family="Helvetica" font-size="26.25" font-weight="bold" lengthAdjust="spacing" textLength="77.3016" x="1723.8492" y="946.3321">model</text></g><!--class SimulationEngine--><g class="entity" data-qualified-name="simulation.SimulationEngine" data-source-line="18" id="ent0003"><rect fill="#FFFFFF" height="316.4795" rx="4.6875" ry="4.6875" style="stroke:#0F172A;stroke-width:0.9375;" width="466.7633" x="722.8688" y="148.3099"/><rect fill="#E2E8F0" height="60" rx="4.6875" ry="4.6875" style="stroke:#E2E8F0;stroke-width:0.9375;" width="466.7633" x="722.8688" y="148.3099"/><rect fill="#E2E8F0" height="4.6875" style="stroke:#E2E8F0;stroke-width:0.9375;" width="466.7633" x="722.8688" y="203.6224"/><rect fill="none" height="316.4795" rx="4.6875" ry="4.6875" style="stroke:#0F172A;stroke-width:0.9375;" width="466.7633" x="722.8688" y="148.3099"/><ellipse cx="846.1335" cy="178.3099" fill="#ADD1B2" rx="20.625" ry="20.625" style="stroke:#181818;stroke-width:1.875;"/><path d="M846.573,190.8197 Q844.3171,190.8197 842.6472,189.9701 Q841.0066,189.1205 840.0984,187.597 Q839.1902,186.0443 839.1902,183.9349 L839.1902,173.7982 Q839.1902,171.6888 840.0984,170.1654 Q841.0066,168.6127 842.6472,167.7631 Q844.3171,166.9135 846.573,166.9135 Q848.7995,166.9135 850.4402,167.7631 Q852.1101,168.6127 853.0476,170.1654 Q853.9851,171.6888 853.9851,173.7982 L849.9421,173.7982 Q849.9421,172.1576 849.0632,171.308 Q848.2136,170.4291 846.573,170.4291 Q844.9616,170.4291 844.0534,171.308 Q843.1745,172.1576 843.1745,173.7982 L843.1745,183.9349 Q843.1745,185.5463 844.0534,186.4252 Q844.9616,187.3041 846.573,187.3041 Q848.2136,187.3041 849.0632,186.4252 Q849.9421,185.5463 849.9421,183.9349 L853.9851,183.9349 Q853.9851,186.0443 853.0476,187.597 Q852.1101,189.1205 850.4402,189.9701 Q848.7995,190.8197 846.573,190.8197 Z " fill="#000000"/><text fill="#000000" font-family="Helvetica" font-size="26.25" lengthAdjust="spacing" textLength="204.2963" x="884.571" y="187.8397">SimulationEngine</text><line style="stroke:#0F172A;stroke-width:0.9375;" x1="724.7438" x2="1187.7571" y1="208.3099" y2="208.3099"/><text fill="#000000" font-family="Helvetica" font-size="26.25" lengthAdjust="spacing" textLength="194.7345" x="734.1188" y="240.4321">+initializeWorld()</text><text fill="#000000" font-family="Helvetica" font-size="26.25" lengthAdjust="spacing" textLength="83.8641" x="734.1188" y="270.6171">+start()</text><text fill="#000000" font-family="Helvetica" font-size="26.25" lengthAdjust="spacing" textLength="104.3335" x="734.1188" y="300.802">+pause()</text><text fill="#000000" font-family="Helvetica" font-size="26.25" lengthAdjust="spacing" textLength="134.9286" x="734.1188" y="330.9869">+tickOnce()</text><text fill="#000000" font-family="Helvetica" font-size="26.25" lengthAdjust="spacing" textLength="238.5571" x="734.1188" y="361.1719">+reset(width, height)</text><text fill="#000000" font-family="Helvetica" font-size="26.25" lengthAdjust="spacing" textLength="359.6301" x="734.1188" y="391.3568">+triggerDisaster(x, y) : boolean</text><text fill="#000000" font-family="Helvetica" font-size="26.25" lengthAdjust="spacing" textLength="444.2633" x="734.1188" y="421.5417">+triggerPredatorFrenzy(x, y) : boolean</text><text fill="#000000" font-family="Helvetica" font-size="26.25" lengthAdjust="spacing" textLength="381.5735" x="734.1188" y="451.7267">+getSnapshot() : WorldSnapshot</text></g><!--class TickLogic--><g class="entity" data-qualified-name="simulation.TickLogic" data-source-line="29" id="ent0004"><rect fill="#FFFFFF" height="105.1849" rx="4.6875" ry="4.6875" style="stroke:#0F172A;stroke-width:0.9375;" width="421.5692" x="57.3375" y="960.9912"/><rect fill="#E2E8F0" height="60" rx="4.6875" ry="4.6875" style="stroke:#E2E8F0;stroke-width:0.9375;" width="421.5692" x="57.3375" y="960.9912"/><rect fill="#E2E8F0" height="4.6875" style="stroke:#E2E8F0;stroke-width:0.9375;" width="421.5692" x="57.3375" y="1016.3037"/><rect fill="none" height="105.1849" rx="4.6875" ry="4.6875" style="stroke:#0F172A;stroke-width:0.9375;" width="421.5692" x="57.3375" y="960.9912"/><ellipse cx="204.7182" cy="990.9912" fill="#ADD1B2" rx="20.625" ry="20.625" style="stroke:#181818;stroke-width:1.875;"/><path d="M205.1576,1003.501 Q202.9018,1003.501 201.2318,1002.6513 Q199.5912,1001.8017 198.683,1000.2783 Q197.7748,998.7256 197.7748,996.6162 L197.7748,986.4795 Q197.7748,984.3701 198.683,982.8467 Q199.5912,981.2939 201.2318,980.4443 Q202.9018,979.5947 205.1576,979.5947 Q207.3842,979.5947 209.0248,980.4443 Q210.6947,981.2939 211.6322,982.8467 Q212.5697,984.3701 212.5697,986.4795 L208.5268,986.4795 Q208.5268,984.8388 207.6479,983.9892 Q206.7983,983.1103 205.1576,983.1103 Q203.5463,983.1103 202.6381,983.9892 Q201.7592,984.8388 201.7592,986.4795 L201.7592,996.6162 Q201.7592,998.2275 202.6381,999.1064 Q203.5463,999.9853 205.1576,999.9853 Q206.7983,999.9853 207.6479,999.1064 Q208.5268,998.2275 208.5268,996.6162 L212.5697,996.6162 Q212.5697,998.7256 211.6322,1000.2783 Q210.6947,1001.8017 209.0248,1002.6513 Q207.3842,1003.501 205.1576,1003.501 Z " fill="#000000"/><text fill="#000000" font-family="Helvetica" font-size="26.25" lengthAdjust="spacing" textLength="110.8704" x="243.1557" y="1000.5209">TickLogic</text><line style="stroke:#0F172A;stroke-width:0.9375;" x1="59.2125" x2="477.0317" y1="1020.9912" y2="1020.9912"/><text fill="#000000" font-family="Helvetica" font-size="26.25" lengthAdjust="spacing" textLength="399.0692" x="68.5875" y="1053.1134">+advance(grid, activeEventZones)</text></g><!--class WorldGenerator--><g class="entity" data-qualified-name="simulation.WorldGenerator" data-source-line="33" id="ent0005"><rect fill="#FFFFFF" height="105.1849" rx="4.6875" ry="4.6875" style="stroke:#0F172A;stroke-width:0.9375;" width="364.6088" x="112.0688" y="637.6662"/><rect fill="#E2E8F0" height="60" rx="4.6875" ry="4.6875" style="stroke:#E2E8F0;stroke-width:0.9375;" width="364.6088" x="112.0688" y="637.6662"/><rect fill="#E2E8F0" height="4.6875" style="stroke:#E2E8F0;stroke-width:0.9375;" width="364.6088" x="112.0688" y="692.9787"/><rect fill="none" height="105.1849" rx="4.6875" ry="4.6875" style="stroke:#0F172A;stroke-width:0.9375;" width="364.6088" x="112.0688" y="637.6662"/><ellipse cx="193.2363" cy="667.6662" fill="#ADD1B2" rx="20.625" ry="20.625" style="stroke:#181818;stroke-width:1.875;"/><path d="M193.6757,680.176 Q191.4199,680.176 189.75,679.3263 Q188.1093,678.4767 187.2011,676.9533 Q186.2929,675.4006 186.2929,673.2912 L186.2929,663.1545 Q186.2929,661.0451 187.2011,659.5217 Q188.1093,657.9689 189.75,657.1193 Q191.4199,656.2697 193.6757,656.2697 Q195.9023,656.2697 197.5429,657.1193 Q199.2129,657.9689 200.1504,659.5217 Q201.0879,661.0451 201.0879,663.1545 L197.0449,663.1545 Q197.0449,661.5138 196.166,660.6642 Q195.3164,659.7853 193.6757,659.7853 Q192.0644,659.7853 191.1562,660.6642 Q190.2773,661.5138 190.2773,663.1545 L190.2773,673.2912 Q190.2773,674.9025 191.1562,675.7814 Q192.0644,676.6603 193.6757,676.6603 Q195.3164,676.6603 196.166,675.7814 Q197.0449,674.9025 197.0449,673.2912 L201.0879,673.2912 Q201.0879,675.4006 200.1504,676.9533 Q199.2129,678.4767 197.5429,679.3263 Q195.9023,680.176 193.6757,680.176 Z " fill="#000000"/><text fill="#000000" font-family="Helvetica" font-size="26.25" lengthAdjust="spacing" textLength="186.7365" x="231.2735" y="677.1959">WorldGenerator</text><line style="stroke:#0F172A;stroke-width:0.9375;" x1="113.9438" x2="474.8025" y1="697.6662" y2="697.6662"/><text fill="#000000" font-family="Helvetica" font-size="26.25" lengthAdjust="spacing" textLength="342.1088" x="123.3188" y="729.7884">+seedWorld(grid, random, ...)</text></g><!--class Grid--><g class="entity" data-qualified-name="simulation.Grid" data-source-line="37" id="ent0006"><rect fill="#FFFFFF" height="225.9247" rx="4.6875" ry="4.6875" style="stroke:#0F172A;stroke-width:0.9375;" width="421.5564" x="542.9625" y="577.2912"/><rect fill="#E2E8F0" height="60" rx="4.6875" ry="4.6875" style="stroke:#E2E8F0;stroke-width:0.9375;" width="421.5564" x="542.9625" y="577.2912"/><rect fill="#E2E8F0" height="4.6875" style="stroke:#E2E8F0;stroke-width:0.9375;" width="421.5564" x="542.9625" y="632.6037"/><rect fill="none" height="225.9247" rx="4.6875" ry="4.6875" style="stroke:#0F172A;stroke-width:0.9375;" width="421.5564" x="542.9625" y="577.2912"/><ellipse cx="720.9767" cy="607.2912" fill="#ADD1B2" rx="20.625" ry="20.625" style="stroke:#181818;stroke-width:1.875;"/><path d="M721.4162,619.801 Q719.1603,619.801 717.4904,618.9513 Q715.8498,618.1017 714.9416,616.5783 Q714.0334,615.0256 714.0334,612.9162 L714.0334,602.7795 Q714.0334,600.6701 714.9416,599.1467 Q715.8498,597.5939 717.4904,596.7443 Q719.1603,595.8947 721.4162,595.8947 Q723.6427,595.8947 725.2834,596.7443 Q726.9533,597.5939 727.8908,599.1467 Q728.8283,600.6701 728.8283,602.7795 L724.7853,602.7795 Q724.7853,601.1388 723.9064,600.2892 Q723.0568,599.4103 721.4162,599.4103 Q719.8048,599.4103 718.8966,600.2892 Q718.0177,601.1388 718.0177,602.7795 L718.0177,612.9162 Q718.0177,614.5275 718.8966,615.4064 Q719.8048,616.2853 721.4162,616.2853 Q723.0568,616.2853 723.9064,615.4064 Q724.7853,614.5275 724.7853,612.9162 L728.8283,612.9162 Q728.8283,615.0256 727.8908,616.5783 Q726.9533,618.1017 725.2834,618.9513 Q723.6427,619.801 721.4162,619.801 Z " fill="#000000"/><text fill="#000000" font-family="Helvetica" font-size="26.25" lengthAdjust="spacing" textLength="49.5905" x="759.4142" y="616.8209">Grid</text><line style="stroke:#0F172A;stroke-width:0.9375;" x1="544.8375" x2="962.6439" y1="637.2912" y2="637.2912"/><text fill="#000000" font-family="Helvetica" font-size="26.25" lengthAdjust="spacing" textLength="216.6138" x="554.2125" y="669.4134">+getTile(x, y) : Tile</text><text fill="#000000" font-family="Helvetica" font-size="26.25" lengthAdjust="spacing" textLength="353.8495" x="554.2125" y="699.5983">+placeAnimal(entity) : boolean</text><text fill="#000000" font-family="Helvetica" font-size="26.25" lengthAdjust="spacing" textLength="374.2548" x="554.2125" y="729.7833">+placeBerryBush(x, y) : boolean</text><text fill="#000000" font-family="Helvetica" font-size="26.25" lengthAdjust="spacing" textLength="399.0564" x="554.2125" y="759.9682">+placeTree(x, y, variant) : boolean</text><text fill="#000000" font-family="Helvetica" font-size="26.25" lengthAdjust="spacing" textLength="263.3203" x="554.2125" y="790.1531">+removeAnimal(entity)</text></g><!--class Tile--><g class="entity" data-qualified-name="simulation.Tile" data-source-line="45" id="ent0007"><rect fill="#FFFFFF" height="195.7397" rx="4.6875" ry="4.6875" style="stroke:#0F172A;stroke-width:0.9375;" width="333.9752" x="558.6375" y="915.7099"/><rect fill="#E2E8F0" height="60" rx="4.6875" ry="4.6875" style="stroke:#E2E8F0;stroke-width:0.9375;" width="333.9752" x="558.6375" y="915.7099"/><rect fill="#E2E8F0" height="4.6875" style="stroke:#E2E8F0;stroke-width:0.9375;" width="333.9752" x="558.6375" y="971.0224"/><rect fill="none" height="195.7397" rx="4.6875" ry="4.6875" style="stroke:#0F172A;stroke-width:0.9375;" width="333.9752" x="558.6375" y="915.7099"/><ellipse cx="696.5077" cy="945.7099" fill="#ADD1B2" rx="20.625" ry="20.625" style="stroke:#181818;stroke-width:1.875;"/><path d="M696.9471,958.2197 Q694.6913,958.2197 693.0214,957.3701 Q691.3807,956.5205 690.4725,954.997 Q689.5643,953.4443 689.5643,951.3349 L689.5643,941.1982 Q689.5643,939.0888 690.4725,937.5654 Q691.3807,936.0127 693.0214,935.1631 Q694.6913,934.3135 696.9471,934.3135 Q699.1737,934.3135 700.8143,935.1631 Q702.4842,936.0127 703.4217,937.5654 Q704.3592,939.0888 704.3592,941.1982 L700.3163,941.1982 Q700.3163,939.5576 699.4374,938.708 Q698.5878,937.8291 696.9471,937.8291 Q695.3358,937.8291 694.4276,938.708 Q693.5487,939.5576 693.5487,941.1982 L693.5487,951.3349 Q693.5487,952.9463 694.4276,953.8252 Q695.3358,954.7041 696.9471,954.7041 Q698.5878,954.7041 699.4374,953.8252 Q700.3163,952.9463 700.3163,951.3349 L704.3592,951.3349 Q704.3592,953.4443 703.4217,954.997 Q702.4842,956.5205 700.8143,957.3701 Q699.1737,958.2197 696.9471,958.2197 Z " fill="#000000"/><text fill="#000000" font-family="Helvetica" font-size="26.25" lengthAdjust="spacing" textLength="42.2974" x="734.9452" y="955.2397">Tile</text><line style="stroke:#0F172A;stroke-width:0.9375;" x1="560.5125" x2="890.7377" y1="975.7099" y2="975.7099"/><text fill="#000000" font-family="Helvetica" font-size="26.25" lengthAdjust="spacing" textLength="311.4752" x="569.8875" y="1007.8321">+terrainType : TerrainType</text><text fill="#000000" font-family="Helvetica" font-size="26.25" lengthAdjust="spacing" textLength="219.5874" x="569.8875" y="1038.0171">+grassAmount : int</text><text fill="#000000" font-family="Helvetica" font-size="26.25" lengthAdjust="spacing" textLength="276.5479" x="569.8875" y="1068.202">+plantState : PlantState</text><text fill="#000000" font-family="Helvetica" font-size="26.25" lengthAdjust="spacing" textLength="180.1868" x="569.8875" y="1098.3869">+animal : Entity</text></g><!--class PlantState--><g class="entity" data-qualified-name="simulation.PlantState" data-source-line="52" id="ent0008"><rect fill="#FFFFFF" height="271.1096" rx="4.6875" ry="4.6875" style="stroke:#0F172A;stroke-width:0.9375;" width="380.7587" x="364.6125" y="1223.9599"/><rect fill="#E2E8F0" height="60" rx="4.6875" ry="4.6875" style="stroke:#E2E8F0;stroke-width:0.9375;" width="380.7587" x="364.6125" y="1223.9599"/><rect fill="#E2E8F0" height="4.6875" style="stroke:#E2E8F0;stroke-width:0.9375;" width="380.7587" x="364.6125" y="1279.2724"/><rect fill="none" height="271.1096" rx="4.6875" ry="4.6875" style="stroke:#0F172A;stroke-width:0.9375;" width="380.7587" x="364.6125" y="1223.9599"/><ellipse cx="486.4609" cy="1253.9599" fill="#ADD1B2" rx="20.625" ry="20.625" style="stroke:#181818;stroke-width:1.875;"/><path d="M486.9004,1266.4697 Q484.6445,1266.4697 482.9746,1265.6201 Q481.334,1264.7705 480.4258,1263.247 Q479.5176,1261.6943 479.5176,1259.5849 L479.5176,1249.4482 Q479.5176,1247.3388 480.4258,1245.8154 Q481.334,1244.2627 482.9746,1243.4131 Q484.6445,1242.5635 486.9004,1242.5635 Q489.127,1242.5635 490.7676,1243.4131 Q492.4375,1244.2627 493.375,1245.8154 Q494.3125,1247.3388 494.3125,1249.4482 L490.2695,1249.4482 Q490.2695,1247.8076 489.3906,1246.958 Q488.541,1246.0791 486.9004,1246.0791 Q485.2891,1246.0791 484.3809,1246.958 Q483.502,1247.8076 483.502,1249.4482 L483.502,1259.5849 Q483.502,1261.1963 484.3809,1262.0752 Q485.2891,1262.9541 486.9004,1262.9541 Q488.541,1262.9541 489.3906,1262.0752 Q490.2695,1261.1963 490.2695,1259.5849 L494.3125,1259.5849 Q494.3125,1261.6943 493.375,1263.247 Q492.4375,1264.7705 490.7676,1265.6201 Q489.127,1266.4697 486.9004,1266.4697 Z " fill="#000000"/><text fill="#000000" font-family="Helvetica" font-size="26.25" lengthAdjust="spacing" textLength="121.1243" x="524.8984" y="1263.4897">PlantState</text><line style="stroke:#0F172A;stroke-width:0.9375;" x1="366.4875" x2="743.4962" y1="1283.9599" y2="1283.9599"/><text fill="#000000" font-family="Helvetica" font-size="26.25" lengthAdjust="spacing" textLength="270.6775" x="375.8625" y="1316.0821">+plantType : PlantType</text><text fill="#000000" font-family="Helvetica" font-size="26.25" lengthAdjust="spacing" textLength="169.9841" x="375.8625" y="1346.2671">+durability : int</text><text fill="#000000" font-family="Helvetica" font-size="26.25" lengthAdjust="spacing" textLength="215.2039" x="375.8625" y="1376.452">+berryAmount : int</text><text fill="#000000" font-family="Helvetica" font-size="26.25" lengthAdjust="spacing" textLength="302.7594" x="375.8625" y="1406.6369">+treeVariant : TreeVariant</text><text fill="#000000" font-family="Helvetica" font-size="26.25" lengthAdjust="spacing" textLength="358.2587" x="375.8625" y="1436.8219">+treeLifeStage : TreeLifeStage</text><line style="stroke:#0F172A;stroke-width:0.9375;" x1="366.4875" x2="743.4962" y1="1449.8846" y2="1449.8846"/><text fill="#000000" font-family="Helvetica" font-size="26.25" lengthAdjust="spacing" textLength="180.174" x="375.8625" y="1482.0068">+advanceTick()</text></g><!--class WorldSnapshot--><g class="entity" data-qualified-name="simulation.WorldSnapshot" data-source-line="61" id="ent0009"><rect fill="#FFFFFF" height="74.8077" rx="4.6875" ry="4.6875" style="stroke:#0F172A;stroke-width:0.9375;" width="239.469" x="1354.0125" y="652.8537"/><rect fill="#E2E8F0" height="74.8077" rx="4.6875" ry="4.6875" style="stroke:#E2E8F0;stroke-width:0.9375;" width="239.469" x="1354.0125" y="652.8537"/><rect fill="#E2E8F0" height="4.6875" style="stroke:#E2E8F0;stroke-width:0.9375;" width="239.469" x="1354.0125" y="722.9739"/><rect fill="none" height="74.8077" rx="4.6875" ry="4.6875" style="stroke:#0F172A;stroke-width:0.9375;" width="239.469" x="1354.0125" y="652.8537"/><ellipse cx="1382.1375" cy="690.2576" fill="#ADD1B2" rx="20.625" ry="20.625" style="stroke:#181818;stroke-width:1.875;"/><path d="M1382.577,702.7673 Q1380.3211,702.7673 1378.6512,701.9177 Q1377.0105,701.0681 1376.1023,699.5447 Q1375.1941,697.9919 1375.1941,695.8826 L1375.1941,685.7458 Q1375.1941,683.6365 1376.1023,682.113 Q1377.0105,680.5603 1378.6512,679.7107 Q1380.3211,678.8611 1382.577,678.8611 Q1384.8035,678.8611 1386.4441,679.7107 Q1388.1141,680.5603 1389.0516,682.113 Q1389.9891,683.6365 1389.9891,685.7458 L1385.9461,685.7458 Q1385.9461,684.1052 1385.0672,683.2556 Q1384.2176,682.3767 1382.577,682.3767 Q1380.9656,682.3767 1380.0574,683.2556 Q1379.1785,684.1052 1379.1785,685.7458 L1379.1785,695.8826 Q1379.1785,697.4939 1380.0574,698.3728 Q1380.9656,699.2517 1382.577,699.2517 Q1384.2176,699.2517 1385.0672,698.3728 Q1385.9461,697.4939 1385.9461,695.8826 L1389.9891,695.8826 Q1389.9891,697.9919 1389.0516,699.5447 Q1388.1141,701.0681 1386.4441,701.9177 Q1384.8035,702.7673 1382.577,702.7673 Z " fill="#000000"/><text fill="#000000" font-family="Helvetica" font-size="22.5" font-style="italic" lengthAdjust="spacing" textLength="88.8025" x="1453.7208" y="683.3334">&#171;record&#187;</text><text fill="#000000" font-family="Helvetica" font-size="26.25" lengthAdjust="spacing" textLength="179.469" x="1408.3875" y="712.7237">WorldSnapshot</text></g><!--class ActiveEventZone--><g class="entity" data-qualified-name="simulation.ActiveEventZone" data-source-line="62" id="ent0010"><rect fill="#FFFFFF" height="74.8077" rx="4.6875" ry="4.6875" style="stroke:#0F172A;stroke-width:0.9375;" width="258.4387" x="1029.525" y="652.8537"/><rect fill="#E2E8F0" height="74.8077" rx="4.6875" ry="4.6875" style="stroke:#E2E8F0;stroke-width:0.9375;" width="258.4387" x="1029.525" y="652.8537"/><rect fill="#E2E8F0" height="4.6875" style="stroke:#E2E8F0;stroke-width:0.9375;" width="258.4387" x="1029.525" y="722.9739"/><rect fill="none" height="74.8077" rx="4.6875" ry="4.6875" style="stroke:#0F172A;stroke-width:0.9375;" width="258.4387" x="1029.525" y="652.8537"/><ellipse cx="1057.65" cy="690.2576" fill="#ADD1B2" rx="20.625" ry="20.625" style="stroke:#181818;stroke-width:1.875;"/><path d="M1058.0895,702.7673 Q1055.8336,702.7673 1054.1637,701.9177 Q1052.523,701.0681 1051.6148,699.5447 Q1050.7066,697.9919 1050.7066,695.8826 L1050.7066,685.7458 Q1050.7066,683.6365 1051.6148,682.113 Q1052.523,680.5603 1054.1637,679.7107 Q1055.8336,678.8611 1058.0895,678.8611 Q1060.316,678.8611 1061.9566,679.7107 Q1063.6266,680.5603 1064.5641,682.113 Q1065.5016,683.6365 1065.5016,685.7458 L1061.4586,685.7458 Q1061.4586,684.1052 1060.5797,683.2556 Q1059.7301,682.3767 1058.0895,682.3767 Q1056.4781,682.3767 1055.5699,683.2556 Q1054.691,684.1052 1054.691,685.7458 L1054.691,695.8826 Q1054.691,697.4939 1055.5699,698.3728 Q1056.4781,699.2517 1058.0895,699.2517 Q1059.7301,699.2517 1060.5797,698.3728 Q1061.4586,697.4939 1061.4586,695.8826 L1065.5016,695.8826 Q1065.5016,697.9919 1064.5641,699.5447 Q1063.6266,701.0681 1061.9566,701.9177 Q1060.316,702.7673 1058.0895,702.7673 Z " fill="#000000"/><text fill="#000000" font-family="Helvetica" font-size="22.5" font-style="italic" lengthAdjust="spacing" textLength="88.8025" x="1138.7181" y="683.3334">&#171;record&#187;</text><text fill="#000000" font-family="Helvetica" font-size="26.25" lengthAdjust="spacing" textLength="198.4387" x="1083.9" y="712.7237">ActiveEventZone</text></g><!--class PlantType--><g class="entity" data-qualified-name="simulation.PlantType" data-source-line="63" id="ent0011"><rect fill="#FFFFFF" height="60" rx="4.6875" ry="4.6875" style="stroke:#0F172A;stroke-width:0.9375;" width="178.1891" x="212.775" y="1607.5662"/><rect fill="#E2E8F0" height="60" rx="4.6875" ry="4.6875" style="stroke:#E2E8F0;stroke-width:0.9375;" width="178.1891" x="212.775" y="1607.5662"/><rect fill="#E2E8F0" height="4.6875" style="stroke:#E2E8F0;stroke-width:0.9375;" width="178.1891" x="212.775" y="1662.8787"/><rect fill="none" height="60" rx="4.6875" ry="4.6875" style="stroke:#0F172A;stroke-width:0.9375;" width="178.1891" x="212.775" y="1607.5662"/><ellipse cx="240.9" cy="1637.5662" fill="#EB937F" rx="20.625" ry="20.625" style="stroke:#181818;stroke-width:1.875;"/><path d="M234.3375,1649.7537 L234.3375,1626.492 L248.2828,1626.492 L248.2828,1629.9783 L238.2633,1629.9783 L238.2633,1636.0427 L247.1695,1636.0427 L247.1695,1639.4119 L238.2633,1639.4119 L238.2633,1646.2381 L248.2828,1646.2381 L248.2828,1649.7537 L234.3375,1649.7537 Z " fill="#000000"/><text fill="#000000" font-family="Helvetica" font-size="26.25" lengthAdjust="spacing" textLength="118.1891" x="267.15" y="1647.0959">PlantType</text></g><!--class TreeVariant--><g class="entity" data-qualified-name="simulation.TreeVariant" data-source-line="64" id="ent0012"><rect fill="#FFFFFF" height="60" rx="4.6875" ry="4.6875" style="stroke:#0F172A;stroke-width:0.9375;" width="197.146" x="456.4313" y="1607.5662"/><rect fill="#E2E8F0" height="60" rx="4.6875" ry="4.6875" style="stroke:#E2E8F0;stroke-width:0.9375;" width="197.146" x="456.4313" y="1607.5662"/><rect fill="#E2E8F0" height="4.6875" style="stroke:#E2E8F0;stroke-width:0.9375;" width="197.146" x="456.4313" y="1662.8787"/><rect fill="none" height="60" rx="4.6875" ry="4.6875" style="stroke:#0F172A;stroke-width:0.9375;" width="197.146" x="456.4313" y="1607.5662"/><ellipse cx="484.5563" cy="1637.5662" fill="#EB937F" rx="20.625" ry="20.625" style="stroke:#181818;stroke-width:1.875;"/><path d="M477.9938,1649.7537 L477.9938,1626.492 L491.9391,1626.492 L491.9391,1629.9783 L481.9195,1629.9783 L481.9195,1636.0427 L490.8258,1636.0427 L490.8258,1639.4119 L481.9195,1639.4119 L481.9195,1646.2381 L491.9391,1646.2381 L491.9391,1649.7537 L477.9938,1649.7537 Z " fill="#000000"/><text fill="#000000" font-family="Helvetica" font-size="26.25" lengthAdjust="spacing" textLength="137.146" x="510.8063" y="1647.0959">TreeVariant</text></g><!--class TreeLifeStage--><g class="entity" data-qualified-name="simulation.TreeLifeStage" data-source-line="65" id="ent0013"><rect fill="#FFFFFF" height="60" rx="4.6875" ry="4.6875" style="stroke:#0F172A;stroke-width:0.9375;" width="224.8956" x="720.0563" y="1607.5662"/><rect fill="#E2E8F0" height="60" rx="4.6875" ry="4.6875" style="stroke:#E2E8F0;stroke-width:0.9375;" width="224.8956" x="720.0563" y="1607.5662"/><rect fill="#E2E8F0" height="4.6875" style="stroke:#E2E8F0;stroke-width:0.9375;" width="224.8956" x="720.0563" y="1662.8787"/><rect fill="none" height="60" rx="4.6875" ry="4.6875" style="stroke:#0F172A;stroke-width:0.9375;" width="224.8956" x="720.0563" y="1607.5662"/><ellipse cx="748.1813" cy="1637.5662" fill="#EB937F" rx="20.625" ry="20.625" style="stroke:#181818;stroke-width:1.875;"/><path d="M741.6188,1649.7537 L741.6188,1626.492 L755.5641,1626.492 L755.5641,1629.9783 L745.5445,1629.9783 L745.5445,1636.0427 L754.4508,1636.0427 L754.4508,1639.4119 L745.5445,1639.4119 L745.5445,1646.2381 L755.5641,1646.2381 L755.5641,1649.7537 L741.6188,1649.7537 Z " fill="#000000"/><text fill="#000000" font-family="Helvetica" font-size="26.25" lengthAdjust="spacing" textLength="164.8956" x="774.4313" y="1647.0959">TreeLifeStage</text></g><!--class SaveLoad--><g class="entity" data-qualified-name="storage.SaveLoad" data-source-line="69" id="ent0015"><rect fill="#FFFFFF" height="60" rx="4.6875" ry="4.6875" style="stroke:#0F172A;stroke-width:0.9375;" width="178.2275" x="1932.1313" y="660.2599"/><rect fill="#E2E8F0" height="60" rx="4.6875" ry="4.6875" style="stroke:#E2E8F0;stroke-width:0.9375;" width="178.2275" x="1932.1313" y="660.2599"/><rect fill="#E2E8F0" height="4.6875" style="stroke:#E2E8F0;stroke-width:0.9375;" width="178.2275" x="1932.1313" y="715.5724"/><rect fill="none" height="60" rx="4.6875" ry="4.6875" style="stroke:#0F172A;stroke-width:0.9375;" width="178.2275" x="1932.1313" y="660.2599"/><ellipse cx="1960.2563" cy="690.2599" fill="#B4A7E5" rx="20.625" ry="20.625" style="stroke:#181818;stroke-width:1.875;"/><path d="M1952.8148,702.4474 L1952.8148,698.8439 L1957.5023,698.8439 L1957.5023,682.7892 L1952.8148,682.7892 L1952.8148,679.1857 L1966.2035,679.1857 L1966.2035,682.7892 L1961.516,682.7892 L1961.516,698.8439 L1966.2035,698.8439 L1966.2035,702.4474 L1952.8148,702.4474 Z " fill="#000000"/><text fill="#000000" font-family="Helvetica" font-size="26.25" font-style="italic" lengthAdjust="spacing" textLength="118.2275" x="1986.5063" y="699.7897">SaveLoad</text></g><!--class SimulationStorage--><g class="entity" data-qualified-name="storage.SimulationStorage" data-source-line="70" id="ent0016"><rect fill="#FFFFFF" height="195.7397" rx="4.6875" ry="4.6875" style="stroke:#0F172A;stroke-width:0.9375;" width="326.7206" x="1974.1313" y="208.6849"/><rect fill="#E2E8F0" height="60" rx="4.6875" ry="4.6875" style="stroke:#E2E8F0;stroke-width:0.9375;" width="326.7206" x="1974.1313" y="208.6849"/><rect fill="#E2E8F0" height="4.6875" style="stroke:#E2E8F0;stroke-width:0.9375;" width="326.7206" x="1974.1313" y="263.9974"/><rect fill="none" height="195.7397" rx="4.6875" ry="4.6875" style="stroke:#0F172A;stroke-width:0.9375;" width="326.7206" x="1974.1313" y="208.6849"/><ellipse cx="2025.756" cy="238.6849" fill="#ADD1B2" rx="20.625" ry="20.625" style="stroke:#181818;stroke-width:1.875;"/><path d="M2026.1955,251.1947 Q2023.9396,251.1947 2022.2697,250.3451 Q2020.6291,249.4955 2019.7208,247.972 Q2018.8126,246.4193 2018.8126,244.3099 L2018.8126,234.1732 Q2018.8126,232.0638 2019.7208,230.5404 Q2020.6291,228.9877 2022.2697,228.1381 Q2023.9396,227.2885 2026.1955,227.2885 Q2028.422,227.2885 2030.0626,228.1381 Q2031.7326,228.9877 2032.6701,230.5404 Q2033.6076,232.0638 2033.6076,234.1732 L2029.5646,234.1732 Q2029.5646,232.5326 2028.6857,231.683 Q2027.8361,230.8041 2026.1955,230.8041 Q2024.5841,230.8041 2023.6759,231.683 Q2022.797,232.5326 2022.797,234.1732 L2022.797,244.3099 Q2022.797,245.9213 2023.6759,246.8002 Q2024.5841,247.6791 2026.1955,247.6791 Q2027.8361,247.6791 2028.6857,246.8002 Q2029.5646,245.9213 2029.5646,244.3099 L2033.6076,244.3099 Q2033.6076,246.4193 2032.6701,247.972 Q2031.7326,249.4955 2030.0626,250.3451 Q2028.422,251.1947 2026.1955,251.1947 Z " fill="#000000"/><text fill="#000000" font-family="Helvetica" font-size="26.25" lengthAdjust="spacing" textLength="214.4989" x="2057.2282" y="248.2147">SimulationStorage</text><line style="stroke:#0F172A;stroke-width:0.9375;" x1="1976.0063" x2="2298.9768" y1="268.6849" y2="268.6849"/><text fill="#000000" font-family="Helvetica" font-size="26.25" lengthAdjust="spacing" textLength="296.9275" x="1985.3813" y="300.8071">+save(name, state) : long</text><text fill="#000000" font-family="Helvetica" font-size="26.25" lengthAdjust="spacing" textLength="304.2206" x="1985.3813" y="330.9921">+load(id) : WorldSnapshot</text><text fill="#000000" font-family="Helvetica" font-size="26.25" lengthAdjust="spacing" textLength="200.5792" x="1985.3813" y="361.177">+listSaves() : List</text><text fill="#000000" font-family="Helvetica" font-size="26.25" lengthAdjust="spacing" textLength="159.7815" x="1985.3813" y="391.3619">+delete(save)</text></g><!--class SimulationDatabase--><g class="entity" data-qualified-name="storage.SimulationDatabase" data-source-line="76" id="ent0017"><rect fill="#FFFFFF" height="74.8077" rx="4.6875" ry="4.6875" style="stroke:#0F172A;stroke-width:0.9375;" width="294.9298" x="2676.2813" y="269.1537"/><rect fill="#E2E8F0" height="74.8077" rx="4.6875" ry="4.6875" style="stroke:#E2E8F0;stroke-width:0.9375;" width="294.9298" x="2676.2813" y="269.1537"/><rect fill="#E2E8F0" height="4.6875" style="stroke:#E2E8F0;stroke-width:0.9375;" width="294.9298" x="2676.2813" y="339.2739"/><rect fill="none" height="74.8077" rx="4.6875" ry="4.6875" style="stroke:#0F172A;stroke-width:0.9375;" width="294.9298" x="2676.2813" y="269.1537"/><ellipse cx="2704.4063" cy="306.5576" fill="#ADD1B2" rx="20.625" ry="20.625" style="stroke:#181818;stroke-width:1.875;"/><path d="M2704.8457,319.0673 Q2702.5898,319.0673 2700.9199,318.2177 Q2699.2793,317.3681 2698.3711,315.8447 Q2697.4629,314.2919 2697.4629,312.1826 L2697.4629,302.0458 Q2697.4629,299.9365 2698.3711,298.413 Q2699.2793,296.8603 2700.9199,296.0107 Q2702.5898,295.1611 2704.8457,295.1611 Q2707.0723,295.1611 2708.7129,296.0107 Q2710.3828,296.8603 2711.3203,298.413 Q2712.2578,299.9365 2712.2578,302.0458 L2708.2148,302.0458 Q2708.2148,300.4052 2707.3359,299.5556 Q2706.4863,298.6767 2704.8457,298.6767 Q2703.2344,298.6767 2702.3262,299.5556 Q2701.4473,300.4052 2701.4473,302.0458 L2701.4473,312.1826 Q2701.4473,313.7939 2702.3262,314.6728 Q2703.2344,315.5517 2704.8457,315.5517 Q2706.4863,315.5517 2707.3359,314.6728 Q2708.2148,313.7939 2708.2148,312.1826 L2712.2578,312.1826 Q2712.2578,314.2919 2711.3203,315.8447 Q2710.3828,317.3681 2708.7129,318.2177 Q2707.0723,319.0673 2704.8457,319.0673 Z " fill="#000000"/><text fill="#000000" font-family="Helvetica" font-size="22.5" font-style="italic" lengthAdjust="spacing" textLength="181.3623" x="2757.44" y="299.6334">&#171;RoomDatabase&#187;</text><text fill="#000000" font-family="Helvetica" font-size="26.25" lengthAdjust="spacing" textLength="234.9298" x="2730.6563" y="329.0237">SimulationDatabase</text></g><!--class SimulationSaveDao--><g class="entity" data-qualified-name="storage.SimulationSaveDao" data-source-line="77" id="ent0018"><rect fill="#FFFFFF" height="74.8077" rx="4.6875" ry="4.6875" style="stroke:#0F172A;stroke-width:0.9375;" width="290.5463" x="2682.225" y="652.8537"/><rect fill="#E2E8F0" height="74.8077" rx="4.6875" ry="4.6875" style="stroke:#E2E8F0;stroke-width:0.9375;" width="290.5463" x="2682.225" y="652.8537"/><rect fill="#E2E8F0" height="4.6875" style="stroke:#E2E8F0;stroke-width:0.9375;" width="290.5463" x="2682.225" y="722.9739"/><rect fill="none" height="74.8077" rx="4.6875" ry="4.6875" style="stroke:#0F172A;stroke-width:0.9375;" width="290.5463" x="2682.225" y="652.8537"/><ellipse cx="2710.35" cy="690.2576" fill="#ADD1B2" rx="20.625" ry="20.625" style="stroke:#181818;stroke-width:1.875;"/><path d="M2710.7895,702.7673 Q2708.5336,702.7673 2706.8637,701.9177 Q2705.223,701.0681 2704.3148,699.5447 Q2703.4066,697.9919 2703.4066,695.8826 L2703.4066,685.7458 Q2703.4066,683.6365 2704.3148,682.113 Q2705.223,680.5603 2706.8637,679.7107 Q2708.5336,678.8611 2710.7895,678.8611 Q2713.016,678.8611 2714.6566,679.7107 Q2716.3266,680.5603 2717.2641,682.113 Q2718.2016,683.6365 2718.2016,685.7458 L2714.1586,685.7458 Q2714.1586,684.1052 2713.2797,683.2556 Q2712.4301,682.3767 2710.7895,682.3767 Q2709.1781,682.3767 2708.2699,683.2556 Q2707.391,684.1052 2707.391,685.7458 L2707.391,695.8826 Q2707.391,697.4939 2708.2699,698.3728 Q2709.1781,699.2517 2710.7895,699.2517 Q2712.4301,699.2517 2713.2797,698.3728 Q2714.1586,697.4939 2714.1586,695.8826 L2718.2016,695.8826 Q2718.2016,697.9919 2717.2641,699.5447 Q2716.3266,701.0681 2714.6566,701.9177 Q2713.016,702.7673 2710.7895,702.7673 Z " fill="#000000"/><text fill="#000000" font-family="Helvetica" font-size="22.5" font-style="italic" lengthAdjust="spacing" textLength="73.7842" x="2814.981" y="683.3334">&#171;DAO&#187;</text><text fill="#000000" font-family="Helvetica" font-size="26.25" lengthAdjust="spacing" textLength="230.5463" x="2736.6" y="712.7237">SimulationSaveDao</text></g><!--class SimulationSaveEntity--><g class="entity" data-qualified-name="storage.SimulationSaveEntity" data-source-line="78" id="ent0019"><rect fill="#FFFFFF" height="74.8077" rx="4.6875" ry="4.6875" style="stroke:#0F172A;stroke-width:0.9375;" width="308.042" x="2343.4875" y="976.1787"/><rect fill="#E2E8F0" height="74.8077" rx="4.6875" ry="4.6875" style="stroke:#E2E8F0;stroke-width:0.9375;" width="308.042" x="2343.4875" y="976.1787"/><rect fill="#E2E8F0" height="4.6875" style="stroke:#E2E8F0;stroke-width:0.9375;" width="308.042" x="2343.4875" y="1046.2989"/><rect fill="none" height="74.8077" rx="4.6875" ry="4.6875" style="stroke:#0F172A;stroke-width:0.9375;" width="308.042" x="2343.4875" y="976.1787"/><ellipse cx="2371.6125" cy="1013.5826" fill="#ADD1B2" rx="20.625" ry="20.625" style="stroke:#181818;stroke-width:1.875;"/><path d="M2372.052,1026.0923 Q2369.7961,1026.0923 2368.1262,1025.2427 Q2366.4855,1024.3931 2365.5773,1022.8697 Q2364.6691,1021.3169 2364.6691,1019.2076 L2364.6691,1009.0708 Q2364.6691,1006.9615 2365.5773,1005.438 Q2366.4855,1003.8853 2368.1262,1003.0357 Q2369.7961,1002.1861 2372.052,1002.1861 Q2374.2785,1002.1861 2375.9191,1003.0357 Q2377.5891,1003.8853 2378.5266,1005.438 Q2379.4641,1006.9615 2379.4641,1009.0708 L2375.4211,1009.0708 Q2375.4211,1007.4302 2374.5422,1006.5806 Q2373.6926,1005.7017 2372.052,1005.7017 Q2370.4406,1005.7017 2369.5324,1006.5806 Q2368.6535,1007.4302 2368.6535,1009.0708 L2368.6535,1019.2076 Q2368.6535,1020.8189 2369.5324,1021.6978 Q2370.4406,1022.5767 2372.052,1022.5767 Q2373.6926,1022.5767 2374.5422,1021.6978 Q2375.4211,1020.8189 2375.4211,1019.2076 L2379.4641,1019.2076 Q2379.4641,1021.3169 2378.5266,1022.8697 Q2377.5891,1024.3931 2375.9191,1025.2427 Q2374.2785,1026.0923 2372.052,1026.0923 Z " fill="#000000"/><text fill="#000000" font-family="Helvetica" font-size="22.5" font-style="italic" lengthAdjust="spacing" textLength="147.5684" x="2448.0993" y="1006.6584">&#171;Room Entity&#187;</text><text fill="#000000" font-family="Helvetica" font-size="26.25" lengthAdjust="spacing" textLength="248.042" x="2397.8625" y="1036.0487">SimulationSaveEntity</text></g><!--class WorldSnapshotJsonCodec--><g class="entity" data-qualified-name="storage.WorldSnapshotJsonCodec" data-source-line="79" id="ent0020"><rect fill="#FFFFFF" height="60" rx="4.6875" ry="4.6875" style="stroke:#0F172A;stroke-width:0.9375;" width="370.7959" x="2246.475" y="660.2599"/><rect fill="#E2E8F0" height="60" rx="4.6875" ry="4.6875" style="stroke:#E2E8F0;stroke-width:0.9375;" width="370.7959" x="2246.475" y="660.2599"/><rect fill="#E2E8F0" height="4.6875" style="stroke:#E2E8F0;stroke-width:0.9375;" width="370.7959" x="2246.475" y="715.5724"/><rect fill="none" height="60" rx="4.6875" ry="4.6875" style="stroke:#0F172A;stroke-width:0.9375;" width="370.7959" x="2246.475" y="660.2599"/><ellipse cx="2274.6" cy="690.2599" fill="#ADD1B2" rx="20.625" ry="20.625" style="stroke:#181818;stroke-width:1.875;"/><path d="M2275.0395,702.7697 Q2272.7836,702.7697 2271.1137,701.9201 Q2269.473,701.0705 2268.5648,699.547 Q2267.6566,697.9943 2267.6566,695.8849 L2267.6566,685.7482 Q2267.6566,683.6388 2268.5648,682.1154 Q2269.473,680.5627 2271.1137,679.7131 Q2272.7836,678.8635 2275.0395,678.8635 Q2277.266,678.8635 2278.9066,679.7131 Q2280.5766,680.5627 2281.5141,682.1154 Q2282.4516,683.6388 2282.4516,685.7482 L2278.4086,685.7482 Q2278.4086,684.1076 2277.5297,683.258 Q2276.6801,682.3791 2275.0395,682.3791 Q2273.4281,682.3791 2272.5199,683.258 Q2271.641,684.1076 2271.641,685.7482 L2271.641,695.8849 Q2271.641,697.4963 2272.5199,698.3752 Q2273.4281,699.2541 2275.0395,699.2541 Q2276.6801,699.2541 2277.5297,698.3752 Q2278.4086,697.4963 2278.4086,695.8849 L2282.4516,695.8849 Q2282.4516,697.9943 2281.5141,699.547 Q2280.5766,701.0705 2278.9066,701.9201 Q2277.266,702.7697 2275.0395,702.7697 Z " fill="#000000"/><text fill="#000000" font-family="Helvetica" font-size="26.25" lengthAdjust="spacing" textLength="310.7959" x="2300.85" y="699.7897">WorldSnapshotJsonCodec</text></g><!--class Entity--><g class="entity" data-qualified-name="model.Entity" data-source-line="83" id="ent0022"><rect fill="#FFFFFF" height="60" rx="4.6875" ry="4.6875" style="stroke:#0F172A;stroke-width:0.9375;" width="125.6506" x="1699.6688" y="983.5849"/><rect fill="#E2E8F0" height="60" rx="4.6875" ry="4.6875" style="stroke:#E2E8F0;stroke-width:0.9375;" width="125.6506" x="1699.6688" y="983.5849"/><rect fill="#E2E8F0" height="4.6875" style="stroke:#E2E8F0;stroke-width:0.9375;" width="125.6506" x="1699.6688" y="1038.8974"/><rect fill="none" height="60" rx="4.6875" ry="4.6875" style="stroke:#0F172A;stroke-width:0.9375;" width="125.6506" x="1699.6688" y="983.5849"/><ellipse cx="1727.7938" cy="1013.5849" fill="#ADD1B2" rx="20.625" ry="20.625" style="stroke:#181818;stroke-width:1.875;"/><path d="M1728.2332,1026.0947 Q1725.9773,1026.0947 1724.3074,1025.2451 Q1722.6668,1024.3955 1721.7586,1022.872 Q1720.8504,1021.3193 1720.8504,1019.2099 L1720.8504,1009.0732 Q1720.8504,1006.9638 1721.7586,1005.4404 Q1722.6668,1003.8877 1724.3074,1003.0381 Q1725.9773,1002.1885 1728.2332,1002.1885 Q1730.4598,1002.1885 1732.1004,1003.0381 Q1733.7703,1003.8877 1734.7078,1005.4404 Q1735.6453,1006.9638 1735.6453,1009.0732 L1731.6023,1009.0732 Q1731.6023,1007.4326 1730.7234,1006.583 Q1729.8738,1005.7041 1728.2332,1005.7041 Q1726.6219,1005.7041 1725.7137,1006.583 Q1724.8348,1007.4326 1724.8348,1009.0732 L1724.8348,1019.2099 Q1724.8348,1020.8213 1725.7137,1021.7002 Q1726.6219,1022.5791 1728.2332,1022.5791 Q1729.8738,1022.5791 1730.7234,1021.7002 Q1731.6023,1020.8213 1731.6023,1019.2099 L1735.6453,1019.2099 Q1735.6453,1021.3193 1734.7078,1022.872 Q1733.7703,1024.3955 1732.1004,1025.2451 Q1730.4598,1026.0947 1728.2332,1026.0947 Z " fill="#000000"/><text fill="#000000" font-family="Helvetica" font-size="26.25" lengthAdjust="spacing" textLength="65.6506" x="1754.0438" y="1023.1147">Entity</text></g><!--reverse link SimulationEngine to Grid--><g class="link" data-entity-1="ent0003" data-entity-2="ent0006" data-link-type="aggregation" data-source-line="86" id="lnk23"><path codeLine="86" d="M861.8388,485.5673 C842.0388,522.7298 831.9,541.7412 813.4125,576.4287" fill="none" id="SimulationEngine-backto-Grid" style="stroke:#475569;stroke-width:1.875;"/><polygon fill="none" points="872.4188,465.7099,860.5097,472.112,861.8388,485.5673,873.7479,479.1653,872.4188,465.7099" style="stroke:#475569;stroke-width:1.875;"/></g><!--link SimulationEngine to TickLogic--><g class="link" data-entity-1="ent0003" data-entity-2="ent0004" data-link-type="dependency" data-source-line="87" id="lnk24"><path codeLine="87" d="M722.25,380.1162 C462.3,459.7662 78.75,577.2912 78.75,577.2912 C78.75,577.2912 78.75,803.2099 78.75,803.2099 C78.75,803.2099 157.6598,890.1147 213.7411,951.8397" fill="none" id="SimulationEngine-to-TickLogic" style="stroke:#475569;stroke-width:1.875;"/><polygon fill="#475569" points="221.3063,960.1662,215.5095,942.633,215.0019,953.2274,204.4075,952.7199,221.3063,960.1662" style="stroke:#475569;stroke-width:1.875;"/></g><!--link SimulationEngine to WorldGenerator--><g class="link" data-entity-1="ent0003" data-entity-2="ent0005" data-link-type="dependency" data-source-line="88" id="lnk25"><path codeLine="88" d="M721.9688,442.9099 C604.8188,510.1662 479.7253,581.9838 393.3065,631.5963" fill="none" id="SimulationEngine-to-WorldGenerator" style="stroke:#475569;stroke-width:1.875;"/><polygon fill="#475569" points="383.55,637.1974,401.9189,635.3,391.6804,632.5298,394.4507,622.2914,383.55,637.1974" style="stroke:#475569;stroke-width:1.875;"/></g><!--link SimulationEngine to WorldSnapshot--><g class="link" data-entity-1="ent0003" data-entity-2="ent0009" data-link-type="dependency" data-source-line="89" id="lnk26"><path codeLine="89" d="M1170.4688,465.7099 C1264.1813,534.5037 1356.8513,602.5446 1415.4451,645.5758" fill="none" id="SimulationEngine-to-WorldSnapshot" style="stroke:#475569;stroke-width:1.875;"/><polygon fill="#475569" points="1424.5125,652.2349,1415.3508,636.2013,1416.9563,646.6857,1406.4719,648.2912,1424.5125,652.2349" style="stroke:#475569;stroke-width:1.875;"/></g><!--link SimulationEngine to ActiveEventZone--><g class="link" data-entity-1="ent0003" data-entity-2="ent0010" data-link-type="dependency" data-source-line="90" id="lnk27"><path codeLine="90" d="M1040.0813,465.7099 C1076.85,534.7099 1111.4963,599.7257 1134.3901,642.6819" fill="none" id="SimulationEngine-to-ActiveEventZone" style="stroke:#475569;stroke-width:1.875;"/><polygon fill="#475569" points="1139.6813,652.6099,1138.3631,634.1904,1135.2719,644.3366,1125.1258,641.2454,1139.6813,652.6099" style="stroke:#475569;stroke-width:1.875;"/></g><!--reverse link Grid to Tile--><g class="link" data-entity-1="ent0006" data-entity-2="ent0007" data-link-type="aggregation" data-source-line="91" id="lnk28"><path codeLine="91" d="M741.9436,826.3179 C738.7748,862.5054 737.2313,879.8787 734.1375,914.8849" fill="none" id="Grid-backto-Tile" style="stroke:#475569;stroke-width:1.875;"/><polygon fill="none" points="743.9063,803.9037,735.4535,814.4566,741.9436,826.3179,750.3963,815.765,743.9063,803.9037" style="stroke:#475569;stroke-width:1.875;"/></g><!--link Grid to Entity--><g class="link" data-entity-1="ent0006" data-entity-2="ent0022" data-link-type="dependency" data-source-line="92" id="lnk29"><path codeLine="92" d="M965.1375,788.4724 C984.7688,797.4162 997.5,803.2099 997.5,803.2099 C997.5,803.2099 1623.75,902.9599 1623.75,902.9599 C1623.75,902.9599 1676.0752,943.9846 1717.194,976.1971" fill="none" id="Grid-to-Entity" style="stroke:#475569;stroke-width:1.875;"/><polygon fill="#475569" points="1726.05,983.1349,1717.3912,966.8242,1718.67,977.3534,1708.1408,978.6322,1726.05,983.1349" style="stroke:#475569;stroke-width:1.875;"/></g><!--link Tile to PlantState--><g class="link" data-entity-1="ent0007" data-entity-2="ent0008" data-link-type="dependency" data-source-line="93" id="lnk30"><path codeLine="93" d="M677.6438,1111.6849 C660.3938,1146.2787 645.6335,1175.8863 627.0523,1213.1426" fill="none" id="Tile-to-PlantState" style="stroke:#475569;stroke-width:1.875;"/><polygon fill="#475569" points="622.0313,1223.2099,636.2744,1211.4562,626.2154,1214.8205,622.8512,1204.7615,622.0313,1223.2099" style="stroke:#475569;stroke-width:1.875;"/></g><!--link PlantState to PlantType--><g class="link" data-entity-1="ent0008" data-entity-2="ent0011" data-link-type="dependency" data-source-line="94" id="lnk31"><path codeLine="94" d="M431.4,1495.3287 C392.4938,1537.4787 360.8367,1571.7687 335.918,1598.8062" fill="none" id="PlantState-to-PlantType" style="stroke:#475569;stroke-width:1.875;"/><polygon fill="#475569" points="328.2938,1607.0787,345.2451,1599.7528,334.6473,1600.185,334.2151,1589.5872,328.2938,1607.0787" style="stroke:#475569;stroke-width:1.875;"/></g><!--link PlantState to TreeVariant--><g class="link" data-entity-1="ent0008" data-entity-2="ent0012" data-link-type="dependency" data-source-line="95" id="lnk32"><path codeLine="95" d="M555,1495.3287 C555,1537.4787 555,1568.7912 555,1595.8287" fill="none" id="PlantState-to-TreeVariant" style="stroke:#475569;stroke-width:1.875;"/><polygon fill="#475569" points="555,1607.0787,562.5,1590.2037,555,1597.7037,547.5,1590.2037,555,1607.0787" style="stroke:#475569;stroke-width:1.875;"/></g><!--link PlantState to TreeLifeStage--><g class="link" data-entity-1="ent0008" data-entity-2="ent0013" data-link-type="dependency" data-source-line="96" id="lnk33"><path codeLine="96" d="M690.5062,1495.3287 C733.1438,1537.4787 768.2138,1572.1302 795.5513,1599.1677" fill="none" id="PlantState-to-TreeLifeStage" style="stroke:#475569;stroke-width:1.875;"/><polygon fill="#475569" points="803.55,1607.0787,796.8259,1589.8798,796.8844,1600.4862,786.278,1600.5448,803.55,1607.0787" style="stroke:#475569;stroke-width:1.875;"/></g><!--link SimulationStorage to SaveLoad--><g class="link" data-entity-1="ent0016" data-entity-2="ent0015" data-link-type="extension" data-source-line="98" id="lnk34"><path codeLine="98" d="M2107.8563,405.2974 C2082.0375,489.7099 2056.1033,574.4754 2039.8095,627.7067" fill="none" id="SimulationStorage-to-SaveLoad" style="stroke:#475569;stroke-width:1.875;stroke-dasharray:13.125,13.125;"/><polygon fill="none" points="2029.9313,659.9787,2050.5668,630.9994,2029.0522,624.4139,2029.9313,659.9787" style="stroke:#475569;stroke-width:1.875;"/></g><!--link SimulationStorage to SimulationSaveDao--><g class="link" data-entity-1="ent0016" data-entity-2="ent0018" data-link-type="dependency" data-source-line="99" id="lnk35"><path codeLine="99" d="M2301.5813,394.6099 C2451.3,473.2474 2649.375,577.2912 2649.375,577.2912 C2649.375,577.2912 2707.6862,613.6555 2759.6237,646.0555" fill="none" id="SimulationStorage-to-SimulationSaveDao" style="stroke:#475569;stroke-width:1.875;"/><polygon fill="#475569" points="2769.1688,652.0099,2758.8209,636.7149,2761.2146,647.0479,2750.8816,649.4416,2769.1688,652.0099" style="stroke:#475569;stroke-width:1.875;"/></g><!--link SimulationStorage to WorldSnapshotJsonCodec--><g class="link" data-entity-1="ent0016" data-entity-2="ent0020" data-link-type="dependency" data-source-line="100" id="lnk36"><path codeLine="100" d="M2212.5375,405.2974 C2277.9563,489.7099 2361.7422,597.8534 2402.9735,651.0847" fill="none" id="SimulationStorage-to-WorldSnapshotJsonCodec" style="stroke:#475569;stroke-width:1.875;"/><polygon fill="#475569" points="2409.8625,659.9787,2405.4583,642.045,2404.1216,652.567,2393.5996,651.2303,2409.8625,659.9787" style="stroke:#475569;stroke-width:1.875;"/></g><!--link SimulationStorage to SimulationSaveEntity--><g class="link" data-entity-1="ent0016" data-entity-2="ent0019" data-link-type="dependency" data-source-line="101" id="lnk37"><path codeLine="101" d="M2152.5,404.9974 C2174.8688,548.9974 2214.375,803.2099 2214.375,803.2099 C2214.375,803.2099 2358.0165,908.9823 2439.129,968.7198" fill="none" id="SimulationStorage-to-SimulationSaveEntity" style="stroke:#475569;stroke-width:1.875;"/><polygon fill="#475569" points="2448.1875,975.3912,2439.0474,959.3452,2440.6388,969.8317,2430.1523,971.4231,2448.1875,975.3912" style="stroke:#475569;stroke-width:1.875;"/></g><!--link SimulationStorage to WorldSnapshot--><g class="link" data-entity-1="ent0016" data-entity-2="ent0009" data-link-type="dependency" data-source-line="102" id="lnk38"><path codeLine="102" d="M1973.4188,402.3537 C1832.5313,482.9974 1646.6572,589.4021 1547.1509,646.3646" fill="none" id="SimulationStorage-to-WorldSnapshot" style="stroke:#475569;stroke-width:1.875;"/><polygon fill="#475569" points="1537.3875,651.9537,1555.7587,650.079,1545.5237,647.2961,1548.3066,637.0611,1537.3875,651.9537" style="stroke:#475569;stroke-width:1.875;"/></g><!--link SimulationDatabase to SimulationSaveDao--><g class="link" data-entity-1="ent0017" data-entity-2="ent0018" data-link-type="dependency" data-source-line="103" id="lnk39"><path codeLine="103" d="M2824.1063,344.8662 C2824.8188,417.4849 2826.3208,568.273 2827.0333,640.8167" fill="none" id="SimulationDatabase-to-SimulationSaveDao" style="stroke:#475569;stroke-width:1.875;"/><polygon fill="#475569" points="2827.1437,652.0662,2834.4777,635.1183,2827.0517,642.6916,2819.4784,635.2657,2827.1437,652.0662" style="stroke:#475569;stroke-width:1.875;"/></g><!--link SimulationSaveDao to SimulationSaveEntity--><g class="link" data-entity-1="ent0018" data-entity-2="ent0019" data-link-type="dependency" data-source-line="104" id="lnk40"><path codeLine="104" d="M2790.2813,728.1724 C2726.9063,789.5412 2606.7938,905.8584 2543.1563,967.4896" fill="none" id="SimulationSaveDao-to-SimulationSaveEntity" style="stroke:#475569;stroke-width:1.875;"/><polygon fill="#475569" points="2535.075,975.3162,2552.4147,968.9639,2541.8094,968.7941,2541.9793,958.1888,2535.075,975.3162" style="stroke:#475569;stroke-width:1.875;"/></g><!--link WorldSnapshotJsonCodec to WorldSnapshot--><g class="link" data-entity-1="ent0020" data-entity-2="ent0009" data-link-type="dependency" data-source-line="105" id="lnk41"><path codeLine="105" d="M2383.1438,659.6037 C2305.6125,610.8537 2162.8125,521.0412 2162.8125,521.0412 C2162.8125,521.0412 1934.0625,521.0412 1934.0625,521.0412 C1934.0625,521.0412 1723.9528,598.2719 1588.1841,648.1844" fill="none" id="WorldSnapshotJsonCodec-to-WorldSnapshot" style="stroke:#475569;stroke-width:1.875;"/><polygon fill="#475569" points="1577.625,652.0662,1596.0515,653.2828,1586.4242,648.8313,1590.8757,639.2041,1577.625,652.0662" style="stroke:#475569;stroke-width:1.875;"/></g><!--link SimulationEngine to SimulationStorage--><!--link TickLogic to PlantState--><!--link Grid to SimulationSaveDao--><?plantuml-src ZLPjRnit3Fv-lq9elpYOOwJ5kdP34S19x7P3i0Pri04Rze4-qMSXEkaWqSxShV-zrBtgNh8bdqpn4VcGVAWBAT8eDYe_Q21bZRYs3iNII767pYjFQ59C_8Co1JZ8nHRIXypPWv7NLbido87nx4934ShlGTf7PJAn0-tZ-x9GujMxY_W4Tt3GjBQ6VeKSnKVKHoILGeHPEcSVguGllt_xviqFFqREQmtUNradqTMGY_Mhjw-N8yY0-ijr-JU4VKJWI2FmwlNgtVfY25uIERKz4FwSMhDHNr34a8A3G8OREd6F7QO49jDnDxGoIAS2HM7rAHW9sKAG5LjBPBatAjpYiIHx9L5WNj19v4XxAtryj5Ee-IIf4ueNlXte2_5F8aGQo4PZNfcCivKk8RvJHf42pVH_jqxBsLbrx0aSDKO11u-DmUDv-CJ2Q6o77cdsg2JjvsAFAjjJWtGgoz3TA0-i9JVxUovEP-8dBj1g1DC3tJcKGDQjMKrVJjFG36bZeF1xoypOMH9kJXZoDMchlMUIjpPJQLCco2C4qfbJSYw06tl4rP6L-uSrwC_wjyl07z2W2vIQ41vHLZsgWh3wfStdOh5O3Ev_O7zpYqdVAurjHS6ekweXnQLHEUWP4r4qhhY4NA5pfwk3tqztfSJSEwnIpCKHd0938vp3t1u7-OPDqwqiU5uEbBaF0cNIdLLNvS82vBmZn6vbgELYQ4D0uT9TQzGZA5EpOrKcx-Vkm0s3CbQT_wxvNRdamS5MQGuI9z-6Feqv4RVcjwedePBEwjotQiUB6fQd0hHsJpj1KxCffJGI5E_VyyhoOtHvsGAMVQNr8MWEUQ-syg1FiJtgI7sDbvq5oZ-gJUUQqUrO3c83Hxor82VMVrFTQ5NDo9dXntSkV6X_q8ss9gkyccFCb9pQjk3bRqJ8vCjrl6MhdWzg99o5q5M_nYnkW60BFZJaixLvOqQTYnXpd1km3BrPVdeIKQcgZbThB0BtwF_YhRcs4jDUBtC-qV6RMGkLCQFNqvwVbsi-zfoVNtRFpxIx_xxy1wPjzoHaeAsaV7O2iVADAQq0gwiejplOqLv6MzTwIYaE7B4a9roTD9EnpXQBVoyxFOxz8SXera_WdXZYSuBMNNX6t6H2fVzBifReatcdcJzhqd_onrwY-Ol_gpBzy5K5IVUnQx4kV8RxiwxqC0ICIlW6?></g></svg>