<?plantuml 1.2026.2?><svg xmlns="http://www.w3.org/2000/svg" xmlns:xlink="http://www.w3.org/1999/xlink" contentStyleType="text/css" data-diagram-type="DESCRIPTION" height="1897.5px" preserveAspectRatio="none" style="width:3112px;height:1897px;" version="1.1" viewBox="0 0 3112 1897" width="3112.5px" zoomAndPan="magnify"><title>UI And Data Flow</title><defs/><g><g class="title" data-source-line="1"><text fill="#000000" font-family="Helvetica" font-size="26.25" font-weight="bold" lengthAdjust="spacing" textLength="215.8319" x="1435.2278" y="43.3722">UI And Data Flow</text></g><!--cluster Navigation--><g class="cluster" data-qualified-name="Navigation" data-source-line="20" id="ent0002"><rect fill="#F8FAFC" height="163.125" rx="4.6875" ry="4.6875" style="stroke:#94A3B8;stroke-width:1.875;" width="237.525" x="13.125" y="1211.9128"/><text fill="#000000" font-family="Helvetica" font-size="26.25" font-weight="bold" lengthAdjust="spacing" textLength="134.1852" x="64.7949" y="1240.285">Navigation</text></g><!--cluster Fragments--><g class="cluster" data-qualified-name="Fragments" data-source-line="24" id="ent0004"><rect fill="#F8FAFC" height="163.125" rx="4.6875" ry="4.6875" style="stroke:#94A3B8;stroke-width:1.875;" width="1713.3188" x="380.025" y="1000.0378"/><text fill="#000000" font-family="Helvetica" font-size="26.25" font-weight="bold" lengthAdjust="spacing" textLength="134.198" x="1169.5854" y="1028.41">Fragments</text></g><!--cluster UI Views / Adapters--><g class="cluster" data-qualified-name="UI Views . Adapters" data-source-line="31" id="ent0009"><rect fill="#F8FAFC" height="296.25" rx="4.6875" ry="4.6875" style="stroke:#94A3B8;stroke-width:1.875;" width="912.3" x="1162.0688" y="1590.6628"/><text fill="#000000" font-family="Helvetica" font-size="26.25" font-weight="bold" lengthAdjust="spacing" textLength="243.62" x="1496.4088" y="1619.035">UI Views / Adapters</text></g><!--cluster Shared Runtime--><g class="cluster" data-qualified-name="Shared Runtime" data-source-line="37" id="ent0013"><rect fill="#F8FAFC" height="562.5" rx="4.6875" ry="4.6875" style="stroke:#94A3B8;stroke-width:1.875;" width="749.1937" x="2352.0938" y="296.9128"/><text fill="#000000" font-family="Helvetica" font-size="26.25" font-weight="bold" lengthAdjust="spacing" textLength="201.2842" x="2626.0485" y="325.285">Shared Runtime</text></g><!--entity MainActivity--><g class="entity" data-qualified-name="Navigation.MainActivity" data-source-line="21" id="ent0003"><rect fill="#FFFFFF" height="67.6849" rx="4.6875" ry="4.6875" style="stroke:#0F172A;stroke-width:0.9375;" width="177.5299" x="43.125" y="1277.4441"/><text fill="#000000" font-family="Helvetica" font-size="26.25" lengthAdjust="spacing" textLength="140.0299" x="61.875" y="1320.8163">MainActivity</text></g><!--entity SimulationFragment--><g class="entity" data-qualified-name="Fragments.SimulationFragment" data-source-line="25" id="ent0005"><rect fill="#FFFFFF" height="67.6849" rx="4.6875" ry="4.6875" style="stroke:#0F172A;stroke-width:0.9375;" width="272.3914" x="410.025" y="1065.5691"/><text fill="#000000" font-family="Helvetica" font-size="26.25" lengthAdjust="spacing" textLength="234.8914" x="428.775" y="1108.9413">SimulationFragment</text></g><!--entity StatsFragment--><g class="entity" data-qualified-name="Fragments.StatsFragment" data-source-line="26" id="ent0006"><rect fill="#FFFFFF" height="67.6849" rx="4.6875" ry="4.6875" style="stroke:#0F172A;stroke-width:0.9375;" width="209.6503" x="864.3" y="1065.5691"/><text fill="#000000" font-family="Helvetica" font-size="26.25" lengthAdjust="spacing" textLength="172.1503" x="883.05" y="1108.9413">StatsFragment</text></g><!--entity SaveLoadFragment--><g class="entity" data-qualified-name="Fragments.SaveLoadFragment" data-source-line="27" id="ent0007"><rect fill="#FFFFFF" height="67.6849" rx="4.6875" ry="4.6875" style="stroke:#0F172A;stroke-width:0.9375;" width="268.0591" x="1211.025" y="1065.5691"/><text fill="#000000" font-family="Helvetica" font-size="26.25" lengthAdjust="spacing" textLength="230.5591" x="1229.775" y="1108.9413">SaveLoadFragment</text></g><!--entity SettingsFragment--><g class="entity" data-qualified-name="Fragments.SettingsFragment" data-source-line="28" id="ent0008"><rect fill="#FFFFFF" height="67.6849" rx="4.6875" ry="4.6875" style="stroke:#0F172A;stroke-width:0.9375;" width="244.6802" x="1818.6563" y="1065.5691"/><text fill="#000000" font-family="Helvetica" font-size="26.25" lengthAdjust="spacing" textLength="207.1802" x="1837.4063" y="1108.9413">SettingsFragment</text></g><!--entity SimulationCanvasView--><g class="entity" data-qualified-name="UI Views . Adapters.SimulationCanvasView" data-source-line="32" id="ent0010"><rect fill="#FFFFFF" height="67.6849" rx="4.6875" ry="4.6875" style="stroke:#0F172A;stroke-width:0.9375;" width="305.9601" x="1192.0688" y="1656.1941"/><text fill="#000000" font-family="Helvetica" font-size="26.25" lengthAdjust="spacing" textLength="268.4601" x="1210.8188" y="1699.5663">SimulationCanvasView</text></g><!--entity TextureLibrary--><g class="entity" data-qualified-name="UI Views . Adapters.TextureLibrary" data-source-line="33" id="ent0011"><rect fill="#FFFFFF" height="67.6849" rx="4.6875" ry="4.6875" style="stroke:#0F172A;stroke-width:0.9375;" width="206.7279" x="1837.6313" y="1789.3191"/><text fill="#000000" font-family="Helvetica" font-size="26.25" lengthAdjust="spacing" textLength="169.2279" x="1856.3813" y="1832.6913">TextureLibrary</text></g><!--entity SaveAdapter--><g class="entity" data-qualified-name="UI Views . Adapters.SaveAdapter" data-source-line="34" id="ent0012"><rect fill="#FFFFFF" height="67.6849" rx="4.6875" ry="4.6875" style="stroke:#0F172A;stroke-width:0.9375;" width="189.2706" x="1846.3688" y="1656.1941"/><text fill="#000000" font-family="Helvetica" font-size="26.25" lengthAdjust="spacing" textLength="151.7706" x="1865.1188" y="1699.5663">SaveAdapter</text></g><!--entity SimulationSession--><g class="entity" data-qualified-name="Shared Runtime.SimulationSession" data-source-line="38" id="ent0014"><rect fill="#FFFFFF" height="67.6849" rx="4.6875" ry="4.6875" style="stroke:#0F172A;stroke-width:0.9375;" width="253.4473" x="2382.0938" y="761.8191"/><text fill="#000000" font-family="Helvetica" font-size="26.25" lengthAdjust="spacing" textLength="215.9473" x="2400.8438" y="805.1913">SimulationSession</text></g><!--entity SimulationEngine--><g class="entity" data-qualified-name="Shared Runtime.SimulationEngine" data-source-line="39" id="ent0015"><rect fill="#FFFFFF" height="67.6849" rx="4.6875" ry="4.6875" style="stroke:#0F172A;stroke-width:0.9375;" width="241.7963" x="2387.9063" y="495.5691"/><text fill="#000000" font-family="Helvetica" font-size="26.25" lengthAdjust="spacing" textLength="204.2963" x="2406.6563" y="538.9413">SimulationEngine</text></g><!--entity StatTracker--><g class="entity" data-qualified-name="Shared Runtime.StatTracker" data-source-line="40" id="ent0016"><rect fill="#FFFFFF" height="67.6849" rx="4.6875" ry="4.6875" style="stroke:#0F172A;stroke-width:0.9375;" width="173.1592" x="2422.2375" y="628.6941"/><text fill="#000000" font-family="Helvetica" font-size="26.25" lengthAdjust="spacing" textLength="135.6592" x="2440.9875" y="672.0663">StatTracker</text></g><!--entity AppSettings--><g class="entity" data-qualified-name="Shared Runtime.AppSettings" data-source-line="41" id="ent0017"><rect fill="#FFFFFF" height="67.6849" rx="4.6875" ry="4.6875" style="stroke:#0F172A;stroke-width:0.9375;" width="179.0552" x="2855.7563" y="362.4441"/><text fill="#000000" font-family="Helvetica" font-size="26.25" lengthAdjust="spacing" textLength="141.5552" x="2874.5063" y="405.8163">AppSettings</text></g><!--entity MusicManager--><g class="entity" data-qualified-name="Shared Runtime.MusicManager" data-source-line="42" id="ent0018"><rect fill="#FFFFFF" height="67.6849" rx="4.6875" ry="4.6875" style="stroke:#0F172A;stroke-width:0.9375;" width="209.6503" x="2403.9938" y="362.4441"/><text fill="#000000" font-family="Helvetica" font-size="26.25" lengthAdjust="spacing" textLength="172.1503" x="2422.7438" y="405.8163">MusicManager</text></g><!--entity SimulationStorage--><g class="entity" data-qualified-name="Shared Runtime.SimulationStorage" data-source-line="43" id="ent0019"><rect fill="#FFFFFF" height="67.6849" rx="4.6875" ry="4.6875" style="stroke:#0F172A;stroke-width:0.9375;" width="251.9989" x="2819.2875" y="761.8191"/><text fill="#000000" font-family="Helvetica" font-size="26.25" lengthAdjust="spacing" textLength="214.4989" x="2838.0375" y="805.1913">SimulationStorage</text></g><!--link MainActivity to SimulationFragment--><g class="link" data-entity-1="ent0003" data-entity-2="ent0005" data-link-type="dependency" data-source-line="46" id="lnk20"><path d="M173.1375,1277.1253 C216.6375,1239.3441 280.65,1183.7878 280.65,1183.7878 C280.65,1183.7878 352.7916,1160.7044 425.6166,1137.3981" fill="none" id="MainActivity-to-SimulationFragment" style="stroke:#475569;stroke-width:1.875;"/><polygon fill="#475569" points="436.3313,1133.9691,417.9732,1131.9695,427.4024,1136.8266,422.5453,1146.2557,436.3313,1133.9691" style="stroke:#475569;stroke-width:1.875;"/><text fill="#000000" font-family="Helvetica" font-size="24.375" lengthAdjust="spacing" textLength="66.4124" x="282.525" y="1158.1451">opens</text></g><!--link MainActivity to StatsFragment--><g class="link" data-entity-1="ent0003" data-entity-2="ent0006" data-link-type="dependency" data-source-line="47" id="lnk21"><path d="M221.3063,1293.0441 C376.2,1260.7378 682.425,1196.9128 682.425,1196.9128 C682.425,1196.9128 773.5192,1165.7386 855.3817,1137.7073" fill="none" id="MainActivity-to-StatsFragment" style="stroke:#475569;stroke-width:1.875;"/><polygon fill="#475569" points="866.025,1134.0628,847.6304,1132.434,857.1556,1137.0999,852.4897,1146.6251,866.025,1134.0628" style="stroke:#475569;stroke-width:1.875;"/><text fill="#000000" font-family="Helvetica" font-size="24.375" lengthAdjust="spacing" textLength="66.4124" x="513.4125" y="1191.6513">opens</text></g><!--link MainActivity to SaveLoadFragment--><g class="link" data-entity-1="ent0003" data-entity-2="ent0007" data-link-type="dependency" data-source-line="48" id="lnk22"><path d="M221.1563,1316.2191 C415.0688,1327.1691 864.3,1352.5378 864.3,1352.5378 C864.3,1352.5378 1073.9438,1352.5378 1073.9438,1352.5378 C1073.9438,1352.5378 1224.3717,1211.1056 1298.1154,1141.7868" fill="none" id="MainActivity-to-SaveLoadFragment" style="stroke:#475569;stroke-width:1.875;"/><polygon fill="#475569" points="1306.3125,1134.0816,1288.8801,1140.1747,1299.4816,1140.5026,1299.1537,1151.1041,1306.3125,1134.0816" style="stroke:#475569;stroke-width:1.875;"/><text fill="#000000" font-family="Helvetica" font-size="24.375" lengthAdjust="spacing" textLength="66.4124" x="740.55" y="1340.2826">opens</text></g><!--link MainActivity to SettingsFragment--><g class="link" data-entity-1="ent0003" data-entity-2="ent0008" data-link-type="dependency" data-source-line="49" id="lnk23"><path d="M199.725,1345.9378 C315.7875,1406.8753 544.35,1526.9128 544.35,1526.9128 C544.35,1526.9128 544.35,1526.9128 1346.925,1526.9128 C1346.925,1526.9128 1741.0592,1242.3844 1882.0404,1140.6282" fill="none" id="MainActivity-to-SettingsFragment" style="stroke:#475569;stroke-width:1.875;"/><polygon fill="#475569" points="1891.1625,1134.0441,1873.09,1137.8388,1883.5608,1139.5308,1881.8687,1150.0016,1891.1625,1134.0441" style="stroke:#475569;stroke-width:1.875;"/><text fill="#000000" font-family="Helvetica" font-size="24.375" lengthAdjust="spacing" textLength="66.4124" x="936.3" y="1521.6513">opens</text></g><!--link SimulationFragment to SimulationCanvasView--><g class="link" data-entity-1="ent0005" data-entity-2="ent0010" data-link-type="dependency" data-source-line="51" id="lnk24"><path d="M636.9375,1134.1378 C661.9313,1143.9066 682.425,1151.9128 682.425,1151.9128 C682.425,1151.9128 1146.2766,1529.6902 1292.1141,1648.4527" fill="none" id="SimulationFragment-to-SimulationCanvasView" style="stroke:#475569;stroke-width:1.875;"/><polygon fill="#475569" points="1300.8375,1655.5566,1292.4883,1639.0852,1293.568,1649.6367,1283.0165,1650.7164,1300.8375,1655.5566" style="stroke:#475569;stroke-width:1.875;"/><text fill="#000000" font-family="Helvetica" font-size="24.375" lengthAdjust="spacing" textLength="147.6663" x="895.9875" y="1302.3701">renders world</text></g><!--link SimulationFragment to SimulationSession--><g class="link" data-entity-1="ent0005" data-entity-2="ent0014" data-link-type="dependency" data-source-line="52" id="lnk25"><path d="M568.8938,1065.0066 C653.4563,925.0191 967.2375,405.6628 967.2375,405.6628 C967.2375,405.6628 967.2375,405.6628 1660.2188,405.6628 C1660.2188,405.6628 2337.0938,730.0378 2337.0938,730.0378 C2337.0938,730.0378 2365.8067,741.1315 2406.5505,756.8815" fill="none" id="SimulationFragment-to-SimulationSession" style="stroke:#475569;stroke-width:1.875;"/><polygon fill="#475569" points="2417.0438,760.9378,2404.008,747.8579,2408.2994,757.5576,2398.5996,761.8489,2417.0438,760.9378" style="stroke:#475569;stroke-width:1.875;"/><text fill="#000000" font-family="Helvetica" font-size="24.375" lengthAdjust="spacing" textLength="153.0936" x="1269.1125" y="400.4013">active session</text></g><!--link SimulationFragment to SimulationEngine--><g class="link" data-entity-1="ent0005" data-entity-2="ent0015" data-link-type="dependency" data-source-line="53" id="lnk26"><path d="M563.3813,1065.3066 C608.5875,964.3003 738.675,673.7878 738.675,673.7878 C738.675,673.7878 967.2375,244.4128 967.2375,244.4128 C967.2375,244.4128 967.2375,244.4128 1942.875,244.4128 C1942.875,244.4128 2337.0938,463.7878 2337.0938,463.7878 C2337.0938,463.7878 2365.8067,474.8815 2406.5505,490.6315" fill="none" id="SimulationFragment-to-SimulationEngine" style="stroke:#475569;stroke-width:1.875;"/><polygon fill="#475569" points="2417.0438,494.6878,2404.008,481.6079,2408.2994,491.3076,2398.5996,495.5989,2417.0438,494.6878" style="stroke:#475569;stroke-width:1.875;"/><text fill="#000000" font-family="Helvetica" font-size="24.375" lengthAdjust="spacing" textLength="208.6157" x="1240.9875" y="239.1513">listens / commands</text></g><!--link SimulationFragment to AppSettings--><g class="link" data-entity-1="ent0005" data-entity-2="ent0017" data-link-type="dependency" data-source-line="54" id="lnk27"><path d="M560.3063,1064.9316 C602.3812,946.1691 738.675,561.2878 738.675,561.2878 C738.675,561.2878 864.3,289.4128 864.3,289.4128 C864.3,289.4128 967.2375,111.2878 967.2375,111.2878 C967.2375,111.2878 967.2375,111.2878 2510.6813,111.2878 C2510.6813,111.2878 2766.73,279.9245 2881.8175,355.7307" fill="none" id="SimulationFragment-to-AppSettings" style="stroke:#475569;stroke-width:1.875;"/><polygon fill="#475569" points="2891.2125,361.9191,2881.2455,346.3732,2883.3833,356.7621,2872.9944,358.8999,2891.2125,361.9191" style="stroke:#475569;stroke-width:1.875;"/><text fill="#000000" font-family="Helvetica" font-size="24.375" lengthAdjust="spacing" textLength="153.0817" x="1582.4063" y="106.0263">reads UI prefs</text></g><!--link StatsFragment to SimulationEngine--><g class="link" data-entity-1="ent0006" data-entity-2="ent0015" data-link-type="dependency" data-source-line="56" id="lnk28"><path d="M1001.6625,1065.1191 C1052.1188,1008.7191 1147.0688,902.5378 1147.0688,902.5378 C1147.0688,902.5378 1554.2813,756.2878 1554.2813,756.2878 C1554.2813,756.2878 2120.4436,621.4568 2376.3061,560.5193" fill="none" id="StatsFragment-to-SimulationEngine" style="stroke:#475569;stroke-width:1.875;"/><polygon fill="#475569" points="2387.25,557.9128,2369.0965,554.5266,2378.1301,560.0849,2372.5718,569.1185,2387.25,557.9128" style="stroke:#475569;stroke-width:1.875;"/><text fill="#000000" font-family="Helvetica" font-size="24.375" lengthAdjust="spacing" textLength="116.5073" x="1600.2188" y="702.0138">subscribes</text></g><!--link StatsFragment to StatTracker--><g class="link" data-entity-1="ent0006" data-entity-2="ent0016" data-link-type="dependency" data-source-line="57" id="lnk29"><path d="M1053.3375,1064.7441 C1214.1187,997.0378 1554.2813,853.7878 1554.2813,853.7878 C1554.2813,853.7878 1818.6563,786.2878 1818.6563,786.2878 C1818.6563,786.2878 2226.6276,712.9414 2410.7713,679.8289" fill="none" id="StatsFragment-to-StatTracker" style="stroke:#475569;stroke-width:1.875;"/><polygon fill="#475569" points="2421.8438,677.8378,2403.9078,673.4428,2412.6167,679.497,2406.5625,688.206,2421.8438,677.8378" style="stroke:#475569;stroke-width:1.875;"/><text fill="#000000" font-family="Helvetica" font-size="24.375" lengthAdjust="spacing" textLength="139.5374" x="1588.9688" y="795.4451">reads history</text></g><!--link SaveLoadFragment to SimulationSession--><g class="link" data-entity-1="ent0007" data-entity-2="ent0014" data-link-type="dependency" data-source-line="59" id="lnk30"><path d="M1386.4125,1064.7816 C1446.5813,1012.0003 1554.2813,917.5378 1554.2813,917.5378 C1554.2813,917.5378 2123.3438,829.4128 2123.3438,829.4128 C2123.3438,829.4128 2258.2558,817.5365 2370.1183,807.6928" fill="none" id="SaveLoadFragment-to-SimulationSession" style="stroke:#475569;stroke-width:1.875;"/><polygon fill="#475569" points="2381.325,806.7066,2363.8575,800.7147,2371.9861,807.5284,2365.1724,815.657,2381.325,806.7066" style="stroke:#475569;stroke-width:1.875;"/><text fill="#000000" font-family="Helvetica" font-size="24.375" lengthAdjust="spacing" textLength="181.5747" x="1851" y="826.6263">load into session</text></g><!--link SaveLoadFragment to SimulationStorage--><g class="link" data-entity-1="ent0007" data-entity-2="ent0019" data-link-type="dependency" data-source-line="60" id="lnk31"><path d="M1479.5813,1080.4378 C1619.1187,1060.4691 1818.6563,1031.9128 1818.6563,1031.9128 C1818.6563,1031.9128 2322.0938,977.5378 2322.0938,977.5378 C2322.0938,977.5378 2634.0221,886.2366 2814.2846,833.4554" fill="none" id="SaveLoadFragment-to-SimulationStorage" style="stroke:#475569;stroke-width:1.875;"/><polygon fill="#475569" points="2825.0813,830.2941,2806.7787,827.8382,2816.084,832.9285,2810.9937,842.2338,2825.0813,830.2941" style="stroke:#475569;stroke-width:1.875;"/><text fill="#000000" font-family="Helvetica" font-size="24.375" lengthAdjust="spacing" textLength="140.8585" x="2152.4063" y="972.2763">CRUD saves</text></g><!--link SaveLoadFragment to SaveAdapter--><g class="link" data-entity-1="ent0007" data-entity-2="ent0012" data-link-type="dependency" data-source-line="61" id="lnk32"><path d="M1381.3313,1133.7253 C1485.9937,1238.1066 1791.8656,1543.1748 1896.6594,1647.6873" fill="none" id="SaveLoadFragment-to-SaveAdapter" style="stroke:#475569;stroke-width:1.875;"/><polygon fill="#475569" points="1904.625,1655.6316,1897.9727,1638.4048,1897.987,1649.0114,1887.3804,1649.0256,1904.625,1655.6316" style="stroke:#475569;stroke-width:1.875;"/><text fill="#000000" font-family="Helvetica" font-size="24.375" lengthAdjust="spacing" textLength="205.8783" x="1556.1563" y="1302.0513">RecyclerView rows</text></g><!--link SettingsFragment to AppSettings--><g class="link" data-entity-1="ent0008" data-entity-2="ent0017" data-link-type="dependency" data-source-line="63" id="lnk33"><path d="M2063.9063,1082.6503 C2174.8875,1067.2941 2322.0938,1046.9128 2322.0938,1046.9128 C2322.0938,1046.9128 2635.5375,893.1628 2635.5375,893.1628 C2635.5375,893.1628 2846.7561,552.2698 2916.3186,439.9948" fill="none" id="SettingsFragment-to-AppSettings" style="stroke:#475569;stroke-width:1.875;"/><polygon fill="#475569" points="2922.2438,430.4316,2906.9806,440.8264,2917.3062,438.401,2919.7316,448.7265,2922.2438,430.4316" style="stroke:#475569;stroke-width:1.875;"/><text fill="#000000" font-family="Helvetica" font-size="24.375" lengthAdjust="spacing" textLength="143.6316" x="2437.5563" y="887.9013">edits defaults</text></g><!--link SettingsFragment to SimulationSession--><g class="link" data-entity-1="ent0008" data-entity-2="ent0014" data-link-type="dependency" data-source-line="64" id="lnk34"><path d="M1980.2625,1065.2316 C2033.1187,1016.8941 2123.3438,934.4128 2123.3438,934.4128 C2123.3438,934.4128 2322.0938,866.9128 2322.0938,866.9128 C2322.0938,866.9128 2359.6164,852.4555 2406.7164,834.2867" fill="none" id="SettingsFragment-to-SimulationSession" style="stroke:#475569;stroke-width:1.875;"/><polygon fill="#475569" points="2417.2125,830.2378,2398.769,829.3137,2408.4657,833.6119,2404.1675,843.3086,2417.2125,830.2378" style="stroke:#475569;stroke-width:1.875;"/><text fill="#000000" font-family="Helvetica" font-size="24.375" lengthAdjust="spacing" textLength="195.1071" x="2125.2188" y="861.6513">regenerates world</text></g><!--link SettingsFragment to SimulationStorage--><g class="link" data-entity-1="ent0008" data-entity-2="ent0019" data-link-type="dependency" data-source-line="65" id="lnk35"><path d="M2063.8313,1132.2066 C2179.7063,1163.6128 2337.0938,1206.2878 2337.0938,1206.2878 C2337.0938,1206.2878 2635.5375,1206.2878 2635.5375,1206.2878 C2635.5375,1206.2878 2836.9514,937.6576 2910.9389,838.9764" fill="none" id="SettingsFragment-to-SimulationStorage" style="stroke:#475569;stroke-width:1.875;"/><polygon fill="#475569" points="2917.6875,829.9753,2901.5639,838.9778,2912.0636,837.4762,2913.5652,847.976,2917.6875,829.9753" style="stroke:#475569;stroke-width:1.875;"/><text fill="#000000" font-family="Helvetica" font-size="24.375" lengthAdjust="spacing" textLength="85.3839" x="2466.6188" y="1201.0263">cleanup</text></g><!--link SimulationCanvasView to TextureLibrary--><g class="link" data-entity-1="ent0010" data-entity-2="ent0011" data-link-type="dependency" data-source-line="67" id="lnk36"><path d="M1498.6687,1724.1441 C1604.9063,1748.0316 1732.98,1776.821 1826.1675,1797.7647" fill="none" id="SimulationCanvasView-to-TextureLibrary" style="stroke:#475569;stroke-width:1.875;"/><polygon fill="#475569" points="1837.1438,1800.2316,1822.324,1789.2138,1827.9969,1798.1759,1819.0349,1803.8487,1837.1438,1800.2316" style="stroke:#475569;stroke-width:1.875;"/><text fill="#000000" font-family="Helvetica" font-size="24.375" lengthAdjust="spacing" textLength="71.792" x="1622.7188" y="1731.6326">sprites</text></g><!--link MusicManager to AppSettings--><g class="link" data-entity-1="ent0018" data-entity-2="ent0017" data-link-type="dependency" data-source-line="68" id="lnk37"><path d="M2614.3312,396.2878 C2687.85,396.2878 2774.1938,396.2878 2843.9625,396.2878" fill="none" id="MusicManager-to-AppSettings" style="stroke:#475569;stroke-width:1.875;"/><polygon fill="#475569" points="2855.2125,396.2878,2838.3375,388.7878,2845.8375,396.2878,2838.3375,403.7878,2855.2125,396.2878" style="stroke:#475569;stroke-width:1.875;"/><text fill="#000000" font-family="Helvetica" font-size="24.375" lengthAdjust="spacing" textLength="69.0903" x="2693.6625" y="391.0263">listens</text></g><!--link SimulationFragment to StatsFragment--><!--link StatsFragment to SaveLoadFragment--><!--link SaveLoadFragment to SettingsFragment--><!--link SimulationCanvasView to SaveAdapter--><!--link SimulationEngine to SimulationStorage--><?plantuml-src XLHDRzim3BtxLmZjkLYxjMkxmm0tdR41RGz9kykm0sCnZb1P4YGvMJ3ilu_AfspBIMuHtoCV-MXwuIMojnyiLvmzWWTMIBtCtBjG1YpKR0hbUsLre_X8IssPjw0SXL3v2ENcmFLIg8hDG3gC8jm8TdLt6R_W31hf2wty2zJ8lgDSe1SbH9ZSMhtS53o_lhsv-NmV1KjT6wr8mCIlIBp5qeEgP5pLa6geS1YmVsD_CyOUjELej_KkYwlRZtbuxRH-Ngn_sRz-eNwM--lyqyDTCijTaHUZLXOf5FgLGMQqN8K_cSIPPrupAwgvPrm4lKAhBDiLF7k1XQWWF9wjgnywUWQXSe8lX5zHcGEbi53LD3VNPKn4tSXrhXsa7VRWNJe22tpImDD1z9vMui2CjT3A_HIuTEm3opaOZ_Q8gX6e1RY0Rm5UyOzlB3w9gGMxwWdRvcsLdSnfTJaRDygB6eShJj2vCEzqz9kgWadT6RrQAaC5u_VScDqSsYOrJfJFe4YL7TBWDKqEW_xOKdPnyJNX6Fl2j47b4jZOlYEmZfT7a1rZzyWi8Qkjzk0aaUY8q0VZs59RoKzpjvuG4O8QP6vhqadcnYyYIk4y2QMbeoDIW-9kY1pvjbOAt8KpQIpEGf-jaGuKSytKbLPCqQNmXttPvv-JEasBdFMi61g4910JYWx5VXOdg9kT8kfe_FR87A7T0EVm1H5wZEMgb6ZNpj5j3ZFeRa5_RCY5Txk3xzACL5iMArHemUD-EKvGzssHI52DYLSnshd0Qb-Du9EnWYfbyIUPQ6QxE-ab_pKNdAFwtVtSkix7kExjxDiGexl7DDrV9__k1FQsimNiZl4_?></g></svg>