<?plantuml 1.2026.1?><svg xmlns="http://www.w3.org/2000/svg" xmlns:xlink="http://www.w3.org/1999/xlink" contentStyleType="text/css" data-diagram-type="CLASS" height="1050px" preserveAspectRatio="none" style="width:1524px;height:1050px;" version="1.1" viewBox="0 0 1524 1050" width="1524.375px" zoomAndPan="magnify"><defs/><g><!--class MainActivity--><g class="entity" data-qualified-name="MainActivity" data-source-line="14" id="ent0002"><rect fill="#F9FAFB" height="90" rx="4.6875" ry="4.6875" style="stroke:#1F2937;stroke-width:0.9375;" width="221.2939" x="13.125" y="480"/><rect fill="#E5E7EB" height="60" rx="4.6875" ry="4.6875" style="stroke:#E5E7EB;stroke-width:0.9375;" width="221.2939" x="13.125" y="480"/><rect fill="#E5E7EB" height="4.6875" style="stroke:#E5E7EB;stroke-width:0.9375;" width="221.2939" x="13.125" y="535.3125"/><rect fill="none" height="90" rx="4.6875" ry="4.6875" style="stroke:#1F2937;stroke-width:0.9375;" width="221.2939" x="13.125" y="480"/><ellipse cx="41.25" cy="510" fill="#ADD1B2" rx="20.625" ry="20.625" style="stroke:#181818;stroke-width:1.875;"/><path d="M46.8164,520.5762 Q45.7324,521.1328 44.5313,521.3965 Q43.3301,521.6895 42.0117,521.6895 Q37.3242,521.6895 34.834,518.6133 Q32.373,515.5078 32.373,509.6484 Q32.373,503.7891 34.834,500.6836 Q37.3242,497.5781 42.0117,497.5781 Q43.3301,497.5781 44.5313,497.8711 Q45.7617,498.1641 46.8164,498.7207 L46.8164,503.8184 Q45.6445,502.7344 44.5313,502.2363 Q43.418,501.709 42.2461,501.709 Q39.7266,501.709 38.4375,503.7305 Q37.1484,505.7227 37.1484,509.6484 Q37.1484,513.5742 38.4375,515.5957 Q39.7266,517.5879 42.2461,517.5879 Q43.418,517.5879 44.5313,517.0898 Q45.6445,516.5625 46.8164,515.4785 L46.8164,520.5762 Z " fill="#000000"/><text fill="#000000" font-family="Helvetica" font-size="26.25" lengthAdjust="spacing" textLength="161.2939" x="67.5" y="519.0875">MainActivity</text><line style="stroke:#1F2937;stroke-width:0.9375;" x1="15" x2="232.5439" y1="540" y2="540"/><line style="stroke:#1F2937;stroke-width:0.9375;" x1="15" x2="232.5439" y1="555" y2="555"/></g><!--class SimulationFragment--><g class="entity" data-qualified-name="SimulationFragment" data-source-line="15" id="ent0003"><rect fill="#F9FAFB" height="90" rx="4.6875" ry="4.6875" style="stroke:#1F2937;stroke-width:0.9375;" width="327.1143" x="346.9125" y="324.375"/><rect fill="#E5E7EB" height="60" rx="4.6875" ry="4.6875" style="stroke:#E5E7EB;stroke-width:0.9375;" width="327.1143" x="346.9125" y="324.375"/><rect fill="#E5E7EB" height="4.6875" style="stroke:#E5E7EB;stroke-width:0.9375;" width="327.1143" x="346.9125" y="379.6875"/><rect fill="none" height="90" rx="4.6875" ry="4.6875" style="stroke:#1F2937;stroke-width:0.9375;" width="327.1143" x="346.9125" y="324.375"/><ellipse cx="375.0375" cy="354.375" fill="#ADD1B2" rx="20.625" ry="20.625" style="stroke:#181818;stroke-width:1.875;"/><path d="M380.6039,364.9512 Q379.5199,365.5078 378.3188,365.7715 Q377.1176,366.0645 375.7992,366.0645 Q371.1117,366.0645 368.6215,362.9883 Q366.1605,359.8828 366.1605,354.0234 Q366.1605,348.1641 368.6215,345.0586 Q371.1117,341.9531 375.7992,341.9531 Q377.1176,341.9531 378.3188,342.2461 Q379.5492,342.5391 380.6039,343.0957 L380.6039,348.1934 Q379.432,347.1094 378.3188,346.6113 Q377.2055,346.084 376.0336,346.084 Q373.5141,346.084 372.225,348.1055 Q370.9359,350.0977 370.9359,354.0234 Q370.9359,357.9492 372.225,359.9707 Q373.5141,361.9629 376.0336,361.9629 Q377.2055,361.9629 378.3188,361.4648 Q379.432,360.9375 380.6039,359.8535 L380.6039,364.9512 Z " fill="#000000"/><text fill="#000000" font-family="Helvetica" font-size="26.25" lengthAdjust="spacing" textLength="267.1143" x="401.2875" y="363.4625">SimulationFragment</text><line style="stroke:#1F2937;stroke-width:0.9375;" x1="348.7875" x2="672.1518" y1="384.375" y2="384.375"/><line style="stroke:#1F2937;stroke-width:0.9375;" x1="348.7875" x2="672.1518" y1="399.375" y2="399.375"/></g><!--class StatsFragment--><g class="entity" data-qualified-name="StatsFragment" data-source-line="16" id="ent0004"><rect fill="#F9FAFB" height="90" rx="4.6875" ry="4.6875" style="stroke:#1F2937;stroke-width:0.9375;" width="254.2987" x="383.325" y="168.75"/><rect fill="#E5E7EB" height="60" rx="4.6875" ry="4.6875" style="stroke:#E5E7EB;stroke-width:0.9375;" width="254.2987" x="383.325" y="168.75"/><rect fill="#E5E7EB" height="4.6875" style="stroke:#E5E7EB;stroke-width:0.9375;" width="254.2987" x="383.325" y="224.0625"/><rect fill="none" height="90" rx="4.6875" ry="4.6875" style="stroke:#1F2937;stroke-width:0.9375;" width="254.2987" x="383.325" y="168.75"/><ellipse cx="411.45" cy="198.75" fill="#ADD1B2" rx="20.625" ry="20.625" style="stroke:#181818;stroke-width:1.875;"/><path d="M417.0164,209.3262 Q415.9324,209.8828 414.7313,210.1465 Q413.5301,210.4395 412.2117,210.4395 Q407.5242,210.4395 405.034,207.3633 Q402.573,204.2578 402.573,198.3984 Q402.573,192.5391 405.034,189.4336 Q407.5242,186.3281 412.2117,186.3281 Q413.5301,186.3281 414.7313,186.6211 Q415.9617,186.9141 417.0164,187.4707 L417.0164,192.5684 Q415.8445,191.4844 414.7313,190.9863 Q413.618,190.459 412.4461,190.459 Q409.9266,190.459 408.6375,192.4805 Q407.3484,194.4727 407.3484,198.3984 Q407.3484,202.3242 408.6375,204.3457 Q409.9266,206.3379 412.4461,206.3379 Q413.618,206.3379 414.7313,205.8398 Q415.8445,205.3125 417.0164,204.2285 L417.0164,209.3262 Z " fill="#000000"/><text fill="#000000" font-family="Helvetica" font-size="26.25" lengthAdjust="spacing" textLength="194.2987" x="437.7" y="207.8375">StatsFragment</text><line style="stroke:#1F2937;stroke-width:0.9375;" x1="385.2" x2="635.7487" y1="228.75" y2="228.75"/><line style="stroke:#1F2937;stroke-width:0.9375;" x1="385.2" x2="635.7487" y1="243.75" y2="243.75"/></g><!--class SaveLoadFragment--><g class="entity" data-qualified-name="SaveLoadFragment" data-source-line="17" id="ent0005"><rect fill="#F9FAFB" height="90" rx="4.6875" ry="4.6875" style="stroke:#1F2937;stroke-width:0.9375;" width="315.1556" x="352.8938" y="791.25"/><rect fill="#E5E7EB" height="60" rx="4.6875" ry="4.6875" style="stroke:#E5E7EB;stroke-width:0.9375;" width="315.1556" x="352.8938" y="791.25"/><rect fill="#E5E7EB" height="4.6875" style="stroke:#E5E7EB;stroke-width:0.9375;" width="315.1556" x="352.8938" y="846.5625"/><rect fill="none" height="90" rx="4.6875" ry="4.6875" style="stroke:#1F2937;stroke-width:0.9375;" width="315.1556" x="352.8938" y="791.25"/><ellipse cx="381.0188" cy="821.25" fill="#ADD1B2" rx="20.625" ry="20.625" style="stroke:#181818;stroke-width:1.875;"/><path d="M386.5852,831.8262 Q385.5012,832.3828 384.3,832.6465 Q383.0988,832.9395 381.7805,832.9395 Q377.093,832.9395 374.6027,829.8633 Q372.1418,826.7578 372.1418,820.8984 Q372.1418,815.0391 374.6027,811.9336 Q377.093,808.8281 381.7805,808.8281 Q383.0988,808.8281 384.3,809.1211 Q385.5305,809.4141 386.5852,809.9707 L386.5852,815.0684 Q385.4133,813.9844 384.3,813.4863 Q383.1867,812.959 382.0148,812.959 Q379.4953,812.959 378.2063,814.9805 Q376.9172,816.9727 376.9172,820.8984 Q376.9172,824.8242 378.2063,826.8457 Q379.4953,828.8379 382.0148,828.8379 Q383.1867,828.8379 384.3,828.3398 Q385.4133,827.8125 386.5852,826.7285 L386.5852,831.8262 Z " fill="#000000"/><text fill="#000000" font-family="Helvetica" font-size="26.25" lengthAdjust="spacing" textLength="255.1556" x="407.2688" y="830.3375">SaveLoadFragment</text><line style="stroke:#1F2937;stroke-width:0.9375;" x1="354.7688" x2="666.1744" y1="851.25" y2="851.25"/><line style="stroke:#1F2937;stroke-width:0.9375;" x1="354.7688" x2="666.1744" y1="866.25" y2="866.25"/></g><!--class SettingsFragment--><g class="entity" data-qualified-name="SettingsFragment" data-source-line="18" id="ent0006"><rect fill="#F9FAFB" height="90" rx="4.6875" ry="4.6875" style="stroke:#1F2937;stroke-width:0.9375;" width="294.9554" x="363" y="635.625"/><rect fill="#E5E7EB" height="60" rx="4.6875" ry="4.6875" style="stroke:#E5E7EB;stroke-width:0.9375;" width="294.9554" x="363" y="635.625"/><rect fill="#E5E7EB" height="4.6875" style="stroke:#E5E7EB;stroke-width:0.9375;" width="294.9554" x="363" y="690.9375"/><rect fill="none" height="90" rx="4.6875" ry="4.6875" style="stroke:#1F2937;stroke-width:0.9375;" width="294.9554" x="363" y="635.625"/><ellipse cx="391.125" cy="665.625" fill="#ADD1B2" rx="20.625" ry="20.625" style="stroke:#181818;stroke-width:1.875;"/><path d="M396.6914,676.2012 Q395.6074,676.7578 394.4063,677.0215 Q393.2051,677.3145 391.8867,677.3145 Q387.1992,677.3145 384.709,674.2383 Q382.248,671.1328 382.248,665.2734 Q382.248,659.4141 384.709,656.3086 Q387.1992,653.2031 391.8867,653.2031 Q393.2051,653.2031 394.4063,653.4961 Q395.6367,653.7891 396.6914,654.3457 L396.6914,659.4434 Q395.5195,658.3594 394.4063,657.8613 Q393.293,657.334 392.1211,657.334 Q389.6016,657.334 388.3125,659.3555 Q387.0234,661.3477 387.0234,665.2734 Q387.0234,669.1992 388.3125,671.2207 Q389.6016,673.2129 392.1211,673.2129 Q393.293,673.2129 394.4063,672.7148 Q395.5195,672.1875 396.6914,671.1035 L396.6914,676.2012 Z " fill="#000000"/><text fill="#000000" font-family="Helvetica" font-size="26.25" lengthAdjust="spacing" textLength="234.9554" x="417.375" y="674.7125">SettingsFragment</text><line style="stroke:#1F2937;stroke-width:0.9375;" x1="364.875" x2="656.0804" y1="695.625" y2="695.625"/><line style="stroke:#1F2937;stroke-width:0.9375;" x1="364.875" x2="656.0804" y1="710.625" y2="710.625"/></g><!--class SimulationCanvasView--><g class="entity" data-qualified-name="SimulationCanvasView" data-source-line="19" id="ent0007"><rect fill="#F9FAFB" height="90" rx="4.6875" ry="4.6875" style="stroke:#1F2937;stroke-width:0.9375;" width="359.0424" x="786.525" y="324.375"/><rect fill="#E5E7EB" height="60" rx="4.6875" ry="4.6875" style="stroke:#E5E7EB;stroke-width:0.9375;" width="359.0424" x="786.525" y="324.375"/><rect fill="#E5E7EB" height="4.6875" style="stroke:#E5E7EB;stroke-width:0.9375;" width="359.0424" x="786.525" y="379.6875"/><rect fill="none" height="90" rx="4.6875" ry="4.6875" style="stroke:#1F2937;stroke-width:0.9375;" width="359.0424" x="786.525" y="324.375"/><ellipse cx="814.65" cy="354.375" fill="#ADD1B2" rx="20.625" ry="20.625" style="stroke:#181818;stroke-width:1.875;"/><path d="M820.2164,364.9512 Q819.1324,365.5078 817.9313,365.7715 Q816.7301,366.0645 815.4117,366.0645 Q810.7242,366.0645 808.234,362.9883 Q805.773,359.8828 805.773,354.0234 Q805.773,348.1641 808.234,345.0586 Q810.7242,341.9531 815.4117,341.9531 Q816.7301,341.9531 817.9313,342.2461 Q819.1617,342.5391 820.2164,343.0957 L820.2164,348.1934 Q819.0445,347.1094 817.9313,346.6113 Q816.818,346.084 815.6461,346.084 Q813.1266,346.084 811.8375,348.1055 Q810.5484,350.0977 810.5484,354.0234 Q810.5484,357.9492 811.8375,359.9707 Q813.1266,361.9629 815.6461,361.9629 Q816.818,361.9629 817.9313,361.4648 Q819.0445,360.9375 820.2164,359.8535 L820.2164,364.9512 Z " fill="#000000"/><text fill="#000000" font-family="Helvetica" font-size="26.25" lengthAdjust="spacing" textLength="299.0424" x="840.9" y="363.4625">SimulationCanvasView</text><line style="stroke:#1F2937;stroke-width:0.9375;" x1="788.4" x2="1143.6924" y1="384.375" y2="384.375"/><line style="stroke:#1F2937;stroke-width:0.9375;" x1="788.4" x2="1143.6924" y1="399.375" y2="399.375"/></g><!--class TextureLibrary--><g class="entity" data-qualified-name="TextureLibrary" data-source-line="20" id="ent0008"><rect fill="#F9FAFB" height="90" rx="4.6875" ry="4.6875" style="stroke:#1F2937;stroke-width:0.9375;" width="253.3759" x="1258.0688" y="324.375"/><rect fill="#E5E7EB" height="60" rx="4.6875" ry="4.6875" style="stroke:#E5E7EB;stroke-width:0.9375;" width="253.3759" x="1258.0688" y="324.375"/><rect fill="#E5E7EB" height="4.6875" style="stroke:#E5E7EB;stroke-width:0.9375;" width="253.3759" x="1258.0688" y="379.6875"/><rect fill="none" height="90" rx="4.6875" ry="4.6875" style="stroke:#1F2937;stroke-width:0.9375;" width="253.3759" x="1258.0688" y="324.375"/><ellipse cx="1286.1938" cy="354.375" fill="#ADD1B2" rx="20.625" ry="20.625" style="stroke:#181818;stroke-width:1.875;"/><path d="M1291.7602,364.9512 Q1290.6762,365.5078 1289.475,365.7715 Q1288.2738,366.0645 1286.9555,366.0645 Q1282.268,366.0645 1279.7777,362.9883 Q1277.3168,359.8828 1277.3168,354.0234 Q1277.3168,348.1641 1279.7777,345.0586 Q1282.268,341.9531 1286.9555,341.9531 Q1288.2738,341.9531 1289.475,342.2461 Q1290.7055,342.5391 1291.7602,343.0957 L1291.7602,348.1934 Q1290.5883,347.1094 1289.475,346.6113 Q1288.3617,346.084 1287.1898,346.084 Q1284.6703,346.084 1283.3813,348.1055 Q1282.0922,350.0977 1282.0922,354.0234 Q1282.0922,357.9492 1283.3813,359.9707 Q1284.6703,361.9629 1287.1898,361.9629 Q1288.3617,361.9629 1289.475,361.4648 Q1290.5883,360.9375 1291.7602,359.8535 L1291.7602,364.9512 Z " fill="#000000"/><text fill="#000000" font-family="Helvetica" font-size="26.25" lengthAdjust="spacing" textLength="193.3759" x="1312.4438" y="363.4625">TextureLibrary</text><line style="stroke:#1F2937;stroke-width:0.9375;" x1="1259.9438" x2="1509.5696" y1="384.375" y2="384.375"/><line style="stroke:#1F2937;stroke-width:0.9375;" x1="1259.9438" x2="1509.5696" y1="399.375" y2="399.375"/></g><!--class SimulationSession--><g class="entity" data-qualified-name="SimulationSession" data-source-line="21" id="ent0009"><rect fill="#F9FAFB" height="90" rx="4.6875" ry="4.6875" style="stroke:#1F2937;stroke-width:0.9375;" width="299.9799" x="816.0563" y="635.625"/><rect fill="#E5E7EB" height="60" rx="4.6875" ry="4.6875" style="stroke:#E5E7EB;stroke-width:0.9375;" width="299.9799" x="816.0563" y="635.625"/><rect fill="#E5E7EB" height="4.6875" style="stroke:#E5E7EB;stroke-width:0.9375;" width="299.9799" x="816.0563" y="690.9375"/><rect fill="none" height="90" rx="4.6875" ry="4.6875" style="stroke:#1F2937;stroke-width:0.9375;" width="299.9799" x="816.0563" y="635.625"/><ellipse cx="844.1813" cy="665.625" fill="#ADD1B2" rx="20.625" ry="20.625" style="stroke:#181818;stroke-width:1.875;"/><path d="M849.7477,676.2012 Q848.6637,676.7578 847.4625,677.0215 Q846.2613,677.3145 844.943,677.3145 Q840.2555,677.3145 837.7652,674.2383 Q835.3043,671.1328 835.3043,665.2734 Q835.3043,659.4141 837.7652,656.3086 Q840.2555,653.2031 844.943,653.2031 Q846.2613,653.2031 847.4625,653.4961 Q848.693,653.7891 849.7477,654.3457 L849.7477,659.4434 Q848.5758,658.3594 847.4625,657.8613 Q846.3492,657.334 845.1773,657.334 Q842.6578,657.334 841.3688,659.3555 Q840.0797,661.3477 840.0797,665.2734 Q840.0797,669.1992 841.3688,671.2207 Q842.6578,673.2129 845.1773,673.2129 Q846.3492,673.2129 847.4625,672.7148 Q848.5758,672.1875 849.7477,671.1035 L849.7477,676.2012 Z " fill="#000000"/><text fill="#000000" font-family="Helvetica" font-size="26.25" lengthAdjust="spacing" textLength="239.9799" x="870.4313" y="674.7125">SimulationSession</text><line style="stroke:#1F2937;stroke-width:0.9375;" x1="817.9313" x2="1114.1611" y1="695.625" y2="695.625"/><line style="stroke:#1F2937;stroke-width:0.9375;" x1="817.9313" x2="1114.1611" y1="710.625" y2="710.625"/></g><!--class SimulationEngine--><g class="entity" data-qualified-name="SimulationEngine" data-source-line="22" id="ent0010"><rect fill="#F9FAFB" height="90" rx="4.6875" ry="4.6875" style="stroke:#1F2937;stroke-width:0.9375;" width="289.79" x="821.1563" y="168.75"/><rect fill="#E5E7EB" height="60" rx="4.6875" ry="4.6875" style="stroke:#E5E7EB;stroke-width:0.9375;" width="289.79" x="821.1563" y="168.75"/><rect fill="#E5E7EB" height="4.6875" style="stroke:#E5E7EB;stroke-width:0.9375;" width="289.79" x="821.1563" y="224.0625"/><rect fill="none" height="90" rx="4.6875" ry="4.6875" style="stroke:#1F2937;stroke-width:0.9375;" width="289.79" x="821.1563" y="168.75"/><ellipse cx="849.2813" cy="198.75" fill="#ADD1B2" rx="20.625" ry="20.625" style="stroke:#181818;stroke-width:1.875;"/><path d="M854.8477,209.3262 Q853.7637,209.8828 852.5625,210.1465 Q851.3613,210.4395 850.043,210.4395 Q845.3555,210.4395 842.8652,207.3633 Q840.4043,204.2578 840.4043,198.3984 Q840.4043,192.5391 842.8652,189.4336 Q845.3555,186.3281 850.043,186.3281 Q851.3613,186.3281 852.5625,186.6211 Q853.793,186.9141 854.8477,187.4707 L854.8477,192.5684 Q853.6758,191.4844 852.5625,190.9863 Q851.4492,190.459 850.2773,190.459 Q847.7578,190.459 846.4688,192.4805 Q845.1797,194.4727 845.1797,198.3984 Q845.1797,202.3242 846.4688,204.3457 Q847.7578,206.3379 850.2773,206.3379 Q851.4492,206.3379 852.5625,205.8398 Q853.6758,205.3125 854.8477,204.2285 L854.8477,209.3262 Z " fill="#000000"/><text fill="#000000" font-family="Helvetica" font-size="26.25" lengthAdjust="spacing" textLength="229.79" x="875.5313" y="207.8375">SimulationEngine</text><line style="stroke:#1F2937;stroke-width:0.9375;" x1="823.0313" x2="1109.0713" y1="228.75" y2="228.75"/><line style="stroke:#1F2937;stroke-width:0.9375;" x1="823.0313" x2="1109.0713" y1="243.75" y2="243.75"/></g><!--class SimulationStorage--><g class="entity" data-qualified-name="SimulationStorage" data-source-line="23" id="ent0011"><rect fill="#F9FAFB" height="90" rx="4.6875" ry="4.6875" style="stroke:#1F2937;stroke-width:0.9375;" width="302.5305" x="814.7813" y="791.25"/><rect fill="#E5E7EB" height="60" rx="4.6875" ry="4.6875" style="stroke:#E5E7EB;stroke-width:0.9375;" width="302.5305" x="814.7813" y="791.25"/><rect fill="#E5E7EB" height="4.6875" style="stroke:#E5E7EB;stroke-width:0.9375;" width="302.5305" x="814.7813" y="846.5625"/><rect fill="none" height="90" rx="4.6875" ry="4.6875" style="stroke:#1F2937;stroke-width:0.9375;" width="302.5305" x="814.7813" y="791.25"/><ellipse cx="842.9063" cy="821.25" fill="#ADD1B2" rx="20.625" ry="20.625" style="stroke:#181818;stroke-width:1.875;"/><path d="M848.4727,831.8262 Q847.3887,832.3828 846.1875,832.6465 Q844.9863,832.9395 843.668,832.9395 Q838.9805,832.9395 836.4902,829.8633 Q834.0293,826.7578 834.0293,820.8984 Q834.0293,815.0391 836.4902,811.9336 Q838.9805,808.8281 843.668,808.8281 Q844.9863,808.8281 846.1875,809.1211 Q847.418,809.4141 848.4727,809.9707 L848.4727,815.0684 Q847.3008,813.9844 846.1875,813.4863 Q845.0742,812.959 843.9023,812.959 Q841.3828,812.959 840.0938,814.9805 Q838.8047,816.9727 838.8047,820.8984 Q838.8047,824.8242 840.0938,826.8457 Q841.3828,828.8379 843.9023,828.8379 Q845.0742,828.8379 846.1875,828.3398 Q847.3008,827.8125 848.4727,826.7285 L848.4727,831.8262 Z " fill="#000000"/><text fill="#000000" font-family="Helvetica" font-size="26.25" lengthAdjust="spacing" textLength="242.5305" x="869.1563" y="830.3375">SimulationStorage</text><line style="stroke:#1F2937;stroke-width:0.9375;" x1="816.6563" x2="1115.4368" y1="851.25" y2="851.25"/><line style="stroke:#1F2937;stroke-width:0.9375;" x1="816.6563" x2="1115.4368" y1="866.25" y2="866.25"/></g><!--class StatTracker--><g class="entity" data-qualified-name="StatTracker" data-source-line="24" id="ent0012"><rect fill="#F9FAFB" height="90" rx="4.6875" ry="4.6875" style="stroke:#1F2937;stroke-width:0.9375;" width="212.8217" x="859.65" y="13.125"/><rect fill="#E5E7EB" height="60" rx="4.6875" ry="4.6875" style="stroke:#E5E7EB;stroke-width:0.9375;" width="212.8217" x="859.65" y="13.125"/><rect fill="#E5E7EB" height="4.6875" style="stroke:#E5E7EB;stroke-width:0.9375;" width="212.8217" x="859.65" y="68.4375"/><rect fill="none" height="90" rx="4.6875" ry="4.6875" style="stroke:#1F2937;stroke-width:0.9375;" width="212.8217" x="859.65" y="13.125"/><ellipse cx="887.775" cy="43.125" fill="#ADD1B2" rx="20.625" ry="20.625" style="stroke:#181818;stroke-width:1.875;"/><path d="M893.3414,53.7012 Q892.2574,54.2578 891.0563,54.5215 Q889.8551,54.8145 888.5367,54.8145 Q883.8492,54.8145 881.359,51.7383 Q878.898,48.6328 878.898,42.7734 Q878.898,36.9141 881.359,33.8086 Q883.8492,30.7031 888.5367,30.7031 Q889.8551,30.7031 891.0563,30.9961 Q892.2867,31.2891 893.3414,31.8457 L893.3414,36.9434 Q892.1695,35.8594 891.0563,35.3613 Q889.943,34.834 888.7711,34.834 Q886.2516,34.834 884.9625,36.8555 Q883.6734,38.8477 883.6734,42.7734 Q883.6734,46.6992 884.9625,48.7207 Q886.2516,50.7129 888.7711,50.7129 Q889.943,50.7129 891.0563,50.2148 Q892.1695,49.6875 893.3414,48.6035 L893.3414,53.7012 Z " fill="#000000"/><text fill="#000000" font-family="Helvetica" font-size="26.25" lengthAdjust="spacing" textLength="152.8217" x="914.025" y="52.2125">StatTracker</text><line style="stroke:#1F2937;stroke-width:0.9375;" x1="861.525" x2="1070.5967" y1="73.125" y2="73.125"/><line style="stroke:#1F2937;stroke-width:0.9375;" x1="861.525" x2="1070.5967" y1="88.125" y2="88.125"/></g><!--class AppSettings--><g class="entity" data-qualified-name="AppSettings" data-source-line="25" id="ent0013"><rect fill="#F9FAFB" height="90" rx="4.6875" ry="4.6875" style="stroke:#1F2937;stroke-width:0.9375;" width="218.9484" x="856.575" y="480"/><rect fill="#E5E7EB" height="60" rx="4.6875" ry="4.6875" style="stroke:#E5E7EB;stroke-width:0.9375;" width="218.9484" x="856.575" y="480"/><rect fill="#E5E7EB" height="4.6875" style="stroke:#E5E7EB;stroke-width:0.9375;" width="218.9484" x="856.575" y="535.3125"/><rect fill="none" height="90" rx="4.6875" ry="4.6875" style="stroke:#1F2937;stroke-width:0.9375;" width="218.9484" x="856.575" y="480"/><ellipse cx="884.7" cy="510" fill="#ADD1B2" rx="20.625" ry="20.625" style="stroke:#181818;stroke-width:1.875;"/><path d="M890.2664,520.5762 Q889.1824,521.1328 887.9812,521.3965 Q886.7801,521.6895 885.4617,521.6895 Q880.7742,521.6895 878.284,518.6133 Q875.823,515.5078 875.823,509.6484 Q875.823,503.7891 878.284,500.6836 Q880.7742,497.5781 885.4617,497.5781 Q886.7801,497.5781 887.9812,497.8711 Q889.2117,498.1641 890.2664,498.7207 L890.2664,503.8184 Q889.0945,502.7344 887.9812,502.2363 Q886.868,501.709 885.6961,501.709 Q883.1766,501.709 881.8875,503.7305 Q880.5984,505.7227 880.5984,509.6484 Q880.5984,513.5742 881.8875,515.5957 Q883.1766,517.5879 885.6961,517.5879 Q886.868,517.5879 887.9812,517.0898 Q889.0945,516.5625 890.2664,515.4785 L890.2664,520.5762 Z " fill="#000000"/><text fill="#000000" font-family="Helvetica" font-size="26.25" lengthAdjust="spacing" textLength="158.9484" x="910.95" y="519.0875">AppSettings</text><line style="stroke:#1F2937;stroke-width:0.9375;" x1="858.45" x2="1073.6484" y1="540" y2="540"/><line style="stroke:#1F2937;stroke-width:0.9375;" x1="858.45" x2="1073.6484" y1="555" y2="555"/></g><!--class MusicManager--><g class="entity" data-qualified-name="MusicManager" data-source-line="26" id="ent0014"><rect fill="#F9FAFB" height="90" rx="4.6875" ry="4.6875" style="stroke:#1F2937;stroke-width:0.9375;" width="249.7485" x="385.5938" y="480"/><rect fill="#E5E7EB" height="60" rx="4.6875" ry="4.6875" style="stroke:#E5E7EB;stroke-width:0.9375;" width="249.7485" x="385.5938" y="480"/><rect fill="#E5E7EB" height="4.6875" style="stroke:#E5E7EB;stroke-width:0.9375;" width="249.7485" x="385.5938" y="535.3125"/><rect fill="none" height="90" rx="4.6875" ry="4.6875" style="stroke:#1F2937;stroke-width:0.9375;" width="249.7485" x="385.5938" y="480"/><ellipse cx="413.7188" cy="510" fill="#ADD1B2" rx="20.625" ry="20.625" style="stroke:#181818;stroke-width:1.875;"/><path d="M419.2852,520.5762 Q418.2012,521.1328 417,521.3965 Q415.7988,521.6895 414.4805,521.6895 Q409.793,521.6895 407.3027,518.6133 Q404.8418,515.5078 404.8418,509.6484 Q404.8418,503.7891 407.3027,500.6836 Q409.793,497.5781 414.4805,497.5781 Q415.7988,497.5781 417,497.8711 Q418.2305,498.1641 419.2852,498.7207 L419.2852,503.8184 Q418.1133,502.7344 417,502.2363 Q415.8867,501.709 414.7148,501.709 Q412.1953,501.709 410.9063,503.7305 Q409.6172,505.7227 409.6172,509.6484 Q409.6172,513.5742 410.9063,515.5957 Q412.1953,517.5879 414.7148,517.5879 Q415.8867,517.5879 417,517.0898 Q418.1133,516.5625 419.2852,515.4785 L419.2852,520.5762 Z " fill="#000000"/><text fill="#000000" font-family="Helvetica" font-size="26.25" lengthAdjust="spacing" textLength="189.7485" x="439.9688" y="519.0875">MusicManager</text><line style="stroke:#1F2937;stroke-width:0.9375;" x1="387.4688" x2="633.4673" y1="540" y2="540"/><line style="stroke:#1F2937;stroke-width:0.9375;" x1="387.4688" x2="633.4673" y1="555" y2="555"/></g><!--class SaveAdapter--><g class="entity" data-qualified-name="SaveAdapter" data-source-line="27" id="ent0015"><rect fill="#F9FAFB" height="90" rx="4.6875" ry="4.6875" style="stroke:#1F2937;stroke-width:0.9375;" width="229.0356" x="851.5313" y="946.875"/><rect fill="#E5E7EB" height="60" rx="4.6875" ry="4.6875" style="stroke:#E5E7EB;stroke-width:0.9375;" width="229.0356" x="851.5313" y="946.875"/><rect fill="#E5E7EB" height="4.6875" style="stroke:#E5E7EB;stroke-width:0.9375;" width="229.0356" x="851.5313" y="1002.1875"/><rect fill="none" height="90" rx="4.6875" ry="4.6875" style="stroke:#1F2937;stroke-width:0.9375;" width="229.0356" x="851.5313" y="946.875"/><ellipse cx="879.6563" cy="976.875" fill="#ADD1B2" rx="20.625" ry="20.625" style="stroke:#181818;stroke-width:1.875;"/><path d="M885.2227,987.4512 Q884.1387,988.0078 882.9375,988.2715 Q881.7363,988.5645 880.418,988.5645 Q875.7305,988.5645 873.2402,985.4883 Q870.7793,982.3828 870.7793,976.5234 Q870.7793,970.6641 873.2402,967.5586 Q875.7305,964.4531 880.418,964.4531 Q881.7363,964.4531 882.9375,964.7461 Q884.168,965.0391 885.2227,965.5957 L885.2227,970.6934 Q884.0508,969.6094 882.9375,969.1113 Q881.8242,968.584 880.6523,968.584 Q878.1328,968.584 876.8438,970.6055 Q875.5547,972.5977 875.5547,976.5234 Q875.5547,980.4492 876.8438,982.4707 Q878.1328,984.4629 880.6523,984.4629 Q881.8242,984.4629 882.9375,983.9648 Q884.0508,983.4375 885.2227,982.3535 L885.2227,987.4512 Z " fill="#000000"/><text fill="#000000" font-family="Helvetica" font-size="26.25" lengthAdjust="spacing" textLength="169.0356" x="905.9063" y="985.9625">SaveAdapter</text><line style="stroke:#1F2937;stroke-width:0.9375;" x1="853.4063" x2="1078.6919" y1="1006.875" y2="1006.875"/><line style="stroke:#1F2937;stroke-width:0.9375;" x1="853.4063" x2="1078.6919" y1="1021.875" y2="1021.875"/></g><!--link MainActivity to SimulationFragment--><g class="link" data-entity-1="ent0002" data-entity-2="ent0003" data-link-type="dependency" data-source-line="29" id="lnk16"><path codeLine="29" d="M234.9563,510 C303.7125,510 378.9563,510 378.9563,510 C378.9563,510 378.9563,467.0062 378.9563,425.8875" fill="none" id="MainActivity-to-SimulationFragment" style="stroke:#4B5563;stroke-width:1.875;"/><polygon fill="#4B5563" points="378.9563,414.6375,371.4563,431.5125,378.9563,424.0125,386.4563,431.5125,378.9563,414.6375" style="stroke:#4B5563;stroke-width:1.875;"/></g><!--link MainActivity to StatsFragment--><g class="link" data-entity-1="ent0002" data-entity-2="ent0004" data-link-type="dependency" data-source-line="30" id="lnk17"><path codeLine="30" d="M123.9563,479.0812 C123.9563,392.4938 123.9563,213.75 123.9563,213.75 C123.9563,213.75 259.0125,213.75 371.5875,213.75" fill="none" id="MainActivity-to-StatsFragment" style="stroke:#4B5563;stroke-width:1.875;"/><polygon fill="#4B5563" points="382.8375,213.75,365.9625,206.25,373.4625,213.75,365.9625,221.25,382.8375,213.75" style="stroke:#4B5563;stroke-width:1.875;"/></g><!--link MainActivity to SaveLoadFragment--><g class="link" data-entity-1="ent0002" data-entity-2="ent0005" data-link-type="dependency" data-source-line="31" id="lnk18"><path codeLine="31" d="M123.9563,570.9188 C123.9563,657.5062 123.9563,836.25 123.9563,836.25 C123.9563,836.25 234.15,836.25 340.8938,836.25" fill="none" id="MainActivity-to-SaveLoadFragment" style="stroke:#4B5563;stroke-width:1.875;"/><polygon fill="#4B5563" points="352.1438,836.25,335.2688,828.75,342.7688,836.25,335.2688,843.75,352.1438,836.25" style="stroke:#4B5563;stroke-width:1.875;"/></g><!--link MainActivity to SettingsFragment--><g class="link" data-entity-1="ent0002" data-entity-2="ent0006" data-link-type="dependency" data-source-line="32" id="lnk19"><path codeLine="32" d="M235.2938,540 C301.0313,540 371.4563,540 371.4563,540 C371.4563,540 371.4563,582.9938 371.4563,624.1125" fill="none" id="MainActivity-to-SettingsFragment" style="stroke:#4B5563;stroke-width:1.875;"/><polygon fill="#4B5563" points="371.4563,635.3625,378.9563,618.4875,371.4563,625.9875,363.9563,618.4875,371.4563,635.3625" style="stroke:#4B5563;stroke-width:1.875;"/></g><!--link SimulationFragment to SimulationCanvasView--><g class="link" data-entity-1="ent0003" data-entity-2="ent0007" data-link-type="dependency" data-source-line="34" id="lnk20"><path codeLine="34" d="M674.9438,369.375 C710.8875,369.375 737.85,369.375 774.375,369.375" fill="none" id="SimulationFragment-to-SimulationCanvasView" style="stroke:#4B5563;stroke-width:1.875;"/><polygon fill="#4B5563" points="785.625,369.375,768.75,361.875,776.25,369.375,768.75,376.875,785.625,369.375" style="stroke:#4B5563;stroke-width:1.875;"/></g><!--link SimulationFragment to SimulationSession--><g class="link" data-entity-1="ent0003" data-entity-2="ent0009" data-link-type="dependency" data-source-line="35" id="lnk21"><path codeLine="35" d="M641.4563,414.525 C641.4563,468.6 641.4563,552 641.4563,552 C641.4563,552 836.4563,552 836.4563,552 C836.4563,552 836.4563,586.6875 836.4563,623.6625" fill="none" id="SimulationFragment-to-SimulationSession" style="stroke:#4B5563;stroke-width:1.875;"/><polygon fill="#4B5563" points="836.4563,634.9125,843.9563,618.0375,836.4563,625.5375,828.9563,618.0375,836.4563,634.9125" style="stroke:#4B5563;stroke-width:1.875;"/></g><!--link SimulationFragment to SimulationEngine--><g class="link" data-entity-1="ent0003" data-entity-2="ent0010" data-link-type="dependency" data-source-line="36" id="lnk22"><path codeLine="36" d="M656.4563,324.1125 C656.4563,282.9938 656.4563,228.75 656.4563,228.75 C656.4563,228.75 728.775,228.75 809.0625,228.75" fill="none" id="SimulationFragment-to-SimulationEngine" style="stroke:#4B5563;stroke-width:1.875;"/><polygon fill="#4B5563" points="820.3125,228.75,803.4375,221.25,810.9375,228.75,803.4375,236.25,820.3125,228.75" style="stroke:#4B5563;stroke-width:1.875;"/></g><!--link SimulationFragment to AppSettings--><g class="link" data-entity-1="ent0003" data-entity-2="ent0013" data-link-type="dependency" data-source-line="37" id="lnk23"><path codeLine="37" d="M652.7063,415.0875 C652.7063,452.0625 652.7063,498 652.7063,498 C652.7063,498 754.8375,498 845.2125,498" fill="none" id="SimulationFragment-to-AppSettings" style="stroke:#4B5563;stroke-width:1.875;"/><polygon fill="#4B5563" points="856.4625,498,839.5875,490.5,847.0875,498,839.5875,505.5,856.4625,498" style="stroke:#4B5563;stroke-width:1.875;"/></g><!--link StatsFragment to SimulationEngine--><g class="link" data-entity-1="ent0004" data-entity-2="ent0010" data-link-type="dependency" data-source-line="39" id="lnk24"><path codeLine="39" d="M637.9875,198.75 C694.8375,198.75 750.8625,198.75 809.6438,198.75" fill="none" id="StatsFragment-to-SimulationEngine" style="stroke:#4B5563;stroke-width:1.875;"/><polygon fill="#4B5563" points="820.8938,198.75,804.0188,191.25,811.5188,198.75,804.0188,206.25,820.8938,198.75" style="stroke:#4B5563;stroke-width:1.875;"/></g><!--link StatsFragment to StatTracker--><g class="link" data-entity-1="ent0004" data-entity-2="ent0012" data-link-type="dependency" data-source-line="40" id="lnk25"><path codeLine="40" d="M512.0813,167.9063 C512.0813,121.9875 512.0813,58.125 512.0813,58.125 C512.0813,58.125 713.5688,58.125 847.8,58.125" fill="none" id="StatsFragment-to-StatTracker" style="stroke:#4B5563;stroke-width:1.875;"/><polygon fill="#4B5563" points="859.05,58.125,842.175,50.625,849.675,58.125,842.175,65.625,859.05,58.125" style="stroke:#4B5563;stroke-width:1.875;"/></g><!--link SaveLoadFragment to SimulationSession--><g class="link" data-entity-1="ent0005" data-entity-2="ent0009" data-link-type="dependency" data-source-line="42" id="lnk26"><path codeLine="42" d="M668.8688,836.25 C739.2375,836.25 806.4563,836.25 806.4563,836.25 C806.4563,836.25 806.4563,680.625 806.4563,680.625 C806.4563,680.625 798.7125,680.625 804.7125,680.625" fill="none" id="SaveLoadFragment-to-SimulationSession" style="stroke:#4B5563;stroke-width:1.875;"/><polygon fill="#4B5563" points="815.9625,680.625,799.0875,673.125,806.5875,680.625,799.0875,688.125,815.9625,680.625" style="stroke:#4B5563;stroke-width:1.875;"/></g><!--link SaveLoadFragment to SaveAdapter--><g class="link" data-entity-1="ent0005" data-entity-2="ent0015" data-link-type="dependency" data-source-line="43" id="lnk27"><path codeLine="43" d="M512.0813,882.0938 C512.0813,928.0125 512.0813,991.875 512.0813,991.875 C512.0813,991.875 705.1687,991.875 839.6625,991.875" fill="none" id="SaveLoadFragment-to-SaveAdapter" style="stroke:#4B5563;stroke-width:1.875;"/><polygon fill="#4B5563" points="850.9125,991.875,834.0375,984.375,841.5375,991.875,834.0375,999.375,850.9125,991.875" style="stroke:#4B5563;stroke-width:1.875;"/></g><!--link SaveLoadFragment to SimulationStorage--><g class="link" data-entity-1="ent0005" data-entity-2="ent0011" data-link-type="dependency" data-source-line="44" id="lnk28"><path codeLine="44" d="M668.5313,858.75 C715.8187,858.75 756.3,858.75 803.1563,858.75" fill="none" id="SaveLoadFragment-to-SimulationStorage" style="stroke:#4B5563;stroke-width:1.875;"/><polygon fill="#4B5563" points="814.4063,858.75,797.5313,851.25,805.0313,858.75,797.5313,866.25,814.4063,858.75" style="stroke:#4B5563;stroke-width:1.875;"/></g><!--link SettingsFragment to AppSettings--><g class="link" data-entity-1="ent0006" data-entity-2="ent0013" data-link-type="dependency" data-source-line="46" id="lnk29"><path codeLine="46" d="M647.0813,635.0438 C647.0813,591.9938 647.0813,534 647.0813,534 C647.0813,534 752.7563,534 845.025,534" fill="none" id="SettingsFragment-to-AppSettings" style="stroke:#4B5563;stroke-width:1.875;"/><polygon fill="#4B5563" points="856.275,534,839.4,526.5,846.9,534,839.4,541.5,856.275,534" style="stroke:#4B5563;stroke-width:1.875;"/></g><!--link SettingsFragment to SimulationSession--><g class="link" data-entity-1="ent0006" data-entity-2="ent0009" data-link-type="dependency" data-source-line="47" id="lnk30"><path codeLine="47" d="M658.3875,658.125 C708.7875,658.125 753.9187,658.125 804.5063,658.125" fill="none" id="SettingsFragment-to-SimulationSession" style="stroke:#4B5563;stroke-width:1.875;"/><polygon fill="#4B5563" points="815.7563,658.125,798.8813,650.625,806.3813,658.125,798.8813,665.625,815.7563,658.125" style="stroke:#4B5563;stroke-width:1.875;"/></g><!--link SettingsFragment to SimulationStorage--><g class="link" data-entity-1="ent0006" data-entity-2="ent0011" data-link-type="dependency" data-source-line="48" id="lnk31"><path codeLine="48" d="M658.8188,703.125 C728.7375,703.125 797.0813,703.125 797.0813,703.125 C797.0813,703.125 797.0813,813.75 797.0813,813.75 C797.0813,813.75 792.2813,813.75 802.65,813.75" fill="none" id="SettingsFragment-to-SimulationStorage" style="stroke:#4B5563;stroke-width:1.875;"/><polygon fill="#4B5563" points="813.9,813.75,797.025,806.25,804.525,813.75,797.025,821.25,813.9,813.75" style="stroke:#4B5563;stroke-width:1.875;"/></g><!--link SimulationCanvasView to TextureLibrary--><g class="link" data-entity-1="ent0007" data-entity-2="ent0008" data-link-type="dependency" data-source-line="50" id="lnk32"><path codeLine="50" d="M1146.0563,369.375 C1183.5188,369.375 1211.0063,369.375 1246.0875,369.375" fill="none" id="SimulationCanvasView-to-TextureLibrary" style="stroke:#4B5563;stroke-width:1.875;"/><polygon fill="#4B5563" points="1257.3375,369.375,1240.4625,361.875,1247.9625,369.375,1240.4625,376.875,1257.3375,369.375" style="stroke:#4B5563;stroke-width:1.875;"/></g><!--link MusicManager to AppSettings--><g class="link" data-entity-1="ent0014" data-entity-2="ent0013" data-link-type="dependency" data-source-line="51" id="lnk33"><path codeLine="51" d="M636.1688,516 C705.1687,516 778.6875,516 845.025,516" fill="none" id="MusicManager-to-AppSettings" style="stroke:#4B5563;stroke-width:1.875;"/><polygon fill="#4B5563" points="856.275,516,839.4,508.5,846.9,516,839.4,523.5,856.275,516" style="stroke:#4B5563;stroke-width:1.875;"/></g><?plantuml-src XPD1Ry8m38Nl-HMHTaOQOunncLGG5PDW5z3kfZKbeYILuyBOhrzW1ML96TVdByxpSsAtIbT0i9ChoBO5cLhdOrCQaaoWhIkXPc6lbDr0RWvA5t8DfKMlabTATbyVVGNNK9US6iqVi4CvnNAFh3BmcAm4Q_yb4Y9p-BNqy3pgzrzwNd5yEZuob2CrI3Tz6lO64H8Czv0EqoGTXTWKmNMAu4b_CfX4SC9CQbKplcT6BzGtId_uKcdaOuNI46-CA77DaeqaLMnOveemOsMq4ES0v1oKJfooLtnif8NQrIMSe9IWs9tMq1GOs8OQx75c80zbP7QxYkXhwp7eFTXFXOUcjCGlhWbdQaL0iPK5Mdko7UeJNRXvOvoDknazuqjouI8rIb9L5ukN86ghiZbeTugysP8SAdQAy8EIdSvRMqmnyoUnk1o65nDXZYA-Dd3Z9NkNlQHw5snYli7vQOe_Czze4oFUXaGOootJhPYtitjzcZSYmf2ZcLg15aDtiEjzBRiwiy4Vy9zawEa7?></g></svg>